<?xml version="1.0" encoding="UTF-8"?>
<svg width="820px" height="232px" viewBox="0 0 820 232" version="1.1" xmlns="http://www.w3.org/2000/svg" xmlns:xlink="http://www.w3.org/1999/xlink">
    <!-- Generator: Sketch 40.3 (33839) - http://www.bohemiancoding.com/sketch -->
    <title>A</title>
    <desc>Created with Sketch.</desc>
    <defs></defs>
    <g id="Main" stroke="none" stroke-width="1" fill="none" fill-rule="evenodd">
        <g id="合作社" transform="translate(-80.000000, -162.000000)" fill="#000000">
            <g id="A" transform="translate(80.000000, 162.000000)">
                <path d="M109.6,9.2 L82.8,9.2 L82.8,85.4 L92.2,85.4 L92.2,79 L109.6,79 L109.6,9.2 Z M92.2,69.4 L92.2,18.8 L100.2,18.8 L100.2,69.4 L92.2,69.4 Z M129.8,2.5 L129.8,19.4 L112.4,19.4 L112.4,28.4 L122.6,28.4 L126.5,36.1 L113,36.1 L113,44.9 L136.4,44.9 L136.4,49.6 L116.3,49.6 L116.3,58.2 L136.1,58.2 C135.9,59.7 135.6,61.2 135.3,62.7 L112.4,62.7 L112.4,71.6 L132.2,71.6 L130.4,74.6 C126.8,79.4 119.8,83.4 109.6,86.6 L114.6,94.5 C125.3,91.3 133,86.6 137.8,80.5 C139.7,77.9 141.3,74.9 142.6,71.6 L170.7,71.6 L170.7,62.7 L145,62.7 L145.6,58.2 L167,58.2 L167,49.6 L145.9,49.6 L145.9,44.9 L169.7,44.9 L169.7,36.1 L156,36.1 L159.1,28.4 L170.4,28.4 L170.4,19.4 L152.8,19.4 L152.8,2.5 L144.2,2.5 L144.2,19.4 L138.4,19.4 L138.4,2.5 L129.8,2.5 Z M135.7,36.1 L131.8,28.4 L149.9,28.4 L146.8,36.1 L135.7,36.1 Z M162.3,3.5 C160.1,7.5 157.5,11 154.5,13.9 L161,18.5 C164.2,15.3 167.1,11.5 169.7,7.1 L162.3,3.5 Z M121.3,3.1 L113.8,6.2 C116.2,9.8 118.5,14 120.6,18.8 L128,15.6 C126.1,11.1 123.9,6.9 121.3,3.1 L121.3,3.1 Z M148.9,72.6 L144.2,79.8 C152.2,83.4 160,88.3 167.6,94.5 L173,86.3 C165.7,81 157.7,76.4 148.9,72.6 L148.9,72.6 Z M260.6,40.3 C256.4,42.3 252.1,44.2 247.9,45.9 L247.9,29.2 L259.8,29.2 L259.8,19.1 L247.9,19.1 L247.9,2.3 L237.3,2.3 L237.3,19.1 L222.7,19.1 L222.7,29.2 L237.3,29.2 L237.3,49.6 C231.9,51.2 226.5,52.6 221.1,53.7 L223.7,63.7 C228.3,62.4 232.8,61 237.3,59.6 L237.3,80.6 C237.3,82.8 236.1,84 233.8,84 C231,84 227.9,83.8 224.7,83.4 L227.1,93.5 L237.4,93.5 C244.4,93.5 247.9,90.1 247.9,83.3 L247.9,55.9 C252.2,54.3 256.4,52.5 260.6,50.7 L260.6,40.3 Z M261.9,8.5 L261.9,18.7 L287.4,18.7 L287.4,79.9 C287.4,82.5 286.3,83.8 284.3,83.8 C279.4,83.8 274.2,83.6 268.8,83.2 L271.1,93.3 L288,93.3 C294.6,93.3 298,89.7 298,82.6 L298,18.7 L313.1,18.7 L313.1,8.5 L261.9,8.5 Z M406.2,1.6 C394.6,14.8 380.1,25.9 362.6,34.8 L368.2,45 C373.6,42 378.7,38.8 383.5,35.5 L383.5,42.5 L436.5,42.5 L436.5,35.6 C441.1,38.9 446.1,42 451.4,44.8 L457.1,34.7 C440.7,26.7 426.3,15.6 413.8,1.6 L406.2,1.6 Z M387.8,32.4 C396.3,26 403.7,18.9 410,11.1 C416.5,19 423.9,26.1 432.1,32.4 L387.8,32.4 Z M443,52.3 L377,52.3 L377,94.3 L387.1,94.3 L387.1,89.2 L432.9,89.2 L432.9,94.3 L443,94.3 L443,52.3 Z M387.1,79.3 L387.1,62.1 L432.9,62.1 L432.9,79.3 L387.1,79.3 Z M551.8,25.1 L554.7,25.1 L554.7,94.7 L565.3,94.7 L565.3,72.4 L592.9,72.4 L592.9,62.3 L565.3,62.3 L565.3,48.6 L592.9,48.6 L592.9,38.4 L565.3,38.4 L565.3,25.1 L596.7,25.1 L596.7,14.8 L556.4,14.8 C557.8,11.1 559.2,7.3 560.6,3.3 L550,0.9 C544,18.1 537,31.3 529,40.7 L536.5,49.7 C542.1,42.9 547.2,34.7 551.8,25.1 L551.8,25.1 Z M516.8,42.4 L516.8,94.7 L527.4,94.7 L527.4,27.4 C531.4,20.6 534.7,13.4 537.2,5.9 L527.3,1.3 C522.4,16.3 514.9,29.4 504.8,40.5 L508.3,51.7 C511.3,48.7 514.1,45.6 516.8,42.4 L516.8,42.4 Z M705.3,2.6 L705.3,30.8 L684.2,30.8 L684.2,41 L705.3,41 L705.3,80.9 L680.6,80.9 L680.6,91.1 L740,91.1 L740,80.9 L715.9,80.9 L715.9,41 L737.7,41 L737.7,30.8 L715.9,30.8 L715.9,2.6 L705.3,2.6 Z M662.1,56.2 L662.1,94.3 L672.4,94.3 L672.4,54.8 C675.8,57.4 679.1,60.4 682.5,63.9 L688.4,54.8 C683.6,50.7 678.4,47.1 672.9,44.1 C678.1,37.2 682,30.3 684.5,23.3 L684.5,14.5 L673.7,14.5 C672.5,10.5 671,6.1 669.1,1.5 L659.2,4.2 C660.8,7.5 662.3,10.9 663.7,14.5 L650.2,14.5 L650.2,24.5 L673.9,24.5 C669.3,34.4 660.6,44.6 647.8,55 L651.1,66 C655,62.7 658.7,59.4 662.1,56.2 L662.1,56.2 Z" id="噗打合作社" opacity="0.900000036"></path>
                <g id="Group-9" transform="translate(80.000000, 137.000000)">
                    <text id="手打拍賣、噗浪破天荒合作，為-C2C-交" font-family="PingFangTC-Semibold, PingFang TC" font-size="14" font-weight="500" line-spacing="25" letter-spacing="0.100000001">
                        <tspan x="280" y="15">手打拍賣、噗浪破天荒合作，為 C2C 交易與社群網站的結合</tspan>
                        <tspan x="280" y="40">帶來新定義。幫你的精心創作開家店？把私人好物換成錢？現</tspan>
                        <tspan x="280" y="65">在就連結手打拍賣，在噗浪上互通有無吧！透過噗打合作社曝</tspan>
                        <tspan x="280" y="90">光推廣，推廣成功只收取 5% 手續費，開店上架完全免費</tspan>
                        <tspan x="636.368" y="90">！</tspan>
                    </text>
                    <text id="手打噗浪深整合、-噗友買賣不是夢。" font-family="PingFangTC-Medium, PingFang TC" font-size="27" font-weight="400" line-spacing="41" letter-spacing="4.5999999">
                        <tspan x="0" y="38">手打噗浪深整合、</tspan>
                        <tspan x="0" y="79">噗友買賣不是夢</tspan>
                        <tspan x="221.199999" y="79">。</tspan>
                    </text>
                </g>
            </g>
        </g>
    </g>
</svg>