<?xml version="1.0" encoding="UTF-8"?>
<svg width="820px" height="481px" viewBox="0 0 820 481" version="1.1" xmlns="http://www.w3.org/2000/svg" xmlns:xlink="http://www.w3.org/1999/xlink">
    <!-- Generator: Sketch 40.3 (33839) - http://www.bohemiancoding.com/sketch -->
    <title>B</title>
    <desc>Created with Sketch.</desc>
    <defs>
        <rect id="path-1" x="0" y="0" width="40" height="40"></rect>
        <mask id="mask-2" maskContentUnits="userSpaceOnUse" maskUnits="objectBoundingBox" x="0" y="0" width="40" height="40" fill="white">
            <use xlink:href="#path-1"></use>
        </mask>
        <rect id="path-3" x="35" y="0" width="205" height="100"></rect>
        <mask id="mask-4" maskContentUnits="userSpaceOnUse" maskUnits="objectBoundingBox" x="0" y="0" width="205" height="100" fill="white">
            <use xlink:href="#path-3"></use>
        </mask>
        <rect id="path-5" x="0" y="0" width="381" height="320"></rect>
        <mask id="mask-6" maskContentUnits="userSpaceOnUse" maskUnits="objectBoundingBox" x="0" y="0" width="381" height="320" fill="white">
            <use xlink:href="#path-5"></use>
        </mask>
    </defs>
    <g id="Main" stroke="none" stroke-width="1" fill="none" fill-rule="evenodd">
        <g id="合作社" transform="translate(-80.000000, -510.000000)">
            <g id="B" transform="translate(80.000000, 510.000000)">
                <g id="Group-10" transform="translate(312.000000, 142.000000)"></g>
                <path d="M83.788,258.458 L83.788,259.746 L87.204,259.746 L87.204,260.39 L84.292,260.39 L84.292,265.57 L87.204,265.57 L87.204,266.242 L83.48,266.242 L83.48,267.53 L87.204,267.53 L87.204,268.734 L88.604,268.734 L88.604,267.53 L92.258,267.53 L92.258,266.242 L88.604,266.242 L88.604,265.57 L91.516,265.57 L91.516,260.39 L88.604,260.39 L88.604,259.746 L92.006,259.746 L92.006,258.458 L88.604,258.458 L88.604,257.534 L87.204,257.534 L87.204,258.458 L83.788,258.458 Z M90.172,264.366 L88.576,264.366 L88.576,263.54 L90.172,263.54 L90.172,264.366 Z M87.232,264.366 L85.636,264.366 L85.636,263.54 L87.232,263.54 L87.232,264.366 Z M85.636,262.42 L85.636,261.594 L87.232,261.594 L87.232,262.42 L85.636,262.42 Z M88.576,261.594 L90.172,261.594 L90.172,262.42 L88.576,262.42 L88.576,261.594 Z M81.03,257.548 L80.064,258.472 C80.988,259.2 81.702,259.872 82.206,260.488 L83.144,259.55 C82.556,258.878 81.856,258.22 81.03,257.548 L81.03,257.548 Z M79.728,260.88 L79.728,262.196 L81.562,262.196 C81.142,262.84 80.596,263.512 79.952,264.24 L79.952,265.332 L81.926,265.332 C81.772,266.06 81.576,266.718 81.324,267.334 C80.736,267.558 80.134,268.286 79.504,269.518 L80.554,270.498 C81.142,269.266 81.576,268.65 81.828,268.65 C81.94,268.65 82.052,268.692 82.15,268.804 C82.626,269.294 83.144,269.658 83.732,269.896 C84.222,270.092 84.936,270.204 85.888,270.232 C86.826,270.26 87.778,270.288 88.73,270.288 L92.16,270.288 L92.496,268.916 C90.872,268.972 89.556,269.014 88.548,269.014 C87.568,269.014 86.7,269 85.944,269 C85.188,268.972 84.614,268.874 84.208,268.72 C83.816,268.552 83.396,268.244 82.948,267.824 C82.85,267.74 82.738,267.642 82.626,267.558 C82.878,266.914 83.102,266.074 83.298,265.066 L83.298,264.114 L81.674,264.114 C82.234,263.414 82.738,262.714 83.158,262.014 L83.158,260.88 L79.728,260.88 Z M95.034,266.83 C94.978,267.95 94.824,268.958 94.572,269.826 L95.86,270.232 C96.112,269.294 96.266,268.216 96.336,266.998 L95.034,266.83 Z M97.82,266.592 L96.63,266.858 C96.784,267.698 96.924,268.678 97.036,269.77 L98.394,269.448 C98.226,268.412 98.03,267.46 97.82,266.592 L97.82,266.592 Z M99.22,263.008 L98.1,263.372 C98.212,263.722 98.324,264.072 98.422,264.436 C97.862,264.576 97.288,264.702 96.714,264.814 C97.498,263.862 98.478,262.406 99.626,260.418 L99.626,260.558 L102.86,260.558 L102.86,262.224 L100.004,262.224 L100.004,263.624 L107.172,263.624 L107.172,262.224 L104.302,262.224 L104.302,260.558 L107.48,260.558 L107.48,259.158 L104.302,259.158 L104.302,257.52 L102.86,257.52 L102.86,259.158 L99.626,259.158 L99.626,260.18 L98.394,259.718 C98.086,260.306 97.778,260.852 97.498,261.356 C97.092,261.426 96.672,261.482 96.252,261.538 C96.91,260.586 97.554,259.382 98.184,257.94 L96.784,257.394 C96.336,258.738 95.804,259.984 95.188,261.104 C95.006,261.356 94.81,261.538 94.586,261.636 L94.936,262.966 C95.552,262.868 96.154,262.77 96.714,262.686 C96.154,263.596 95.678,264.24 95.286,264.618 C95.104,264.786 94.88,264.912 94.628,265.024 L95.006,266.34 C96.168,266.2 97.4,265.934 98.702,265.542 L98.814,266.088 L100.018,265.78 C99.78,264.744 99.514,263.82 99.22,263.008 L99.22,263.008 Z M99.416,266.228 L98.324,266.592 C98.604,267.32 98.856,268.146 99.094,269.084 L100.284,268.538 C100.032,267.712 99.752,266.942 99.416,266.228 L99.416,266.228 Z M106.78,264.646 L100.452,264.646 L100.452,270.456 L101.88,270.456 L101.88,269.938 L105.366,269.938 L105.366,270.456 L106.78,270.456 L106.78,264.646 Z M101.88,268.566 L101.88,266.004 L105.366,266.004 L105.366,268.566 L101.88,268.566 Z M113.784,258.528 L110.032,258.528 L110.032,269.196 L111.348,269.196 L111.348,268.3 L113.784,268.3 L113.784,258.528 Z M111.348,266.956 L111.348,259.872 L112.468,259.872 L112.468,266.956 L111.348,266.956 Z M116.612,257.59 L116.612,259.956 L114.176,259.956 L114.176,261.216 L115.604,261.216 L116.15,262.294 L114.26,262.294 L114.26,263.526 L117.536,263.526 L117.536,264.184 L114.722,264.184 L114.722,265.388 L117.494,265.388 C117.466,265.598 117.424,265.808 117.382,266.018 L114.176,266.018 L114.176,267.264 L116.948,267.264 L116.696,267.684 C116.192,268.356 115.212,268.916 113.784,269.364 L114.484,270.47 C115.982,270.022 117.06,269.364 117.732,268.51 C117.998,268.146 118.222,267.726 118.404,267.264 L122.338,267.264 L122.338,266.018 L118.74,266.018 L118.824,265.388 L121.82,265.388 L121.82,264.184 L118.866,264.184 L118.866,263.526 L122.198,263.526 L122.198,262.294 L120.28,262.294 L120.714,261.216 L122.296,261.216 L122.296,259.956 L119.832,259.956 L119.832,257.59 L118.628,257.59 L118.628,259.956 L117.816,259.956 L117.816,257.59 L116.612,257.59 Z M117.438,262.294 L116.892,261.216 L119.426,261.216 L118.992,262.294 L117.438,262.294 Z M121.162,257.73 C120.854,258.29 120.49,258.78 120.07,259.186 L120.98,259.83 C121.428,259.382 121.834,258.85 122.198,258.234 L121.162,257.73 Z M115.422,257.674 L114.372,258.108 C114.708,258.612 115.03,259.2 115.324,259.872 L116.36,259.424 C116.094,258.794 115.786,258.206 115.422,257.674 L115.422,257.674 Z M119.286,267.404 L118.628,268.412 C119.748,268.916 120.84,269.602 121.904,270.47 L122.66,269.322 C121.638,268.58 120.518,267.936 119.286,267.404 L119.286,267.404 Z M136.286,265.192 C135.684,265.836 135.054,266.312 134.396,266.634 C134.004,266.13 133.668,265.584 133.402,264.996 L132.254,265.64 C133.094,267.586 134.564,269.182 136.678,270.428 L137.644,269.308 C136.748,268.818 135.978,268.258 135.306,267.614 C136.034,267.25 136.678,266.774 137.266,266.158 L136.286,265.192 Z M126.108,257.618 L125.058,258.626 C126.192,259.382 127.074,260.082 127.69,260.74 L128.726,259.69 C128.012,259.004 127.144,258.318 126.108,257.618 L126.108,257.618 Z M125.758,260.894 L124.722,261.902 C125.786,262.672 126.612,263.386 127.2,264.03 L128.236,262.994 C127.564,262.294 126.738,261.594 125.758,260.894 L125.758,260.894 Z M127.34,264.856 C126.654,266.508 125.856,268.118 124.946,269.7 L126.416,270.344 C127.242,268.804 127.984,267.152 128.656,265.402 L127.34,264.856 Z M130.546,262.294 L135.012,262.294 L135.012,263.428 L130.546,263.428 L130.546,262.294 Z M135.012,261.062 L130.546,261.062 L130.546,259.9 L135.012,259.9 L135.012,261.062 Z M132.688,257.464 L131.218,257.716 C131.414,257.982 131.596,258.276 131.764,258.584 L129.146,258.584 L129.146,268.412 C129.146,268.72 129.02,268.93 128.796,269.07 L129.146,270.4 C130.854,270.05 132.268,269.686 133.388,269.294 L133.066,267.992 C132.226,268.314 131.386,268.58 130.546,268.776 L130.546,264.744 L136.412,264.744 L136.412,258.584 L133.248,258.584 C133.066,258.164 132.884,257.8 132.688,257.464 L132.688,257.464 Z M143.696,257.632 C142.604,258.066 141.568,258.332 140.574,258.444 L140.882,266.06 L139.888,266.06 L139.888,267.432 L143.696,267.432 C142.674,268.118 141.414,268.72 139.93,269.252 L140.854,270.442 C142.464,269.812 143.822,269.084 144.928,268.258 L143.99,267.432 L148.092,267.432 L147.504,268.314 C148.932,268.846 150.318,269.574 151.676,270.498 L152.502,269.224 C151.382,268.538 150.136,267.936 148.778,267.432 L152.418,267.432 L152.418,266.06 L151.452,266.06 L151.76,258.108 L148.736,258.108 L148.736,259.48 L150.374,259.48 L150.318,260.768 L148.89,260.768 L148.89,262.098 L150.248,262.098 L150.192,263.386 L148.792,263.386 L148.792,264.73 L150.122,264.73 L150.066,266.06 L142.31,266.06 L142.24,264.702 L143.822,264.702 L143.822,263.358 L142.17,263.358 L142.1,262.084 L143.92,262.084 L143.92,260.754 L142.03,260.754 L141.974,259.592 C143.01,259.368 143.752,259.144 144.228,258.948 L143.696,257.632 Z M146.146,259.9 L148.232,259.9 L148.232,258.64 L146.328,258.64 C146.356,258.36 146.398,258.052 146.44,257.73 L145.152,257.618 C144.998,258.906 144.774,260.39 144.466,262.07 L147,262.07 C146.986,263.47 146.944,264.24 146.888,264.394 C146.804,264.548 146.664,264.632 146.468,264.646 C146.202,264.646 145.922,264.632 145.614,264.618 L146.02,265.92 L146.44,265.92 C147.182,265.92 147.672,265.738 147.91,265.402 C148.134,265.052 148.26,263.526 148.302,260.838 L145.992,260.838 C146.048,260.53 146.09,260.222 146.146,259.9 L146.146,259.9 Z M144.466,262.448 C144.41,263.526 144.214,264.548 143.878,265.514 L145.04,265.85 C145.39,264.786 145.586,263.68 145.628,262.532 L144.466,262.448 Z M165.806,257.59 C163.062,258.206 159.716,258.514 155.754,258.514 L156.216,259.83 C157.826,259.83 159.324,259.774 160.724,259.69 L160.724,261.454 L156.048,261.454 L156.048,262.882 L160.724,262.882 L160.724,264.73 L154.886,264.73 L154.886,266.144 L160.724,266.144 L160.724,268.566 C160.724,268.86 160.528,269.014 160.164,269.014 C159.52,269.014 158.862,268.986 158.162,268.93 L158.498,270.344 L160.668,270.344 C161.676,270.344 162.194,269.868 162.194,268.916 L162.194,266.144 L167.528,266.144 L167.528,264.73 L162.194,264.73 L162.194,262.882 L166.478,262.882 L166.478,261.454 L162.194,261.454 L162.194,259.564 C163.818,259.396 165.26,259.144 166.52,258.822 L165.806,257.59 Z M175.204,262.882 C174.616,263.162 174.014,263.428 173.426,263.666 L173.426,261.328 L175.092,261.328 L175.092,259.914 L173.426,259.914 L173.426,257.562 L171.942,257.562 L171.942,259.914 L169.898,259.914 L169.898,261.328 L171.942,261.328 L171.942,264.184 C171.186,264.408 170.43,264.604 169.674,264.758 L170.038,266.158 C170.682,265.976 171.312,265.78 171.942,265.584 L171.942,268.524 C171.942,268.832 171.774,269 171.452,269 C171.06,269 170.626,268.972 170.178,268.916 L170.514,270.33 L171.956,270.33 C172.936,270.33 173.426,269.854 173.426,268.902 L173.426,265.066 C174.028,264.842 174.616,264.59 175.204,264.338 L175.204,262.882 Z M175.386,258.43 L175.386,259.858 L178.956,259.858 L178.956,268.426 C178.956,268.79 178.802,268.972 178.522,268.972 C177.836,268.972 177.108,268.944 176.352,268.888 L176.674,270.302 L179.04,270.302 C179.964,270.302 180.44,269.798 180.44,268.804 L180.44,259.858 L182.554,259.858 L182.554,258.43 L175.386,258.43 Z M194.29,265.402 L193.212,266.004 C193.968,268.132 195.256,269.588 197.076,270.358 L197.846,269.224 C197.062,268.916 196.39,268.454 195.816,267.866 C196.404,267.53 196.964,267.068 197.468,266.48 L196.516,265.528 C196.04,266.116 195.55,266.564 195.032,266.9 C194.738,266.452 194.486,265.962 194.29,265.402 L194.29,265.402 Z M188.774,268.006 C189.488,268.006 189.852,267.586 189.852,266.76 L189.852,259.606 L188.13,259.606 L188.13,257.464 L186.856,257.464 L186.856,259.606 L185.12,259.606 L185.12,268.048 L186.324,268.048 L186.324,260.88 L186.856,260.88 L186.856,270.512 L188.13,270.512 L188.13,268.006 L188.774,268.006 Z M188.13,260.88 L188.662,260.88 L188.662,266.522 C188.662,266.718 188.564,266.816 188.382,266.816 L188.13,266.802 L188.13,260.88 Z M197.076,257.842 L190.972,257.842 L190.972,263.918 L190.132,263.918 L190.132,265.234 L190.86,265.234 L190.86,268.888 C190.86,269.042 190.734,269.168 190.482,269.252 L191.028,270.456 C192.232,270.148 193.282,269.756 194.206,269.28 L193.954,267.992 C193.394,268.328 192.82,268.608 192.26,268.804 L192.26,265.234 L197.622,265.234 L197.622,263.918 L192.358,263.918 L192.358,263.12 L196.628,263.12 L196.628,261.874 L192.358,261.874 L192.358,261.118 L196.572,261.118 L196.572,259.858 L192.358,259.858 L192.358,259.13 L197.076,259.13 L197.076,257.842 Z M200.286,257.954 L200.286,262 L204.598,262 L204.598,257.954 L200.286,257.954 Z M203.254,260.796 L201.63,260.796 L201.63,259.158 L203.254,259.158 L203.254,260.796 Z M199.866,262.574 L199.866,263.918 L200.972,263.918 C200.804,264.674 200.594,265.528 200.328,266.452 L202.974,266.452 C202.932,267.852 202.806,268.636 202.596,268.804 C202.4,268.958 201.98,269.042 201.364,269.042 C201.168,269.042 200.972,269.028 200.748,269 L201.154,270.33 L201.336,270.33 C202.554,270.33 203.352,270.148 203.73,269.798 C204.108,269.448 204.332,267.908 204.388,265.164 L202.05,265.164 C202.162,264.8 202.26,264.38 202.372,263.918 L204.878,263.918 L204.878,262.574 L199.866,262.574 Z M207.986,257.45 L207.986,259.984 L205.214,259.984 L205.214,264.24 C205.186,266.368 204.85,268.146 204.234,269.546 L205.368,270.526 C206.18,268.79 206.586,266.69 206.586,264.24 L206.586,261.258 L208.028,261.258 L208.028,262.28 L206.684,262.462 L206.88,263.68 L208.028,263.526 L208.028,264.072 C208.028,264.828 208.476,265.206 209.372,265.206 L212.074,265.206 L212.074,263.96 L209.778,263.96 C209.526,263.96 209.4,263.876 209.4,263.736 L209.4,263.344 L210.996,263.12 L210.884,262.434 L211.906,262.728 C212.186,262.028 212.382,261.342 212.494,260.642 L212.494,259.984 L209.414,259.984 L209.414,259.312 L212.158,259.312 L212.158,258.122 L209.414,258.122 L209.414,257.45 L207.986,257.45 Z M209.4,261.258 L211.024,261.258 C210.954,261.468 210.884,261.678 210.8,261.902 L209.4,262.098 L209.4,261.258 Z M207.272,265.542 C207.244,267.586 206.838,268.958 206.04,269.672 L207.188,270.568 C208.126,269.658 208.616,267.978 208.644,265.542 L207.272,265.542 Z M211.346,270.246 C211.976,270.204 212.368,270.064 212.536,269.84 C212.732,269.588 212.83,268.888 212.83,267.754 L211.612,267.292 C211.612,267.81 211.598,268.216 211.57,268.496 C211.542,268.776 211.444,268.93 211.276,268.944 L210.856,268.944 C210.744,268.93 210.688,268.874 210.688,268.79 L210.688,265.542 L209.358,265.542 L209.358,269.056 C209.358,269.84 209.834,270.246 210.8,270.246 L211.346,270.246 Z M225.49,260.866 L224.44,261.538 C224.692,261.874 224.944,262.196 225.168,262.518 C224.244,262.672 223.18,262.812 222.004,262.952 C223.25,262.098 224.636,260.866 226.162,259.27 L224.888,258.64 C224.524,259.032 224.174,259.41 223.81,259.774 C223.166,259.844 222.494,259.914 221.766,259.984 C222.354,259.354 222.914,258.654 223.446,257.898 L222.144,257.394 C221.528,258.416 221.038,259.13 220.688,259.536 C220.38,259.886 220.016,260.082 219.596,260.11 L219.778,261.272 C220.8,261.188 221.696,261.118 222.452,261.048 C221.248,262.07 220.17,262.742 219.204,263.064 L219.596,264.198 L221.276,264.086 C221.066,264.534 220.828,264.982 220.548,265.402 C220.408,265.234 220.296,265.066 220.184,264.898 L219.05,265.542 C219.246,265.85 219.484,266.144 219.736,266.438 C219.386,266.816 218.994,267.166 218.56,267.488 L219.61,268.384 C219.974,268.09 220.338,267.768 220.674,267.404 C221.038,267.74 221.458,268.048 221.906,268.342 C220.996,268.734 219.904,269.056 218.63,269.308 L219.288,270.512 C220.884,270.162 222.214,269.7 223.278,269.14 C224.384,269.7 225.672,270.148 227.142,270.498 L227.968,269.28 C226.708,269.028 225.588,268.692 224.58,268.286 C225.406,267.614 225.966,266.844 226.274,265.962 L226.274,264.786 L222.396,264.786 C222.48,264.604 222.564,264.408 222.662,264.198 L222.214,264.016 C223.628,263.904 224.86,263.764 225.924,263.61 C226.12,263.946 226.316,264.268 226.498,264.576 L227.59,263.82 C227.114,262.98 226.414,261.986 225.49,260.866 L225.49,260.866 Z M223.222,267.642 C222.564,267.264 221.976,266.844 221.472,266.396 L221.71,266.032 L224.79,266.032 C224.44,266.634 223.922,267.166 223.222,267.642 L223.222,267.642 Z M217.748,257.436 C217.118,258.71 216.152,259.816 214.836,260.768 L215.284,262.182 C217.062,260.95 218.308,259.564 219.036,258.052 L217.748,257.436 Z M218.07,261.02 C217.384,262.406 216.348,263.61 214.962,264.646 L215.396,266.032 C215.844,265.71 216.264,265.374 216.67,265.038 L216.67,270.372 L218.07,270.372 L218.07,263.61 C218.588,262.98 219.008,262.322 219.344,261.622 L218.07,261.02 Z M236.372,262.742 C236.022,262.742 235.742,262.84 235.532,263.05 C235.308,263.246 235.196,263.512 235.196,263.848 C235.196,264.156 235.294,264.422 235.504,264.632 C235.714,264.842 235.966,264.954 236.274,264.954 C236.428,264.954 236.54,264.926 236.624,264.898 C236.624,265.234 236.498,265.556 236.26,265.892 C235.994,266.2 235.672,266.424 235.294,266.564 L235.294,267.488 C236.022,267.278 236.61,266.9 237.044,266.354 C237.464,265.794 237.688,265.15 237.688,264.408 C237.688,263.918 237.562,263.512 237.324,263.204 C237.072,262.896 236.75,262.742 236.372,262.742 L236.372,262.742 Z M247.044,261.972 L249.816,261.972 L249.816,263.47 L247.044,263.47 L247.044,261.972 Z M249.816,260.67 L247.044,260.67 L247.044,259.256 L249.816,259.256 L249.816,260.67 Z M245.504,270.078 C247.324,269.63 248.962,269.112 250.404,268.524 C250.628,268.944 250.824,269.364 251.02,269.784 L252.154,268.986 C251.692,268.006 251.034,266.858 250.18,265.542 L249.074,266.242 C249.298,266.592 249.508,266.942 249.718,267.306 C248.906,267.614 248.024,267.922 247.044,268.202 L247.044,264.828 L251.188,264.828 L251.188,257.94 L245.616,257.94 L245.616,267.936 C245.616,268.286 245.406,268.538 245,268.678 L245.504,270.078 Z M255.878,268.552 C256.914,268.552 257.446,268.02 257.446,266.956 L257.446,257.968 L252.56,257.968 L252.56,270.428 L254.016,270.428 L254.016,259.34 L255.99,259.34 L255.99,266.62 C255.99,266.998 255.78,267.194 255.388,267.194 L254.422,267.138 L254.814,268.552 L255.878,268.552 Z M260.194,258.248 L260.194,259.662 L269.602,259.662 L269.602,268.426 C269.602,268.818 269.42,269.028 269.084,269.028 C268.384,269.028 267.642,269 266.886,268.944 L267.222,270.358 L269.588,270.358 C270.568,270.358 271.072,269.826 271.072,268.79 L271.072,259.662 L272.808,259.662 L272.808,258.248 L260.194,258.248 Z M267.474,261.342 L261.692,261.342 L261.692,267.95 L263.092,267.95 L263.092,266.83 L267.474,266.83 L267.474,261.342 Z M263.092,265.514 L263.092,262.644 L266.088,262.644 L266.088,265.514 L263.092,265.514 Z M275.612,257.954 L275.612,262.546 L278.132,262.546 L278.132,264.016 L275.192,264.016 L275.192,265.36 L276.004,265.36 C275.822,267.18 275.486,268.622 274.996,269.7 L276.144,270.512 C276.704,269.42 277.096,267.712 277.334,265.36 L278.132,265.36 L278.132,270.414 L279.546,270.414 L279.546,257.562 L278.132,257.562 L278.132,261.216 L277.012,261.216 L277.012,257.954 L275.612,257.954 Z M281.996,266.032 L280.89,266.732 C281.534,267.446 282.052,268.104 282.444,268.706 L283.578,267.908 C283.214,267.376 282.682,266.76 281.996,266.032 L281.996,266.032 Z M282.08,260.25 C282.724,260.614 283.368,261.034 283.984,261.51 L284.768,260.642 C284.292,260.306 283.774,259.984 283.214,259.676 L286.14,259.676 C285.188,261.356 283.214,262.504 280.218,263.12 L280.876,264.296 C284.502,263.344 286.756,261.776 287.652,259.592 L287.652,258.5 L284.236,258.5 C284.46,258.22 284.656,257.94 284.824,257.646 L283.41,257.464 C282.794,258.402 281.632,259.186 279.924,259.83 L280.75,260.908 C281.226,260.698 281.66,260.474 282.08,260.25 L282.08,260.25 Z M279.952,264.436 L279.952,265.808 L285.09,265.808 L285.09,268.538 C285.09,268.916 284.922,269.112 284.586,269.112 C284.04,269.112 283.466,269.07 282.878,269.014 L283.2,270.414 L285.09,270.414 C286.028,270.414 286.504,269.91 286.504,268.902 L286.504,265.808 L287.974,265.808 L287.974,264.436 L286.504,264.436 L286.504,262.882 L285.09,262.882 L285.09,264.436 L279.952,264.436 Z M280.484,262.504 C281.366,262.308 282.192,262.098 282.962,261.86 L282.696,260.978 C281.87,261.202 281.016,261.398 280.134,261.538 L280.484,262.504 Z M296.952,257.352 L295.37,257.604 C295.51,257.884 295.636,258.178 295.762,258.486 L290.4,258.486 L290.4,259.858 L294.012,259.858 L293.116,260.194 C293.354,260.6 293.564,261.02 293.746,261.468 L290.834,261.468 L290.834,270.358 L292.248,270.358 L292.248,264.856 L292.85,265.906 C293.788,265.57 294.488,265.136 294.936,264.604 C295.3,264.142 295.538,263.526 295.664,262.756 L297.428,262.756 L297.428,264.044 C297.428,264.716 297.792,265.066 298.534,265.066 L300.466,265.066 L300.466,263.876 L299.136,263.876 C298.884,263.876 298.758,263.736 298.758,263.456 L298.758,262.756 L300.844,262.756 L300.844,268.552 C300.844,268.93 300.676,269.126 300.368,269.126 L299.332,269.084 L299.332,265.514 L293.774,265.514 L293.774,269.266 L299.094,269.266 L299.388,270.386 L300.802,270.386 C301.768,270.386 302.258,269.882 302.258,268.874 L302.258,261.468 L299.29,261.468 C299.556,261.09 299.808,260.656 300.032,260.18 L299.094,259.858 L302.72,259.858 L302.72,258.486 L297.33,258.486 C297.204,258.066 297.078,257.688 296.952,257.352 L296.952,257.352 Z M292.248,264.744 L292.248,262.756 L294.292,262.756 C294.18,263.19 294.012,263.554 293.788,263.834 C293.452,264.212 292.948,264.52 292.248,264.744 L292.248,264.744 Z M295.202,261.468 C295.006,260.88 294.782,260.334 294.544,259.858 L298.576,259.858 C298.324,260.418 298.044,260.95 297.708,261.468 L295.202,261.468 Z M297.946,267.992 L295.16,267.992 L295.16,266.746 L297.946,266.746 L297.946,267.992 Z M307.582,257.94 L307.582,262.938 L315.632,262.938 L315.632,257.94 L307.582,257.94 Z M314.162,261.566 L309.052,261.566 L309.052,259.312 L314.162,259.312 L314.162,261.566 Z M310.97,263.862 L305.692,263.862 L305.692,270.246 L307.12,270.246 L307.12,269.588 L309.556,269.588 L309.556,270.246 L310.97,270.246 L310.97,263.862 Z M307.12,268.23 L307.12,265.234 L309.556,265.234 L309.556,268.23 L307.12,268.23 Z M317.508,263.862 L312.062,263.862 L312.062,270.246 L313.49,270.246 L313.49,269.588 L316.052,269.588 L316.052,270.246 L317.508,270.246 L317.508,263.862 Z M313.49,268.23 L313.49,265.234 L316.052,265.234 L316.052,268.23 L313.49,268.23 Z M84.586,282.506 L84.586,293.552 L79.728,293.552 L79.728,294.98 L92.314,294.98 L92.314,293.552 L86.098,293.552 L86.098,288.078 L91.278,288.078 L91.278,286.664 L86.098,286.664 L86.098,282.506 L84.586,282.506 Z M101.908,283.318 L101.908,288.54 L106.752,288.54 L106.752,283.318 L101.908,283.318 Z M105.366,287.224 L103.294,287.224 L103.294,284.62 L105.366,284.62 L105.366,287.224 Z M96.784,282.548 L96.784,283.668 L94.964,283.668 L94.964,284.928 L96.672,284.928 C96.42,286.412 95.72,287.532 94.558,288.288 L95.636,289.254 C97.022,288.274 97.848,286.832 98.114,284.928 L99.612,284.928 C99.598,286.16 99.542,286.93 99.43,287.21 C99.318,287.49 99.038,287.644 98.59,287.658 C98.38,287.644 98.114,287.616 97.778,287.574 L98.142,288.89 C98.45,288.946 98.702,288.974 98.926,288.974 C99.696,288.974 100.242,288.722 100.55,288.218 C100.858,287.714 101.012,286.202 101.04,283.668 L98.212,283.668 L98.212,282.548 L96.784,282.548 Z M94.852,289.968 L94.852,291.34 L100.312,291.34 L100.312,295.442 L101.768,295.442 L101.768,291.34 L107.242,291.34 L107.242,289.968 L101.768,289.968 L101.768,288.974 L100.312,288.974 L100.312,289.968 L94.852,289.968 Z M98.688,291.634 C97.624,292.614 96.322,293.454 94.754,294.168 L95.622,295.316 C97.218,294.504 98.576,293.58 99.682,292.516 L98.688,291.634 Z M103.238,291.592 L102.398,292.558 C103.77,293.314 105.086,294.21 106.36,295.246 L107.312,294.182 C106.094,293.258 104.736,292.39 103.238,291.592 L103.238,291.592 Z M117.046,292.684 C116.15,292.88 115.254,293.076 114.33,293.244 L114.33,291.312 L116.64,291.312 L116.64,289.912 L114.33,289.912 L114.33,288.498 L112.86,288.498 L112.86,289.912 L110.326,289.912 L110.326,291.312 L112.86,291.312 L112.86,293.496 C111.824,293.65 110.76,293.776 109.682,293.888 L110.032,295.288 C112.524,294.98 114.862,294.588 117.046,294.14 L117.046,292.684 Z M109.92,282.968 L109.92,284.34 L111.936,284.34 C111.208,285.782 110.634,286.664 110.242,286.986 C110.102,287.042 109.92,287.098 109.668,287.126 L109.99,288.428 C112.034,288.218 113.938,287.966 115.688,287.658 C115.884,287.994 116.066,288.33 116.234,288.666 L117.452,287.826 C116.962,286.93 116.262,285.866 115.338,284.648 L114.218,285.362 C114.498,285.768 114.764,286.174 115.016,286.566 C114.008,286.734 113,286.86 111.992,286.972 C112.44,286.356 112.944,285.474 113.504,284.34 L116.99,284.34 L116.99,282.968 L109.92,282.968 Z M120.616,295.33 C121.596,295.33 122.086,294.84 122.086,293.86 L122.086,282.548 L120.602,282.548 L120.602,293.482 C120.602,293.818 120.434,294 120.112,294 C119.51,294 118.88,293.972 118.208,293.916 L118.53,295.33 L120.616,295.33 Z M117.914,283.808 L117.914,292.362 L119.328,292.362 L119.328,283.808 L117.914,283.808 Z M126.15,284.886 L126.15,289.128 L130.392,289.128 L130.392,289.758 C128.754,289.8 127.088,289.842 125.394,289.87 L125.674,291.018 C128.25,290.934 130.756,290.85 133.178,290.752 L133.178,291.564 L124.848,291.564 L124.848,292.754 L127.886,292.754 L127.34,293.286 C128.222,293.902 128.908,294.476 129.384,295.022 L130.378,294.014 C129.902,293.594 129.342,293.174 128.684,292.754 L133.178,292.754 L133.178,293.79 C133.178,294.042 133.024,294.182 132.744,294.182 C132.324,294.182 131.876,294.154 131.4,294.098 L131.694,295.414 L133.206,295.414 C134.144,295.414 134.62,294.98 134.62,294.14 L134.62,292.754 L137.392,292.754 L137.392,291.564 L134.62,291.564 L134.62,290.682 L135.656,290.64 C135.838,290.892 136.006,291.13 136.16,291.368 L137.126,290.71 C136.832,290.248 136.426,289.716 135.894,289.128 L136.09,289.128 L136.09,284.886 L131.848,284.886 L131.848,284.34 L137.252,284.34 L137.252,283.22 L131.848,283.22 L131.848,282.464 L130.392,282.464 L130.392,283.22 L124.988,283.22 L124.988,284.34 L130.392,284.34 L130.392,284.886 L126.15,284.886 Z M134.83,289.604 L131.848,289.716 L131.848,289.128 L134.984,289.128 L134.62,289.352 L134.83,289.604 Z M134.676,288.064 L131.848,288.064 L131.848,287.448 L134.676,287.448 L134.676,288.064 Z M130.392,288.064 L127.564,288.064 L127.564,287.448 L130.392,287.448 L130.392,288.064 Z M127.564,286.482 L127.564,285.866 L130.392,285.866 L130.392,286.482 L127.564,286.482 Z M131.848,285.866 L134.676,285.866 L134.676,286.482 L131.848,286.482 L131.848,285.866 Z M150.836,283.724 L150.836,284.354 L141.932,284.354 L141.932,283.724 L150.836,283.724 Z M141.932,285.306 L146.398,285.306 L146.398,287.476 L147.728,287.476 L147.728,285.306 L152.208,285.306 L152.208,282.73 L140.546,282.73 L140.546,288.302 C140.532,290.752 140.238,292.74 139.664,294.28 L140.756,295.274 C141.176,294.224 141.484,293.062 141.68,291.774 L142.1,292.474 C142.464,292.306 142.8,292.138 143.136,291.942 L143.136,293.678 L145.964,293.678 L145.964,294.112 C144.802,294.168 143.626,294.21 142.436,294.252 L142.688,295.246 C144.858,295.134 146.93,295.008 148.89,294.84 C148.932,294.938 148.974,295.05 149.03,295.176 L149.394,295.036 L149.506,295.456 C149.87,295.484 150.136,295.512 150.304,295.512 C151.312,295.512 151.886,295.12 152.012,294.336 C152.138,293.818 152.208,292.474 152.208,290.29 L145.082,290.29 C145.166,290.164 145.264,290.038 145.348,289.912 L151.564,289.912 L151.564,287.812 L142.73,287.812 L142.73,289.912 L143.906,289.912 C143.43,290.444 142.702,290.906 141.75,291.298 C141.862,290.36 141.932,289.366 141.932,288.302 L141.932,285.306 Z M147.21,294.042 L147.21,293.678 L148.316,293.678 C148.372,293.762 148.414,293.86 148.47,293.972 C148.05,294 147.63,294.014 147.21,294.042 L147.21,294.042 Z M149.506,293.678 L150.052,293.678 L150.052,291.648 L147.21,291.648 L147.21,291.256 L150.864,291.256 C150.836,292.684 150.794,293.524 150.724,293.776 C150.668,294.196 150.458,294.406 150.094,294.406 L149.954,294.406 C149.814,294.168 149.674,293.93 149.506,293.678 L149.506,293.678 Z M145.964,291.648 L143.598,291.648 C143.766,291.522 143.948,291.396 144.13,291.256 L145.964,291.256 L145.964,291.648 Z M143.094,285.46 L142.73,286.174 C143.654,286.244 144.564,286.356 145.432,286.496 L145.754,285.74 C144.9,285.614 144.018,285.516 143.094,285.46 L143.094,285.46 Z M145.488,286.65 C144.9,286.734 143.92,286.79 142.534,286.846 L142.758,287.63 C144.158,287.546 145.166,287.462 145.754,287.378 L145.488,286.65 Z M148.652,286.468 C149.8,286.412 150.822,286.314 151.69,286.202 L151.396,285.418 C150.542,285.558 149.576,285.656 148.484,285.712 L148.652,286.468 Z M148.652,286.622 L148.274,287.322 C149.394,287.406 150.458,287.546 151.466,287.714 L151.774,286.944 C150.78,286.804 149.744,286.692 148.652,286.622 L148.652,286.622 Z M150.248,289.17 L148.988,289.17 L148.988,288.568 L150.248,288.568 L150.248,289.17 Z M147.728,289.17 L146.496,289.17 L146.496,288.568 L147.728,288.568 L147.728,289.17 Z M145.25,289.17 L144.046,289.17 L144.046,288.568 L145.25,288.568 L145.25,289.17 Z M148.792,292.908 L147.21,292.908 L147.21,292.404 L148.792,292.404 L148.792,292.908 Z M145.964,292.908 L144.396,292.908 L144.396,292.404 L145.964,292.404 L145.964,292.908 Z M163.132,282.422 L163.132,291.004 L164.588,291.004 L164.588,283.724 L167.78,283.724 L167.78,282.422 L163.132,282.422 Z M176.632,282.352 L175.05,282.604 C175.19,282.884 175.316,283.178 175.442,283.486 L170.08,283.486 L170.08,284.858 L173.692,284.858 L172.796,285.194 C173.034,285.6 173.244,286.02 173.426,286.468 L170.514,286.468 L170.514,295.358 L171.928,295.358 L171.928,289.856 L172.53,290.906 C173.468,290.57 174.168,290.136 174.616,289.604 C174.98,289.142 175.218,288.526 175.344,287.756 L177.108,287.756 L177.108,289.044 C177.108,289.716 177.472,290.066 178.214,290.066 L180.146,290.066 L180.146,288.876 L178.816,288.876 C178.564,288.876 178.438,288.736 178.438,288.456 L178.438,287.756 L180.524,287.756 L180.524,293.552 C180.524,293.93 180.356,294.126 180.048,294.126 L179.012,294.084 L179.012,290.514 L173.454,290.514 L173.454,294.266 L178.774,294.266 L179.068,295.386 L180.482,295.386 C181.448,295.386 181.938,294.882 181.938,293.874 L181.938,286.468 L178.97,286.468 C179.236,286.09 179.488,285.656 179.712,285.18 L178.774,284.858 L182.4,284.858 L182.4,283.486 L177.01,283.486 C176.884,283.066 176.758,282.688 176.632,282.352 L176.632,282.352 Z M171.928,289.744 L171.928,287.756 L173.972,287.756 C173.86,288.19 173.692,288.554 173.468,288.834 C173.132,289.212 172.628,289.52 171.928,289.744 L171.928,289.744 Z M174.882,286.468 C174.686,285.88 174.462,285.334 174.224,284.858 L178.256,284.858 C178.004,285.418 177.724,285.95 177.388,286.468 L174.882,286.468 Z M177.626,292.992 L174.84,292.992 L174.84,291.746 L177.626,291.746 L177.626,292.992 Z M187.262,282.94 L187.262,287.938 L195.312,287.938 L195.312,282.94 L187.262,282.94 Z M193.842,286.566 L188.732,286.566 L188.732,284.312 L193.842,284.312 L193.842,286.566 Z M190.65,288.862 L185.372,288.862 L185.372,295.246 L186.8,295.246 L186.8,294.588 L189.236,294.588 L189.236,295.246 L190.65,295.246 L190.65,288.862 Z M186.8,293.23 L186.8,290.234 L189.236,290.234 L189.236,293.23 L186.8,293.23 Z M197.188,288.862 L191.742,288.862 L191.742,295.246 L193.17,295.246 L193.17,294.588 L195.732,294.588 L195.732,295.246 L197.188,295.246 L197.188,288.862 Z M193.17,293.23 L193.17,290.234 L195.732,290.234 L195.732,293.23 L193.17,293.23 Z M201.14,282.688 L200.104,283.696 C201.168,284.452 201.98,285.166 202.554,285.81 L203.604,284.774 C202.932,284.074 202.106,283.388 201.14,282.688 L201.14,282.688 Z M200.888,286.118 L199.852,287.126 C200.846,287.854 201.602,288.526 202.134,289.17 L203.17,288.12 C202.554,287.448 201.784,286.79 200.888,286.118 L200.888,286.118 Z M202.022,289.954 C201.448,291.606 200.762,293.23 199.978,294.798 L201.448,295.442 C202.148,293.902 202.792,292.25 203.352,290.486 L202.022,289.954 Z M203.744,283.248 L203.744,284.662 L210.296,284.662 L210.296,293.496 C210.296,293.902 210.128,294.112 209.792,294.112 C209.106,294.112 208.378,294.07 207.622,294.014 L207.93,295.414 L210.296,295.414 C211.262,295.414 211.752,294.896 211.752,293.874 L211.752,284.662 L212.76,284.662 L212.76,283.248 L203.744,283.248 Z M204.262,286.342 L204.262,291.844 L208.952,291.844 L208.952,286.342 L204.262,286.342 Z M207.594,290.528 L205.634,290.528 L205.634,287.658 L207.594,287.658 L207.594,290.528 Z M218.924,283.934 L218.924,285.236 L222.228,285.236 C222.158,285.502 222.074,285.768 221.976,286.034 L219.932,286.034 L219.932,293.104 L226.694,293.104 L226.694,286.034 L223.53,286.034 C223.628,285.782 223.712,285.516 223.796,285.236 L227.646,285.236 L227.646,283.934 L225.574,283.934 C225.812,283.626 226.036,283.29 226.246,282.926 L224.86,282.436 C224.594,282.954 224.3,283.458 223.964,283.934 L222.466,283.934 C222.214,283.36 221.934,282.856 221.64,282.436 L220.296,282.954 C220.548,283.262 220.772,283.598 220.968,283.934 L218.924,283.934 Z M225.35,291.844 L221.276,291.844 L221.276,291.032 L225.35,291.032 L225.35,291.844 Z M221.276,289.898 L221.276,289.17 L225.35,289.17 L225.35,289.898 L221.276,289.898 Z M221.276,288.05 L221.276,287.294 L225.35,287.294 L225.35,288.05 L221.276,288.05 Z M216.32,282.562 L215.368,283.458 C216.292,284.186 216.992,284.872 217.496,285.488 L218.434,284.55 C217.846,283.878 217.146,283.22 216.32,282.562 L216.32,282.562 Z M215.088,285.88 L215.088,287.196 L216.922,287.196 C216.502,287.826 215.956,288.498 215.312,289.226 L215.312,290.318 L217.286,290.318 C217.146,291.018 216.95,291.69 216.712,292.306 C216.124,292.53 215.508,293.258 214.864,294.476 L215.914,295.456 C216.516,294.224 216.95,293.622 217.216,293.622 C217.328,293.622 217.44,293.664 217.538,293.776 C218.014,294.266 218.532,294.63 219.12,294.854 C219.596,295.036 220.31,295.148 221.262,295.176 C222.2,295.204 223.152,295.232 224.104,295.232 L227.52,295.232 L227.856,293.86 C226.232,293.916 224.93,293.958 223.922,293.958 C222.942,293.958 222.088,293.944 221.332,293.944 C220.576,293.916 219.988,293.832 219.596,293.678 C219.204,293.51 218.784,293.216 218.336,292.796 C218.224,292.684 218.126,292.6 218.014,292.53 C218.266,291.886 218.476,291.06 218.658,290.052 L218.658,289.1 L217.034,289.1 C217.594,288.4 218.098,287.714 218.518,287.014 L218.518,285.88 L215.088,285.88 Z M233.012,286.916 L233.012,294.196 L229.82,294.196 L229.82,295.498 L234.468,295.498 L234.468,286.916 L233.012,286.916 Z M251.44,287.07 C250.894,287.07 250.432,287.252 250.054,287.616 C249.662,287.966 249.48,288.414 249.48,288.96 C249.48,289.492 249.662,289.94 250.054,290.304 C250.432,290.668 250.894,290.85 251.44,290.85 C251.972,290.85 252.434,290.668 252.826,290.304 C253.204,289.94 253.4,289.492 253.4,288.96 C253.4,288.428 253.204,287.98 252.826,287.616 C252.434,287.252 251.972,287.07 251.44,287.07 L251.44,287.07 Z M251.44,288.05 C251.692,288.05 251.902,288.134 252.098,288.316 C252.28,288.484 252.378,288.708 252.378,288.96 C252.378,289.212 252.28,289.422 252.098,289.604 C251.902,289.772 251.692,289.87 251.44,289.87 C251.188,289.87 250.964,289.772 250.782,289.604 C250.586,289.422 250.502,289.212 250.502,288.96 C250.502,288.708 250.586,288.484 250.782,288.316 C250.964,288.134 251.188,288.05 251.44,288.05 L251.44,288.05 Z M266.872,282.352 L265.29,282.604 C265.43,282.884 265.556,283.178 265.682,283.486 L260.32,283.486 L260.32,284.858 L263.932,284.858 L263.036,285.194 C263.274,285.6 263.484,286.02 263.666,286.468 L260.754,286.468 L260.754,295.358 L262.168,295.358 L262.168,289.856 L262.77,290.906 C263.708,290.57 264.408,290.136 264.856,289.604 C265.22,289.142 265.458,288.526 265.584,287.756 L267.348,287.756 L267.348,289.044 C267.348,289.716 267.712,290.066 268.454,290.066 L270.386,290.066 L270.386,288.876 L269.056,288.876 C268.804,288.876 268.678,288.736 268.678,288.456 L268.678,287.756 L270.764,287.756 L270.764,293.552 C270.764,293.93 270.596,294.126 270.288,294.126 L269.252,294.084 L269.252,290.514 L263.694,290.514 L263.694,294.266 L269.014,294.266 L269.308,295.386 L270.722,295.386 C271.688,295.386 272.178,294.882 272.178,293.874 L272.178,286.468 L269.21,286.468 C269.476,286.09 269.728,285.656 269.952,285.18 L269.014,284.858 L272.64,284.858 L272.64,283.486 L267.25,283.486 C267.124,283.066 266.998,282.688 266.872,282.352 L266.872,282.352 Z M262.168,289.744 L262.168,287.756 L264.212,287.756 C264.1,288.19 263.932,288.554 263.708,288.834 C263.372,289.212 262.868,289.52 262.168,289.744 L262.168,289.744 Z M265.122,286.468 C264.926,285.88 264.702,285.334 264.464,284.858 L268.496,284.858 C268.244,285.418 267.964,285.95 267.628,286.468 L265.122,286.468 Z M267.866,292.992 L265.08,292.992 L265.08,291.746 L267.866,291.746 L267.866,292.992 Z M277.502,282.94 L277.502,287.938 L285.552,287.938 L285.552,282.94 L277.502,282.94 Z M284.082,286.566 L278.972,286.566 L278.972,284.312 L284.082,284.312 L284.082,286.566 Z M280.89,288.862 L275.612,288.862 L275.612,295.246 L277.04,295.246 L277.04,294.588 L279.476,294.588 L279.476,295.246 L280.89,295.246 L280.89,288.862 Z M277.04,293.23 L277.04,290.234 L279.476,290.234 L279.476,293.23 L277.04,293.23 Z M287.428,288.862 L281.982,288.862 L281.982,295.246 L283.41,295.246 L283.41,294.588 L285.972,294.588 L285.972,295.246 L287.428,295.246 L287.428,288.862 Z M283.41,293.23 L283.41,290.234 L285.972,290.234 L285.972,293.23 L283.41,293.23 Z M291.38,282.688 L290.344,283.696 C291.408,284.452 292.22,285.166 292.794,285.81 L293.844,284.774 C293.172,284.074 292.346,283.388 291.38,282.688 L291.38,282.688 Z M291.128,286.118 L290.092,287.126 C291.086,287.854 291.842,288.526 292.374,289.17 L293.41,288.12 C292.794,287.448 292.024,286.79 291.128,286.118 L291.128,286.118 Z M292.262,289.954 C291.688,291.606 291.002,293.23 290.218,294.798 L291.688,295.442 C292.388,293.902 293.032,292.25 293.592,290.486 L292.262,289.954 Z M293.984,283.248 L293.984,284.662 L300.536,284.662 L300.536,293.496 C300.536,293.902 300.368,294.112 300.032,294.112 C299.346,294.112 298.618,294.07 297.862,294.014 L298.17,295.414 L300.536,295.414 C301.502,295.414 301.992,294.896 301.992,293.874 L301.992,284.662 L303,284.662 L303,283.248 L293.984,283.248 Z M294.502,286.342 L294.502,291.844 L299.192,291.844 L299.192,286.342 L294.502,286.342 Z M297.834,290.528 L295.874,290.528 L295.874,287.658 L297.834,287.658 L297.834,290.528 Z M309.164,283.934 L309.164,285.236 L312.468,285.236 C312.398,285.502 312.314,285.768 312.216,286.034 L310.172,286.034 L310.172,293.104 L316.934,293.104 L316.934,286.034 L313.77,286.034 C313.868,285.782 313.952,285.516 314.036,285.236 L317.886,285.236 L317.886,283.934 L315.814,283.934 C316.052,283.626 316.276,283.29 316.486,282.926 L315.1,282.436 C314.834,282.954 314.54,283.458 314.204,283.934 L312.706,283.934 C312.454,283.36 312.174,282.856 311.88,282.436 L310.536,282.954 C310.788,283.262 311.012,283.598 311.208,283.934 L309.164,283.934 Z M315.59,291.844 L311.516,291.844 L311.516,291.032 L315.59,291.032 L315.59,291.844 Z M311.516,289.898 L311.516,289.17 L315.59,289.17 L315.59,289.898 L311.516,289.898 Z M311.516,288.05 L311.516,287.294 L315.59,287.294 L315.59,288.05 L311.516,288.05 Z M306.56,282.562 L305.608,283.458 C306.532,284.186 307.232,284.872 307.736,285.488 L308.674,284.55 C308.086,283.878 307.386,283.22 306.56,282.562 L306.56,282.562 Z M305.328,285.88 L305.328,287.196 L307.162,287.196 C306.742,287.826 306.196,288.498 305.552,289.226 L305.552,290.318 L307.526,290.318 C307.386,291.018 307.19,291.69 306.952,292.306 C306.364,292.53 305.748,293.258 305.104,294.476 L306.154,295.456 C306.756,294.224 307.19,293.622 307.456,293.622 C307.568,293.622 307.68,293.664 307.778,293.776 C308.254,294.266 308.772,294.63 309.36,294.854 C309.836,295.036 310.55,295.148 311.502,295.176 C312.44,295.204 313.392,295.232 314.344,295.232 L317.76,295.232 L318.096,293.86 C316.472,293.916 315.17,293.958 314.162,293.958 C313.182,293.958 312.328,293.944 311.572,293.944 C310.816,293.916 310.228,293.832 309.836,293.678 C309.444,293.51 309.024,293.216 308.576,292.796 C308.464,292.684 308.366,292.6 308.254,292.53 C308.506,291.886 308.716,291.06 308.898,290.052 L308.898,289.1 L307.274,289.1 C307.834,288.4 308.338,287.714 308.758,287.014 L308.758,285.88 L305.328,285.88 Z M84.586,307.506 L84.586,318.552 L79.728,318.552 L79.728,319.98 L92.314,319.98 L92.314,318.552 L86.098,318.552 L86.098,313.078 L91.278,313.078 L91.278,311.664 L86.098,311.664 L86.098,307.506 L84.586,307.506 Z M99.878,309.774 L97.75,309.774 C98.002,309.13 98.212,308.416 98.366,307.66 L96.896,307.464 C96.784,308.262 96.602,309.032 96.35,309.774 L95.006,309.774 L95.006,319.994 L96.406,319.994 L96.406,318.888 L98.478,318.888 L98.478,319.588 L99.878,319.588 L99.878,309.774 Z M96.406,317.544 L96.406,314.898 L98.478,314.898 L98.478,317.544 L96.406,317.544 Z M96.406,313.596 L96.406,311.146 L98.478,311.146 L98.478,313.596 L96.406,313.596 Z M102.426,313.176 L101.236,313.918 C102.104,315.038 102.804,316.06 103.322,316.984 L104.498,316.172 C104.008,315.304 103.322,314.31 102.426,313.176 L102.426,313.176 Z M107.088,309.774 L102.832,309.774 C103.042,309.102 103.224,308.388 103.364,307.632 L101.922,307.45 C101.586,309.368 100.97,310.992 100.046,312.308 L100.928,313.47 C101.446,312.798 101.894,312.042 102.272,311.202 L105.66,311.202 C105.632,315.164 105.59,317.474 105.506,318.146 C105.422,318.692 105.128,318.972 104.624,318.972 C104.162,318.972 103.616,318.944 103,318.902 L103.35,320.232 C104.078,320.288 104.582,320.316 104.862,320.316 C106.066,320.316 106.738,319.826 106.878,318.846 C107.018,317.698 107.088,314.674 107.088,309.774 L107.088,309.774 Z M116.472,307.352 L114.89,307.604 C115.03,307.884 115.156,308.178 115.282,308.486 L109.92,308.486 L109.92,309.858 L113.532,309.858 L112.636,310.194 C112.874,310.6 113.084,311.02 113.266,311.468 L110.354,311.468 L110.354,320.358 L111.768,320.358 L111.768,314.856 L112.37,315.906 C113.308,315.57 114.008,315.136 114.456,314.604 C114.82,314.142 115.058,313.526 115.184,312.756 L116.948,312.756 L116.948,314.044 C116.948,314.716 117.312,315.066 118.054,315.066 L119.986,315.066 L119.986,313.876 L118.656,313.876 C118.404,313.876 118.278,313.736 118.278,313.456 L118.278,312.756 L120.364,312.756 L120.364,318.552 C120.364,318.93 120.196,319.126 119.888,319.126 L118.852,319.084 L118.852,315.514 L113.294,315.514 L113.294,319.266 L118.614,319.266 L118.908,320.386 L120.322,320.386 C121.288,320.386 121.778,319.882 121.778,318.874 L121.778,311.468 L118.81,311.468 C119.076,311.09 119.328,310.656 119.552,310.18 L118.614,309.858 L122.24,309.858 L122.24,308.486 L116.85,308.486 C116.724,308.066 116.598,307.688 116.472,307.352 L116.472,307.352 Z M111.768,314.744 L111.768,312.756 L113.812,312.756 C113.7,313.19 113.532,313.554 113.308,313.834 C112.972,314.212 112.468,314.52 111.768,314.744 L111.768,314.744 Z M114.722,311.468 C114.526,310.88 114.302,310.334 114.064,309.858 L118.096,309.858 C117.844,310.418 117.564,310.95 117.228,311.468 L114.722,311.468 Z M117.466,317.992 L114.68,317.992 L114.68,316.746 L117.466,316.746 L117.466,317.992 Z M127.102,307.94 L127.102,312.938 L135.152,312.938 L135.152,307.94 L127.102,307.94 Z M133.682,311.566 L128.572,311.566 L128.572,309.312 L133.682,309.312 L133.682,311.566 Z M130.49,313.862 L125.212,313.862 L125.212,320.246 L126.64,320.246 L126.64,319.588 L129.076,319.588 L129.076,320.246 L130.49,320.246 L130.49,313.862 Z M126.64,318.23 L126.64,315.234 L129.076,315.234 L129.076,318.23 L126.64,318.23 Z M137.028,313.862 L131.582,313.862 L131.582,320.246 L133.01,320.246 L133.01,319.588 L135.572,319.588 L135.572,320.246 L137.028,320.246 L137.028,313.862 Z M133.01,318.23 L133.01,315.234 L135.572,315.234 L135.572,318.23 L133.01,318.23 Z M143.808,312.756 C143.416,313.022 143.024,313.274 142.632,313.498 L142.632,311.272 L144.074,311.272 L144.074,309.984 L142.632,309.984 L142.632,307.534 L141.288,307.534 L141.288,309.984 L139.748,309.984 L139.748,311.272 L141.288,311.272 L141.288,314.184 C140.742,314.408 140.196,314.604 139.636,314.758 L140,316.2 C140.42,316.032 140.84,315.836 141.288,315.626 L141.288,318.496 C141.288,318.874 141.12,319.07 140.812,319.07 C140.476,319.07 140.112,319.042 139.734,319 L140.028,320.288 L141.274,320.288 C142.17,320.288 142.632,319.798 142.632,318.832 L142.632,314.926 C143.024,314.702 143.416,314.45 143.808,314.198 L143.808,312.756 Z M144.144,308.528 L144.144,309.872 L152.572,309.872 L152.572,308.528 L149.058,308.528 C148.918,308.108 148.792,307.73 148.666,307.394 L147.182,307.646 C147.336,307.926 147.476,308.22 147.616,308.528 L144.144,308.528 Z M146.51,314.87 C146.482,315.192 146.44,315.5 146.384,315.808 C146.132,315.864 145.852,315.906 145.544,315.962 C146.076,315.178 146.776,313.75 147.672,311.692 L146.552,311.3 C146.328,311.832 146.118,312.322 145.908,312.798 C145.684,312.84 145.446,312.882 145.194,312.924 C145.614,312.252 145.978,311.384 146.3,310.32 L145.124,309.97 C144.76,311.342 144.34,312.378 143.85,313.106 L144.116,314.086 C144.564,314.016 144.998,313.946 145.404,313.89 C144.76,315.206 144.284,315.948 143.976,316.088 L144.228,317.264 C144.886,317.166 145.502,317.068 146.062,316.97 C145.95,317.222 145.824,317.474 145.684,317.698 C145.236,318.342 144.522,318.846 143.514,319.196 L144.046,320.47 C145.278,320.008 146.16,319.378 146.664,318.566 C147.224,317.67 147.546,316.48 147.658,314.996 L146.51,314.87 Z M149.198,315.024 L150.136,315.024 L150.136,316.256 L149.198,316.256 L149.198,315.024 Z M149.198,317.404 L150.136,317.404 L150.136,318.734 L149.198,318.734 L149.198,317.404 Z M149.198,319.938 L152.684,319.938 L152.684,318.734 L151.34,318.734 L151.34,317.404 L152.278,317.404 L152.278,316.256 L151.34,316.256 L151.34,315.024 L152.25,315.024 L152.25,313.876 L151.34,313.876 L151.34,312.658 L152.432,312.658 L152.432,311.454 L151.382,311.454 C151.242,310.922 151.116,310.432 150.99,310.012 L149.842,310.194 C149.996,310.586 150.15,311.006 150.29,311.454 L149.24,311.454 C149.38,311.034 149.506,310.614 149.618,310.18 L148.47,309.97 C148.19,311.272 147.728,312.476 147.07,313.582 L147.462,314.814 C147.63,314.59 147.784,314.352 147.952,314.114 L147.952,320.442 L149.198,320.442 L149.198,319.938 Z M150.136,312.658 L150.136,313.876 L149.198,313.876 L149.198,312.658 L150.136,312.658 Z M159.338,315.178 L164.42,315.178 L164.42,316.27 L159.324,316.27 C159.324,316.214 159.338,316.172 159.338,316.116 L159.338,315.178 Z M164.42,313.932 L159.338,313.932 L159.338,312.798 L164.42,312.798 L164.42,313.932 Z M159.198,317.53 L164.42,317.53 L164.42,318.58 C164.42,318.944 164.252,319.126 163.916,319.126 C163.496,319.126 163.048,319.098 162.572,319.056 L162.922,320.372 L164.336,320.372 C165.316,320.372 165.806,319.938 165.806,319.07 L165.806,311.538 L159.464,311.538 C159.702,311.146 159.926,310.726 160.15,310.306 L167.458,310.306 L167.458,308.892 L160.78,308.892 C160.934,308.472 161.074,308.038 161.214,307.59 L159.716,307.408 C159.562,307.912 159.38,308.402 159.17,308.892 L155.096,308.892 L155.096,310.306 L158.47,310.306 C157.546,311.902 156.3,313.33 154.718,314.576 L155.67,315.822 C156.51,315.136 157.28,314.394 157.98,313.582 L157.98,316.214 C157.952,317.558 157.518,318.65 156.664,319.518 L157.714,320.484 C158.47,319.672 158.974,318.692 159.198,317.53 L159.198,317.53 Z M171.41,311.678 L172.306,311.678 L172.306,315.024 C171.466,315.276 170.626,315.472 169.758,315.626 L170.108,317.04 C170.85,316.844 171.578,316.62 172.306,316.382 L172.306,320.456 L173.72,320.456 L173.72,315.878 C174.084,315.738 174.462,315.584 174.84,315.43 L174.84,314.058 C174.476,314.226 174.112,314.38 173.72,314.534 L173.72,311.678 L174.77,311.678 L174.77,310.278 L173.72,310.278 L173.72,307.52 L172.306,307.52 L172.306,310.278 L171.606,310.278 C171.662,309.774 171.69,309.242 171.718,308.71 L170.402,308.612 C170.346,310.236 170.108,311.79 169.688,313.26 L170.962,313.624 C171.144,312.994 171.298,312.35 171.41,311.678 L171.41,311.678 Z M177.976,307.478 L177.976,308.836 L174.826,308.836 L174.826,310.194 L177.976,310.194 L177.976,311.398 L175.386,311.398 L175.386,312.77 L182.162,312.77 L182.162,311.398 L179.404,311.398 L179.404,310.194 L182.596,310.194 L182.596,308.836 L179.404,308.836 L179.404,307.478 L177.976,307.478 Z M175.176,314.002 L175.176,315.374 L179.642,315.374 L179.642,318.594 C179.642,318.916 179.46,319.084 179.096,319.084 C178.62,319.084 178.144,319.042 177.64,318.986 L177.934,320.358 L179.586,320.358 C180.566,320.358 181.07,319.882 181.07,318.944 L181.07,315.374 L182.596,315.374 L182.596,314.002 L181.07,314.002 L181.07,313.246 L179.642,313.246 L179.642,314.002 L175.176,314.002 Z M176.52,315.71 L175.386,316.424 C176.058,317.208 176.59,317.936 176.982,318.594 L178.13,317.782 C177.752,317.194 177.22,316.508 176.52,315.71 L176.52,315.71 Z M186.436,309.536 C186.184,311.636 185.652,313.232 184.854,314.296 L185.582,315.584 C186.282,314.8 186.828,313.736 187.248,312.364 L188.718,312.364 C188.592,313.204 188.41,314.002 188.186,314.744 C187.822,314.436 187.43,314.198 187.024,314.002 L186.422,315.15 C186.856,315.36 187.29,315.64 187.71,315.99 C187.08,317.362 186.212,318.426 185.092,319.168 L185.806,320.47 C188.172,318.93 189.572,316.2 190.006,312.28 L190.006,311.02 L187.584,311.02 C187.682,310.558 187.766,310.068 187.836,309.536 L190.398,309.536 L190.398,308.164 L185.12,308.164 L185.12,309.536 L186.436,309.536 Z M191.938,310.992 L193.282,310.992 L193.282,312.854 L190.188,312.854 L190.188,314.226 L192.484,314.226 C191.756,315.78 190.636,317.068 189.152,318.076 L189.908,319.336 C191.406,318.132 192.526,316.648 193.282,314.856 L193.282,320.484 L194.696,320.484 L194.696,314.8 C195.186,316.424 195.942,317.894 196.964,319.238 L197.902,318.062 C196.81,316.928 196.012,315.654 195.536,314.226 L197.58,314.226 L197.58,312.854 L194.696,312.854 L194.696,310.992 L197.034,310.992 L197.034,309.62 L194.696,309.62 L194.696,307.478 L193.282,307.478 L193.282,309.62 L192.358,309.62 C192.47,309.172 192.582,308.696 192.68,308.22 L191.336,307.926 C191.098,309.27 190.678,310.544 190.09,311.734 L191.294,312.504 C191.518,312.028 191.742,311.524 191.938,310.992 L191.938,310.992 Z M200.524,307.912 L200.524,312.126 L206.124,312.126 L206.124,307.912 L200.524,307.912 Z M204.85,311.048 L201.812,311.048 L201.812,310.488 L204.85,310.488 L204.85,311.048 Z M201.812,309.55 L201.812,308.99 L204.85,308.99 L204.85,309.55 L201.812,309.55 Z M200.496,317.698 C200.398,318.622 200.146,319.448 199.754,320.162 L200.958,320.568 C201.308,319.784 201.532,318.874 201.63,317.838 L200.496,317.698 Z M203.058,317.712 L201.98,317.922 C202.148,318.622 202.302,319.448 202.414,320.386 L203.548,320.106 C203.408,319.238 203.24,318.44 203.058,317.712 L203.058,317.712 Z M204.598,317.572 L203.59,317.782 C203.828,318.482 204.038,319.266 204.206,320.162 L205.312,319.91 C205.102,319.07 204.864,318.286 204.598,317.572 L204.598,317.572 Z M206.054,317.306 L205.074,317.642 C205.368,318.16 205.648,318.776 205.9,319.476 L206.88,319.028 C206.656,318.412 206.376,317.838 206.054,317.306 L206.054,317.306 Z M202.904,315.024 L202.176,315.276 C202.54,314.786 202.974,314.17 203.45,313.414 L202.442,313.008 C202.26,313.33 202.078,313.638 201.91,313.946 L201.28,314.03 C201.602,313.61 201.896,313.05 202.148,312.35 L201.07,312.224 C200.79,313.26 200.398,313.918 199.922,314.198 L200.132,314.996 C200.538,314.954 200.93,314.912 201.322,314.856 C200.818,315.612 200.384,316.088 200.048,316.284 L200.272,317.278 C200.944,317.18 201.672,317.04 202.47,316.858 C202.498,317.04 202.54,317.236 202.582,317.46 L203.492,317.054 C203.324,316.34 203.128,315.668 202.904,315.024 L202.904,315.024 Z M202.078,315.402 C202.134,315.598 202.204,315.808 202.26,316.032 C201.924,316.102 201.63,316.172 201.35,316.228 C201.56,316.018 201.798,315.738 202.078,315.402 L202.078,315.402 Z M206.292,314.828 L205.648,315.038 C205.942,314.562 206.278,313.988 206.642,313.316 L205.634,312.91 C205.466,313.26 205.298,313.596 205.144,313.918 C204.948,313.946 204.738,313.988 204.514,314.03 C204.822,313.596 205.088,313.036 205.326,312.364 L204.248,312.238 C203.982,313.274 203.632,313.918 203.198,314.198 L203.408,315.01 C203.828,314.954 204.248,314.898 204.654,314.828 C204.22,315.584 203.856,316.074 203.576,316.284 L203.8,317.264 C204.444,317.124 205.172,316.942 205.956,316.718 C205.984,316.858 206.026,317.026 206.082,317.194 L206.95,316.802 C206.754,316.102 206.544,315.444 206.292,314.828 L206.292,314.828 Z M205.494,315.276 C205.564,315.472 205.634,315.696 205.718,315.934 C205.382,316.032 205.088,316.116 204.808,316.186 C205.004,315.962 205.242,315.654 205.494,315.276 L205.494,315.276 Z M207.132,310.026 L207.132,317.572 L212.368,317.572 L212.368,310.026 L210.268,310.026 C210.338,309.746 210.394,309.466 210.45,309.186 L212.732,309.186 L212.732,307.898 L206.684,307.898 L206.684,309.186 L208.994,309.186 C208.938,309.466 208.882,309.746 208.812,310.026 L207.132,310.026 Z M211.024,316.368 L208.476,316.368 L208.476,315.36 L211.024,315.36 L211.024,316.368 Z M208.476,314.212 L208.476,313.288 L211.024,313.288 L211.024,314.212 L208.476,314.212 Z M208.476,312.14 L208.476,311.23 L211.024,311.23 L211.024,312.14 L208.476,312.14 Z M208.49,317.698 C207.958,318.384 207.3,318.986 206.53,319.49 L207.314,320.512 C208.154,319.924 208.854,319.266 209.428,318.51 L208.49,317.698 Z M210.912,317.726 L210.086,318.524 C210.856,319.196 211.444,319.826 211.864,320.414 L212.76,319.518 C212.256,318.916 211.64,318.314 210.912,317.726 L210.912,317.726 Z M217.3,314.366 C216.866,315.962 216.11,317.474 215.046,318.902 L216.32,319.7 C217.37,318.3 218.182,316.62 218.742,314.688 L217.3,314.366 Z M225.182,314.184 L223.866,314.632 C224.734,316.06 225.546,317.712 226.288,319.588 L227.618,318.986 C226.932,317.278 226.12,315.682 225.182,314.184 L225.182,314.184 Z M216.614,308.108 L216.614,309.536 L226.148,309.536 L226.148,308.108 L216.614,308.108 Z M215.326,311.636 L215.326,313.078 L220.646,313.078 L220.646,320.456 L222.13,320.456 L222.13,313.078 L227.394,313.078 L227.394,311.636 L215.326,311.636 Z M236.372,312.742 C236.022,312.742 235.742,312.84 235.532,313.05 C235.308,313.246 235.196,313.512 235.196,313.848 C235.196,314.156 235.294,314.422 235.504,314.632 C235.714,314.842 235.966,314.954 236.274,314.954 C236.428,314.954 236.54,314.926 236.624,314.898 C236.624,315.234 236.498,315.556 236.26,315.892 C235.994,316.2 235.672,316.424 235.294,316.564 L235.294,317.488 C236.022,317.278 236.61,316.9 237.044,316.354 C237.464,315.794 237.688,315.15 237.688,314.408 C237.688,313.918 237.562,313.512 237.324,313.204 C237.072,312.896 236.75,312.742 236.372,312.742 L236.372,312.742 Z M245.504,313.876 L245.504,315.024 L247.618,315.024 L247.618,315.71 L245.196,315.71 L245.196,316.998 L251.286,316.998 L251.286,315.71 L248.892,315.71 L248.892,315.024 L250.978,315.024 L250.978,313.876 L248.892,313.876 L248.892,313.204 L251.188,313.204 L251.188,307.926 L245.308,307.926 L245.308,313.204 L247.618,313.204 L247.618,313.876 L245.504,313.876 Z M245.406,317.53 C245.35,318.482 245.182,319.336 244.93,320.092 L246.12,320.456 C246.33,319.644 246.456,318.706 246.512,317.67 L245.406,317.53 Z M247.912,317.614 L246.862,317.754 C246.904,318.356 246.932,319.21 246.946,320.302 L248.122,320.148 C248.08,319.084 248.01,318.23 247.912,317.614 L247.912,317.614 Z M250.88,317.348 L249.858,317.642 C250.068,318.37 250.25,319.126 250.404,319.896 L251.44,319.518 C251.3,318.846 251.118,318.132 250.88,317.348 L250.88,317.348 Z M249.382,317.544 L248.346,317.754 C248.486,318.44 248.612,319.224 248.71,320.12 L249.872,319.854 C249.732,319.014 249.564,318.244 249.382,317.544 L249.382,317.544 Z M250.026,312.112 L248.738,312.112 L248.738,309.018 L250.026,309.018 L250.026,312.112 Z M247.716,312.112 L246.47,312.112 L246.47,309.858 C246.638,310.446 246.792,311.076 246.918,311.72 L247.674,311.524 C247.534,310.768 247.366,310.096 247.184,309.522 L246.47,309.746 L246.47,309.018 L247.716,309.018 L247.716,312.112 Z M249.158,309.382 C249.088,310.124 248.976,310.824 248.808,311.482 L249.564,311.748 C249.746,311.062 249.872,310.348 249.942,309.592 L249.158,309.382 Z M253.652,307.576 L253.652,313.47 L251.776,313.47 L251.776,320.456 L253.148,320.456 L253.148,319.798 L255.976,319.798 L255.976,320.456 L257.348,320.456 L257.348,313.47 L255.08,313.47 L255.08,311.342 L257.894,311.342 L257.894,310.012 L255.08,310.012 L255.08,307.576 L253.652,307.576 Z M253.148,318.482 L253.148,314.786 L255.976,314.786 L255.976,318.482 L253.148,318.482 Z M260.11,313.134 L260.11,314.59 L272.836,314.59 L272.836,313.134 L260.11,313.134 Z M275.234,308.108 L275.234,309.536 L280.414,309.536 L280.414,320.456 L281.884,320.456 L281.884,312.812 C283.032,313.4 284.46,314.254 286.182,315.346 L287.064,314.03 C285.314,312.994 283.592,312.056 281.884,311.244 L281.884,309.536 L287.792,309.536 L287.792,308.108 L275.234,308.108 Z M290.274,308.248 L290.274,309.662 L299.682,309.662 L299.682,318.426 C299.682,318.818 299.5,319.028 299.164,319.028 C298.464,319.028 297.722,319 296.966,318.944 L297.302,320.358 L299.668,320.358 C300.648,320.358 301.152,319.826 301.152,318.79 L301.152,309.662 L302.888,309.662 L302.888,308.248 L290.274,308.248 Z M297.554,311.342 L291.772,311.342 L291.772,317.95 L293.172,317.95 L293.172,316.83 L297.554,316.83 L297.554,311.342 Z M293.172,315.514 L293.172,312.644 L296.168,312.644 L296.168,315.514 L293.172,315.514 Z M305.314,309.452 L305.314,310.866 L306.616,310.866 L306.616,311.93 C306.588,315.388 306.056,317.894 304.992,319.448 L306.14,320.456 C307.12,318.972 307.708,316.774 307.904,313.862 L309.262,313.862 C309.234,316.438 309.192,317.95 309.136,318.37 C309.052,318.79 308.8,319.014 308.366,319.014 C308.044,319.014 307.68,318.986 307.26,318.958 L307.596,320.204 C308.072,320.26 308.394,320.288 308.59,320.288 C309.626,320.288 310.242,319.91 310.424,319.154 L311.208,320.4 C312.482,319.672 313.546,318.79 314.4,317.74 C315.142,318.72 316.024,319.602 317.046,320.4 L318.04,319.224 C316.962,318.412 316.038,317.502 315.254,316.466 C316.136,314.898 316.64,313.05 316.752,310.894 L317.648,310.894 L317.648,309.48 L313.826,309.48 C313.98,308.92 314.12,308.346 314.232,307.73 L312.804,307.478 C312.426,309.732 311.698,311.524 310.634,312.868 L311.502,313.96 C312.244,313.134 312.86,312.112 313.35,310.894 L315.38,310.894 C315.296,312.49 314.946,313.89 314.358,315.108 C313.924,314.366 313.56,313.568 313.28,312.7 L312.132,313.344 C312.496,314.45 312.958,315.486 313.546,316.466 C312.762,317.516 311.74,318.37 310.452,319.028 C310.564,318.216 310.634,316.046 310.634,312.518 L307.96,312.518 C307.96,312.322 307.974,312.126 307.974,311.93 L307.974,310.866 L311.236,310.866 L311.236,309.452 L309.234,309.452 C309.01,308.808 308.73,308.122 308.38,307.366 L306.966,307.758 C307.26,308.304 307.526,308.864 307.764,309.452 L305.314,309.452 Z M79.798,336.02 L79.798,337.448 L84.852,337.448 C84.096,340.654 82.304,342.95 79.476,344.322 L80.414,345.554 C83.214,344.084 85.09,341.788 86.042,338.666 C87.106,341.55 88.968,343.804 91.6,345.428 L92.524,344.224 C89.794,342.628 87.932,340.374 86.924,337.448 L92.202,337.448 L92.202,336.02 L86.588,336.02 C86.686,335.208 86.742,334.34 86.742,333.43 L86.742,332.506 L85.258,332.506 L85.258,333.766 C85.244,334.55 85.188,335.292 85.104,336.02 L79.798,336.02 Z M100.372,337.742 C100.022,337.742 99.742,337.84 99.532,338.05 C99.308,338.246 99.196,338.512 99.196,338.848 C99.196,339.156 99.294,339.422 99.504,339.632 C99.714,339.842 99.966,339.954 100.274,339.954 C100.428,339.954 100.54,339.926 100.624,339.898 C100.624,340.234 100.498,340.556 100.26,340.892 C99.994,341.2 99.672,341.424 99.294,341.564 L99.294,342.488 C100.022,342.278 100.61,341.9 101.044,341.354 C101.464,340.794 101.688,340.15 101.688,339.408 C101.688,338.918 101.562,338.512 101.324,338.204 C101.072,337.896 100.75,337.742 100.372,337.742 L100.372,337.742 Z M112.49,336.384 L112.49,343.608 L108.542,343.608 L108.542,345.008 L121.086,345.008 L121.086,343.608 L117.11,343.608 L117.11,336.384 L120.848,336.384 L120.848,334.998 L117.754,334.998 C118.118,334.41 118.454,333.752 118.762,333.024 L117.362,332.52 C117.012,333.388 116.606,334.214 116.13,334.998 L112.798,334.998 L113.526,334.634 C113.12,333.864 112.7,333.164 112.252,332.52 L111.006,333.122 C111.412,333.682 111.79,334.312 112.154,334.998 L108.752,334.998 L108.752,336.384 L112.49,336.384 Z M113.932,343.608 L113.932,336.384 L115.668,336.384 L115.668,343.608 L113.932,343.608 Z M110.768,337.434 L109.466,337.714 C109.886,339.03 110.236,340.542 110.516,342.25 L111.846,341.956 C111.538,340.332 111.174,338.82 110.768,337.434 L110.768,337.434 Z M118.846,337.364 C118.496,339.17 118.09,340.654 117.614,341.83 L118.93,342.292 C119.448,340.99 119.868,339.464 120.204,337.728 L118.846,337.364 Z M122.914,333.248 L122.914,334.662 L132.322,334.662 L132.322,343.426 C132.322,343.818 132.14,344.028 131.804,344.028 C131.104,344.028 130.362,344 129.606,343.944 L129.942,345.358 L132.308,345.358 C133.288,345.358 133.792,344.826 133.792,343.79 L133.792,334.662 L135.528,334.662 L135.528,333.248 L122.914,333.248 Z M130.194,336.342 L124.412,336.342 L124.412,342.95 L125.812,342.95 L125.812,341.83 L130.194,341.83 L130.194,336.342 Z M125.812,340.514 L125.812,337.644 L128.808,337.644 L128.808,340.514 L125.812,340.514 Z M137.608,333.612 L137.608,334.984 L142.648,334.984 L142.48,335.824 L139.246,335.824 L139.246,343.902 L137.342,343.902 L137.342,345.232 L149.872,345.232 L149.872,343.902 L147.898,343.902 L147.898,335.824 L143.978,335.824 C144.034,335.544 144.104,335.264 144.16,334.984 L149.592,334.984 L149.592,333.612 L144.384,333.612 C144.412,333.304 144.454,332.982 144.496,332.646 L143.012,332.436 C142.97,332.814 142.928,333.206 142.872,333.612 L137.608,333.612 Z M140.702,343.902 L140.702,343.076 L146.442,343.076 L146.442,343.902 L140.702,343.902 Z M140.702,341.928 L140.702,341.088 L146.442,341.088 L146.442,341.928 L140.702,341.928 Z M140.702,339.94 L140.702,339.128 L146.442,339.128 L146.442,339.94 L140.702,339.94 Z M140.702,337.966 L140.702,337.112 L146.442,337.112 L146.442,337.966 L140.702,337.966 Z M160.464,332.38 L158.952,332.632 C159.12,332.94 159.26,333.262 159.4,333.612 L156.558,333.612 L156.558,334.928 L157.468,334.928 C157.72,335.516 157.958,336.132 158.154,336.79 L156.222,336.79 L156.222,338.176 L164.16,338.176 L164.16,336.79 L162.242,336.79 C162.494,336.23 162.732,335.6 162.956,334.928 L163.908,334.928 L163.908,333.612 L160.87,333.612 C160.73,333.164 160.604,332.744 160.464,332.38 L160.464,332.38 Z M160.884,336.79 L159.526,336.79 C159.33,336.104 159.134,335.488 158.924,334.928 L161.542,334.928 C161.346,335.572 161.122,336.188 160.884,336.79 L160.884,336.79 Z M153.296,345.33 C154.234,345.33 154.71,344.854 154.71,343.902 L154.71,340.052 C155.046,339.898 155.382,339.73 155.718,339.562 L155.718,338.078 C155.382,338.26 155.046,338.428 154.71,338.596 L154.71,336.44 L155.746,336.44 L155.746,335.026 L154.71,335.026 L154.71,332.52 L153.282,332.52 L153.282,335.026 L151.7,335.026 L151.7,336.44 L153.282,336.44 L153.282,339.184 C152.666,339.408 152.036,339.59 151.406,339.73 L151.784,341.2 C152.288,341.032 152.778,340.864 153.282,340.668 L153.282,343.524 C153.282,343.832 153.114,344 152.792,344 C152.456,344 152.106,343.972 151.742,343.916 L152.064,345.33 L153.296,345.33 Z M158.756,338.33 C158.644,338.652 158.504,338.988 158.336,339.352 L156.04,339.352 L156.04,340.752 L157.636,340.752 C157.356,341.228 157.062,341.732 156.726,342.25 C157.594,342.6 158.42,342.95 159.19,343.286 C158.364,343.65 157.272,343.944 155.928,344.182 L156.502,345.512 C158.42,345.134 159.848,344.63 160.786,344.014 C161.934,344.546 162.886,345.05 163.642,345.526 L164.454,344.35 C163.614,343.888 162.746,343.454 161.85,343.034 C162.382,342.404 162.76,341.648 162.97,340.752 L164.398,340.752 L164.398,339.352 L159.82,339.352 C159.932,339.072 160.058,338.792 160.17,338.498 L158.756,338.33 Z M161.598,340.752 C161.374,341.424 161.01,341.984 160.52,342.446 C159.862,342.166 159.19,341.914 158.518,341.662 C158.714,341.368 158.91,341.06 159.106,340.752 L161.598,340.752 Z M166.352,332.94 L166.352,341.746 L170.384,341.746 L170.384,332.94 L166.352,332.94 Z M169.082,340.542 L167.668,340.542 L167.668,339.072 L169.082,339.072 L169.082,340.542 Z M167.668,337.924 L167.668,336.552 L169.082,336.552 L169.082,337.924 L167.668,337.924 Z M167.668,335.404 L167.668,334.144 L169.082,334.144 L169.082,335.404 L167.668,335.404 Z M169.572,341.984 L168.564,342.614 C169.082,343.51 169.488,344.336 169.796,345.078 L170.846,344.364 C170.538,343.678 170.118,342.88 169.572,341.984 L169.572,341.984 Z M167.066,342.026 C166.772,342.908 166.366,343.804 165.862,344.714 L166.982,345.288 C167.458,344.392 167.85,343.482 168.158,342.558 L167.066,342.026 Z M172.554,332.52 L172.554,333.43 L171.014,333.43 L171.014,334.55 L172.554,334.55 L172.554,335.194 L171.294,335.194 L171.294,336.272 L172.554,336.272 L172.554,336.93 L170.734,336.93 L170.734,338.05 L174.066,338.05 L174.066,338.652 L171.364,338.652 L171.364,342.11 L170.594,342.11 L170.594,343.286 L171.364,343.286 L171.364,345.414 L172.68,345.414 L172.68,343.286 L176.824,343.286 L176.824,344.014 C176.824,344.182 176.698,344.266 176.46,344.266 L175.438,344.21 L175.732,345.4 L176.838,345.4 C177.706,345.4 178.14,345.022 178.14,344.294 L178.14,343.286 L178.84,343.286 L178.84,342.11 L178.14,342.11 L178.14,338.652 L175.41,338.652 L175.41,338.05 L178.798,338.05 L178.798,336.93 L176.992,336.93 L176.992,336.272 L178.252,336.272 L178.252,335.194 L176.992,335.194 L176.992,334.55 L178.518,334.55 L178.518,333.43 L176.992,333.43 L176.992,332.52 L175.648,332.52 L175.648,333.43 L173.884,333.43 L173.884,332.52 L172.554,332.52 Z M172.68,342.11 L172.68,341.382 L174.066,341.382 L174.066,342.11 L172.68,342.11 Z M175.41,342.11 L175.41,341.382 L176.824,341.382 L176.824,342.11 L175.41,342.11 Z M173.884,336.93 L173.884,336.272 L175.648,336.272 L175.648,336.93 L173.884,336.93 Z M173.884,335.194 L173.884,334.55 L175.648,334.55 L175.648,335.194 L173.884,335.194 Z M176.824,340.43 L175.41,340.43 L175.41,339.716 L176.824,339.716 L176.824,340.43 Z M174.066,339.716 L174.066,340.43 L172.68,340.43 L172.68,339.716 L174.066,339.716 Z M181.368,332.94 L181.368,336.51 L192.204,336.51 L192.204,332.94 L181.368,332.94 Z M190.804,335.362 L189.04,335.362 L189.04,334.116 L190.804,334.116 L190.804,335.362 Z M187.724,335.362 L185.862,335.362 L185.862,334.116 L187.724,334.116 L187.724,335.362 Z M184.546,335.362 L182.768,335.362 L182.768,334.116 L184.546,334.116 L184.546,335.362 Z M182.166,337.056 L182.166,343.398 L184.546,343.398 C183.594,343.818 182.306,344.154 180.682,344.434 L181.34,345.582 C183.216,345.218 184.672,344.742 185.68,344.154 L185.106,343.398 L188.41,343.398 L187.948,344.28 C189.488,344.574 190.972,344.994 192.4,345.554 L192.89,344.364 C191.644,343.958 190.342,343.636 188.998,343.398 L191.448,343.398 L191.448,337.056 L182.166,337.056 Z M190.034,342.222 L183.566,342.222 L183.566,341.536 L190.034,341.536 L190.034,342.222 Z M183.566,340.514 L183.566,339.856 L190.034,339.856 L190.034,340.514 L183.566,340.514 Z M183.566,338.848 L183.566,338.176 L190.034,338.176 L190.034,338.848 L183.566,338.848 Z M201.172,337.742 C200.822,337.742 200.542,337.84 200.332,338.05 C200.108,338.246 199.996,338.512 199.996,338.848 C199.996,339.156 200.094,339.422 200.304,339.632 C200.514,339.842 200.766,339.954 201.074,339.954 C201.228,339.954 201.34,339.926 201.424,339.898 C201.424,340.234 201.298,340.556 201.06,340.892 C200.794,341.2 200.472,341.424 200.094,341.564 L200.094,342.488 C200.822,342.278 201.41,341.9 201.844,341.354 C202.264,340.794 202.488,340.15 202.488,339.408 C202.488,338.918 202.362,338.512 202.124,338.204 C201.872,337.896 201.55,337.742 201.172,337.742 L201.172,337.742 Z M209.538,333.108 L209.538,334.536 L215.488,334.536 C214.256,336.944 212.128,338.988 209.104,340.696 L210.07,341.97 C211.974,340.822 213.57,339.534 214.844,338.106 L214.844,345.484 L216.356,345.484 L216.356,338.176 C218.19,339.352 219.744,340.612 221.004,341.942 L222.026,340.724 C220.444,339.24 218.554,337.882 216.356,336.636 L216.356,336.048 C216.65,335.558 216.916,335.054 217.154,334.536 L221.662,334.536 L221.662,333.108 L209.538,333.108 Z M223.742,339.058 L223.742,340.29 L228.978,340.29 L228.656,340.99 L224.904,340.99 L224.904,345.498 L226.29,345.498 L226.29,342.208 L227.914,342.208 L227.914,345.302 L229.3,345.302 L229.3,342.208 L230.882,342.208 L230.882,345.302 L232.282,345.302 L232.282,342.208 L234.046,342.208 L234.046,343.79 C234.046,344.098 233.906,344.252 233.64,344.252 L232.73,344.196 L233.052,345.442 L234.032,345.442 C234.97,345.442 235.446,344.994 235.446,344.098 L235.446,340.99 L230.126,340.99 L230.462,340.29 L236.258,340.29 L236.258,339.058 L223.742,339.058 Z M224.596,332.884 L224.596,334.06 L229.286,334.06 L229.286,334.62 L223.966,334.62 L223.966,337.686 L225.366,337.686 L225.366,335.726 L229.286,335.726 L229.286,338.638 L230.714,338.638 L230.714,335.726 L234.634,335.726 L234.634,337.686 L236.034,337.686 L236.034,334.62 L230.714,334.62 L230.714,334.06 L235.418,334.06 L235.418,332.884 L224.596,332.884 Z M226.346,335.964 L225.884,336.888 C226.766,336.944 227.606,337.056 228.418,337.196 L228.796,336.3 C228.012,336.16 227.2,336.048 226.346,335.964 L226.346,335.964 Z M228.446,337.476 C227.9,337.56 226.99,337.63 225.702,337.672 L226.01,338.68 C227.298,338.596 228.222,338.484 228.754,338.358 L228.446,337.476 Z M231.47,337.21 C232.45,337.14 233.318,337.042 234.06,336.902 L233.71,335.936 C232.982,336.104 232.17,336.202 231.274,336.258 L231.47,337.21 Z M231.652,337.504 L231.218,338.33 C232.128,338.442 233.01,338.596 233.85,338.778 L234.242,337.826 C233.416,337.672 232.548,337.56 231.652,337.504 L231.652,337.504 Z M238.184,333.528 L238.184,334.76 L244.68,334.76 L244.68,333.528 L242.062,333.528 C241.964,333.136 241.866,332.786 241.754,332.478 L240.298,332.73 C240.41,332.982 240.522,333.248 240.62,333.528 L238.184,333.528 Z M242.972,337.896 L239.892,337.896 L239.892,335.306 L238.632,335.306 L238.632,339.016 L240.886,339.016 C240.83,339.268 240.76,339.506 240.704,339.73 L238.324,339.73 L238.324,345.372 L239.612,345.372 L239.612,340.934 L240.382,340.934 C240.088,341.984 239.864,342.572 239.724,342.712 L239.92,343.566 C240.774,343.412 241.544,343.258 242.216,343.09 C242.272,343.258 242.314,343.454 242.37,343.65 L243.252,343.412 C243.028,342.544 242.776,341.76 242.482,341.074 L241.628,341.368 C241.726,341.62 241.824,341.886 241.922,342.166 C241.67,342.222 241.39,342.278 241.096,342.334 C241.236,341.97 241.39,341.508 241.572,340.934 L243.378,340.934 L243.378,343.972 C243.378,344.196 243.238,344.322 242.986,344.322 L242.034,344.28 L242.342,345.4 L243.364,345.4 C244.204,345.4 244.638,345.022 244.638,344.266 L244.638,339.73 L241.922,339.73 C241.978,339.506 242.048,339.268 242.118,339.016 L244.176,339.016 L244.176,338.372 L244.778,338.932 C245.002,338.61 245.212,338.26 245.408,337.882 L245.408,345.414 L246.738,345.414 L246.738,344.784 L250.77,344.784 L250.77,343.454 L249.258,343.454 L249.258,341.704 L250.308,341.704 L250.308,340.43 L249.258,340.43 L249.258,338.918 L250.308,338.918 L250.308,337.63 L249.258,337.63 L249.258,336.076 L250.546,336.076 L250.546,334.76 L249.258,334.76 C249.09,334.088 248.866,333.318 248.572,332.478 L247.27,332.842 C247.494,333.458 247.704,334.102 247.886,334.76 L246.584,334.76 C246.752,334.144 246.892,333.5 247.032,332.8 L245.786,332.45 C245.45,334.41 244.918,336.132 244.176,337.644 L244.176,335.306 L242.972,335.306 L242.972,337.896 Z M240.718,334.97 L240.032,335.642 C240.312,335.894 240.592,336.132 240.844,336.384 C240.592,336.58 240.326,336.762 240.018,336.916 L240.41,337.826 C240.816,337.63 241.194,337.392 241.53,337.098 C241.754,337.336 241.95,337.574 242.132,337.826 L242.86,337.098 C242.664,336.86 242.44,336.622 242.202,336.37 C242.412,336.09 242.608,335.782 242.776,335.432 L241.978,334.844 C241.838,335.138 241.67,335.418 241.502,335.67 C241.25,335.432 240.998,335.194 240.718,334.97 L240.718,334.97 Z M246.738,338.918 L247.928,338.918 L247.928,340.43 L246.738,340.43 L246.738,338.918 Z M246.738,341.704 L247.928,341.704 L247.928,343.454 L246.738,343.454 L246.738,341.704 Z M247.928,336.076 L247.928,337.63 L246.738,337.63 L246.738,336.076 L247.928,336.076 Z M254.95,340.682 L254.95,341.942 L256.532,341.942 C256.462,342.306 256.364,342.628 256.252,342.908 C256.014,343.412 255.566,343.832 254.908,344.168 L255.622,345.316 C256.42,344.952 256.994,344.42 257.344,343.748 C257.596,343.258 257.764,342.656 257.862,341.942 L259.612,341.942 L259.612,345.064 L260.942,345.064 L260.942,341.942 L262.566,341.942 L262.566,340.682 L260.942,340.682 L260.942,339.464 L262.132,339.464 L262.132,338.232 L255.314,338.232 L255.314,339.464 L256.644,339.464 L256.644,340.682 L254.95,340.682 Z M259.612,340.682 L257.946,340.682 L257.946,339.464 L259.612,339.464 L259.612,340.682 Z M254.292,335.67 L256.938,335.67 L256.938,336.356 L254.292,336.356 L254.292,335.67 Z M256.938,334.69 L254.292,334.69 L254.292,333.948 L256.938,333.948 L256.938,334.69 Z M260.564,335.67 L263.294,335.67 L263.294,336.342 L260.564,336.342 L260.564,335.67 Z M263.294,334.69 L260.564,334.69 L260.564,333.976 L263.294,333.976 L263.294,334.69 Z M258.366,332.828 L252.836,332.828 L252.836,345.344 L254.292,345.344 L254.292,337.49 L258.366,337.49 L258.366,332.828 Z M263.294,337.462 L263.294,343.286 C263.294,343.762 263.112,344.014 262.748,344.014 C262.356,344.014 261.922,343.986 261.446,343.944 L261.796,345.232 C262.286,345.26 262.776,345.288 263.266,345.288 C264.246,345.288 264.75,344.756 264.75,343.72 L264.75,332.828 L259.136,332.828 L259.136,337.462 L263.294,337.462 Z M270.904,333.528 L267.152,333.528 L267.152,344.196 L268.468,344.196 L268.468,343.3 L270.904,343.3 L270.904,333.528 Z M268.468,341.956 L268.468,334.872 L269.588,334.872 L269.588,341.956 L268.468,341.956 Z M273.732,332.59 L273.732,334.956 L271.296,334.956 L271.296,336.216 L272.724,336.216 L273.27,337.294 L271.38,337.294 L271.38,338.526 L274.656,338.526 L274.656,339.184 L271.842,339.184 L271.842,340.388 L274.614,340.388 C274.586,340.598 274.544,340.808 274.502,341.018 L271.296,341.018 L271.296,342.264 L274.068,342.264 L273.816,342.684 C273.312,343.356 272.332,343.916 270.904,344.364 L271.604,345.47 C273.102,345.022 274.18,344.364 274.852,343.51 C275.118,343.146 275.342,342.726 275.524,342.264 L279.458,342.264 L279.458,341.018 L275.86,341.018 L275.944,340.388 L278.94,340.388 L278.94,339.184 L275.986,339.184 L275.986,338.526 L279.318,338.526 L279.318,337.294 L277.4,337.294 L277.834,336.216 L279.416,336.216 L279.416,334.956 L276.952,334.956 L276.952,332.59 L275.748,332.59 L275.748,334.956 L274.936,334.956 L274.936,332.59 L273.732,332.59 Z M274.558,337.294 L274.012,336.216 L276.546,336.216 L276.112,337.294 L274.558,337.294 Z M278.282,332.73 C277.974,333.29 277.61,333.78 277.19,334.186 L278.1,334.83 C278.548,334.382 278.954,333.85 279.318,333.234 L278.282,332.73 Z M272.542,332.674 L271.492,333.108 C271.828,333.612 272.15,334.2 272.444,334.872 L273.48,334.424 C273.214,333.794 272.906,333.206 272.542,332.674 L272.542,332.674 Z M276.406,342.404 L275.748,343.412 C276.868,343.916 277.96,344.602 279.024,345.47 L279.78,344.322 C278.758,343.58 277.638,342.936 276.406,342.404 L276.406,342.404 Z M292.766,340.192 C292.164,340.836 291.534,341.312 290.876,341.634 C290.484,341.13 290.148,340.584 289.882,339.996 L288.734,340.64 C289.574,342.586 291.044,344.182 293.158,345.428 L294.124,344.308 C293.228,343.818 292.458,343.258 291.786,342.614 C292.514,342.25 293.158,341.774 293.746,341.158 L292.766,340.192 Z M282.588,332.618 L281.538,333.626 C282.672,334.382 283.554,335.082 284.17,335.74 L285.206,334.69 C284.492,334.004 283.624,333.318 282.588,332.618 L282.588,332.618 Z M282.238,335.894 L281.202,336.902 C282.266,337.672 283.092,338.386 283.68,339.03 L284.716,337.994 C284.044,337.294 283.218,336.594 282.238,335.894 L282.238,335.894 Z M283.82,339.856 C283.134,341.508 282.336,343.118 281.426,344.7 L282.896,345.344 C283.722,343.804 284.464,342.152 285.136,340.402 L283.82,339.856 Z M287.026,337.294 L291.492,337.294 L291.492,338.428 L287.026,338.428 L287.026,337.294 Z M291.492,336.062 L287.026,336.062 L287.026,334.9 L291.492,334.9 L291.492,336.062 Z M289.168,332.464 L287.698,332.716 C287.894,332.982 288.076,333.276 288.244,333.584 L285.626,333.584 L285.626,343.412 C285.626,343.72 285.5,343.93 285.276,344.07 L285.626,345.4 C287.334,345.05 288.748,344.686 289.868,344.294 L289.546,342.992 C288.706,343.314 287.866,343.58 287.026,343.776 L287.026,339.744 L292.892,339.744 L292.892,333.584 L289.728,333.584 C289.546,333.164 289.364,332.8 289.168,332.464 L289.168,332.464 Z M302,337.07 C301.454,337.07 300.992,337.252 300.614,337.616 C300.222,337.966 300.04,338.414 300.04,338.96 C300.04,339.492 300.222,339.94 300.614,340.304 C300.992,340.668 301.454,340.85 302,340.85 C302.532,340.85 302.994,340.668 303.386,340.304 C303.764,339.94 303.96,339.492 303.96,338.96 C303.96,338.428 303.764,337.98 303.386,337.616 C302.994,337.252 302.532,337.07 302,337.07 L302,337.07 Z M302,338.05 C302.252,338.05 302.462,338.134 302.658,338.316 C302.84,338.484 302.938,338.708 302.938,338.96 C302.938,339.212 302.84,339.422 302.658,339.604 C302.462,339.772 302.252,339.87 302,339.87 C301.748,339.87 301.524,339.772 301.342,339.604 C301.146,339.422 301.062,339.212 301.062,338.96 C301.062,338.708 301.146,338.484 301.342,338.316 C301.524,338.134 301.748,338.05 302,338.05 L302,338.05 Z" id="連結噗浪與手打帳號後，即可將商品上架到專" fill="#000000"></path>
                <g id="Group" transform="translate(80.000000, 31.000000)">
                    <use id="Rectangle-5" stroke="#000000" mask="url(#mask-2)" stroke-width="10" xlink:href="#path-1"></use>
                    <use id="Rectangle-5-Copy" stroke="#000000" mask="url(#mask-4)" stroke-width="10" xlink:href="#path-3"></use>
                    <rect id="Rectangle-5-Copy-2" fill="#FDD768" x="170" y="65" width="65" height="30"></rect>
                    <text id="$$$" font-family="Arial-Black, Arial Black" font-size="13.71" font-weight="700" letter-spacing="3" fill="#EDA026">
                        <tspan x="186.283306" y="85">$$$</tspan>
                    </text>
                    <rect id="Rectangle-6" fill="#000000" opacity="0.200000003" x="49" y="14" width="71.1434343" height="71"></rect>
                    <rect id="Rectangle-3" fill="#000000" opacity="0.200000003" x="140" y="20" width="80" height="5"></rect>
                    <rect id="Rectangle-3-Copy-4" fill="#000000" opacity="0.200000003" x="140" y="30" width="80" height="5"></rect>
                    <rect id="Rectangle-4" fill="#000000" opacity="0.200000003" x="11" y="12" width="5" height="5"></rect>
                    <rect id="Rectangle-4-Copy" fill="#000000" opacity="0.200000003" x="24" y="12" width="5" height="5"></rect>
                    <rect id="Rectangle-4-Copy-2" fill="#000000" opacity="0.200000003" x="11" y="24" width="18" height="5"></rect>
                </g>
                <g id="Group-5" transform="translate(360.000000, 30.000000)">
                    <use id="Rectangle" stroke="#000000" mask="url(#mask-6)" stroke-width="10" xlink:href="#path-5"></use>
                    <rect id="Rectangle-6" fill="#000000" opacity="0.200000003" x="22.3460411" y="20" width="336.307918" height="196"></rect>
                    <g id="Group-2" opacity="0.200000003" transform="translate(22.346041, 230.000000)" fill="#000000">
                        <rect id="Rectangle-3" x="0" y="0" width="224.577713" height="5"></rect>
                        <rect id="Rectangle-3-Copy" x="0" y="10" width="224.577713" height="5"></rect>
                    </g>
                    <g id="Group-4" transform="translate(21.346041, 260.000000)">
                        <rect id="Rectangle-5-Copy-3" fill="#FDD768" x="0.653958944" y="0" width="134" height="40"></rect>
                        <text id="馬上購買" font-family="PingFangTC-Semibold, PingFang TC" font-size="16" font-weight="500" letter-spacing="3.69230747" fill="#EDA026">
                            <tspan x="29.2121592" y="26">馬上購買</tspan>
                        </text>
                    </g>
                </g>
                <g id="Group-8" opacity="0.200000003" transform="translate(312.000000, 142.000000)">
                    <polyline id="Line-Copy-2" stroke="#000000" stroke-width="6" stroke-linecap="square" stroke-dasharray="5,10" transform="translate(12.500000, 8.467285) scale(1, -1) translate(-12.500000, -8.467285) " points="-2.27373675e-12 16 -2.27373675e-12 0.934570312 25 0.934570312"></polyline>
                    <polygon id="Triangle" fill="#000000" transform="translate(30.500000, 16.000000) rotate(90.000000) translate(-30.500000, -16.000000) " points="30.5 10.5 39.5 21.5 21.5 21.5"></polygon>
                </g>
                <path d="M93.094,202.563 L90.34,203.022 C90.61,203.562 90.88,204.183 91.15,204.831 L80.647,204.831 L80.647,207.261 L87.721,207.261 L85.912,207.936 C86.425,208.746 86.857,209.637 87.235,210.555 L81.538,210.555 L81.538,227.592 L84.022,227.592 L84.022,212.823 L88.261,212.823 C88.045,213.741 87.721,214.524 87.235,215.118 C86.56,215.874 85.507,216.495 84.103,216.954 L85.237,218.952 C87.046,218.331 88.396,217.494 89.26,216.468 C89.962,215.55 90.448,214.335 90.664,212.823 L94.309,212.823 L94.309,215.469 C94.309,216.711 94.984,217.332 96.361,217.332 L100.141,217.332 L100.141,215.253 L97.414,215.253 C96.874,215.253 96.631,214.956 96.631,214.416 L96.631,212.823 L100.924,212.823 L100.924,224.325 C100.924,225.027 100.6,225.405 99.952,225.405 L97.792,225.351 L97.792,218.331 L87.208,218.331 L87.208,225.432 L97.36,225.432 L97.981,227.646 L100.708,227.646 C102.49,227.646 103.408,226.701 103.408,224.865 L103.408,210.555 L97.576,210.555 C98.143,209.772 98.656,208.908 99.142,207.936 L97.171,207.261 L104.353,207.261 L104.353,204.831 L93.877,204.831 C93.607,203.994 93.364,203.238 93.094,202.563 L93.094,202.563 Z M89.8,210.555 C89.368,209.313 88.909,208.206 88.396,207.261 L96.604,207.261 C96.091,208.395 95.497,209.502 94.822,210.555 L89.8,210.555 Z M95.335,223.218 L89.638,223.218 L89.638,220.491 L95.335,220.491 L95.335,223.218 Z M116.432,203.778 L116.432,213.201 L131.768,213.201 L131.768,203.778 L116.432,203.778 Z M129.203,210.771 L118.997,210.771 L118.997,206.208 L129.203,206.208 L129.203,210.771 Z M122.804,215.226 L112.814,215.226 L112.814,227.376 L115.325,227.376 L115.325,226.08 L120.32,226.08 L120.32,227.376 L122.804,227.376 L122.804,215.226 Z M115.325,223.677 L115.325,217.656 L120.32,217.656 L120.32,223.677 L115.325,223.677 Z M135.386,215.226 L125.099,215.226 L125.099,227.376 L127.61,227.376 L127.61,226.08 L132.821,226.08 L132.821,227.376 L135.386,227.376 L135.386,215.226 Z M127.61,223.677 L127.61,217.656 L132.821,217.656 L132.821,223.677 L127.61,223.677 Z M145.629,203.292 L143.793,205.074 C145.818,206.532 147.384,207.882 148.518,209.124 L150.381,207.315 C149.085,205.965 147.492,204.642 145.629,203.292 L145.629,203.292 Z M145.143,209.907 L143.307,211.662 C145.197,213.066 146.682,214.362 147.708,215.604 L149.544,213.768 C148.356,212.472 146.871,211.203 145.143,209.907 L145.143,209.907 Z M147.546,217.251 C146.412,220.437 145.089,223.569 143.55,226.62 L146.142,227.754 C147.519,224.757 148.761,221.571 149.895,218.169 L147.546,217.251 Z M150.732,204.345 L150.732,206.829 L163.557,206.829 L163.557,224.163 C163.557,224.973 163.179,225.405 162.477,225.405 C161.154,225.405 159.777,225.351 158.319,225.243 L158.859,227.7 L163.368,227.7 C165.177,227.7 166.095,226.728 166.095,224.811 L166.095,206.829 L168.066,206.829 L168.066,204.345 L150.732,204.345 Z M151.812,210.339 L151.812,220.761 L160.668,220.761 L160.668,210.339 L151.812,210.339 Z M158.292,218.439 L154.188,218.439 L154.188,212.634 L158.292,212.634 L158.292,218.439 Z M182.629,205.722 L182.629,208.017 L189.136,208.017 C188.974,208.611 188.785,209.178 188.569,209.745 L184.627,209.745 L184.627,223.245 L197.506,223.245 L197.506,209.745 L191.323,209.745 C191.539,209.205 191.755,208.611 191.917,208.017 L199.396,208.017 L199.396,205.722 L195.211,205.722 C195.697,205.074 196.183,204.372 196.615,203.562 L194.185,202.725 C193.672,203.751 193.078,204.75 192.403,205.722 L189.352,205.722 C188.839,204.588 188.272,203.616 187.678,202.779 L185.302,203.67 C185.842,204.318 186.301,204.993 186.706,205.722 L182.629,205.722 Z M195.13,221.031 L187.003,221.031 L187.003,219.249 L195.13,219.249 L195.13,221.031 Z M187.003,217.278 L187.003,215.631 L195.13,215.631 L195.13,217.278 L187.003,217.278 Z M187.003,213.633 L187.003,211.959 L195.13,211.959 L195.13,213.633 L187.003,213.633 Z M177.499,203.022 L175.798,204.615 C177.58,206.019 178.957,207.315 179.929,208.53 L181.603,206.856 C180.469,205.56 179.092,204.291 177.499,203.022 L177.499,203.022 Z M175.231,209.448 L175.231,211.77 L178.903,211.77 C178.039,213.066 176.986,214.443 175.717,215.847 L175.717,217.791 L179.632,217.791 C179.308,219.276 178.903,220.626 178.39,221.868 C177.256,222.3 176.068,223.677 174.826,226.053 L176.689,227.754 C177.877,225.378 178.741,224.217 179.281,224.217 C179.497,224.217 179.713,224.298 179.929,224.514 C180.847,225.432 181.873,226.134 183.007,226.593 C183.925,226.971 185.329,227.187 187.192,227.241 C188.92,227.295 190.756,227.349 192.646,227.349 L199.207,227.349 L199.774,224.919 C196.723,225.027 194.239,225.108 192.349,225.108 C190.459,225.108 188.758,225.081 187.3,225.054 C185.788,225.027 184.654,224.865 183.844,224.541 C183.034,224.19 182.224,223.623 181.36,222.813 C181.144,222.624 180.955,222.462 180.739,222.3 C181.225,220.977 181.657,219.33 182.035,217.332 L182.035,215.631 L178.768,215.631 C179.902,214.254 180.874,212.85 181.738,211.446 L181.738,209.448 L175.231,209.448 Z" id="商品河道" fill="#000000"></path>
                <g id="Group-11" opacity="0.900000036" transform="translate(40.000000, 156.000000)" stroke-linecap="square" stroke-width="3.5" stroke="#FDD768">
                    <polyline id="Line" points="0.0767121011 22.5210829 10.0642834 12.4472617 20.1863468 22.5210829 30.2784138 12.2666667 40.296965 22.5210829 50.5682728 12.4472617 60.5420753 22.5210829 70.6075881 12.2666667 81.0986328 23"></polyline>
                    <polyline id="Line-Copy" points="0.0767121011 10.2544162 10.0642834 0.180594994 20.1863468 10.2544162 30.2784138 0 40.296965 10.2544162 50.5682728 0.180594994"></polyline>
                </g>
                <text id="+-+-+-copy" font-family="Arial-Black, Arial Black" font-size="20" font-weight="700" fill="#FDD768">
                    <tspan x="384" y="454">+ + +</tspan>
                </text>
            </g>
        </g>
    </g>
</svg>