<?xml version="1.0" encoding="UTF-8"?>
<svg width="820px" height="323px" viewBox="0 0 820 323" version="1.1" xmlns="http://www.w3.org/2000/svg" xmlns:xlink="http://www.w3.org/1999/xlink">
    <!-- Generator: Sketch 40.3 (33839) - http://www.bohemiancoding.com/sketch -->
    <title>C</title>
    <desc>Created with Sketch.</desc>
    <defs>
        <polygon id="path-1" points="82.538175 0 165.07635 144.120968 0 144.120968"></polygon>
        <mask id="mask-2" maskContentUnits="userSpaceOnUse" maskUnits="objectBoundingBox" x="0" y="0" width="165.07635" height="144.120968" fill="white">
            <use xlink:href="#path-1"></use>
        </mask>
        <ellipse id="path-3" cx="72.1396648" cy="72.0604839" rx="72.1396648" ry="72.0604839"></ellipse>
        <mask id="mask-4" maskContentUnits="userSpaceOnUse" maskUnits="objectBoundingBox" x="0" y="0" width="144.27933" height="144.120968" fill="white">
            <use xlink:href="#path-3"></use>
        </mask>
    </defs>
    <g id="Main" stroke="none" stroke-width="1" fill="none" fill-rule="evenodd">
        <g id="合作社" transform="translate(-80.000000, -961.000000)">
            <g id="C" transform="translate(80.000000, 961.000000)">
                <g id="Group-10-Copy" transform="translate(266.000000, 70.000000)"></g>
                <g id="Group-10-Copy-2" transform="translate(534.000000, 70.000000)"></g>
                <g id="Group-8" opacity="0.200000003" transform="translate(266.000000, 70.000000)">
                    <path d="M-2.27373675e-12,9 L25,9" id="Line-Copy-2" stroke="#000000" stroke-width="6" stroke-linecap="square" stroke-dasharray="5,10" transform="translate(12.500000, 9.000000) scale(1, -1) translate(-12.500000, -9.000000) "></path>
                    <polygon id="Triangle" fill="#000000" transform="translate(30.500000, 9.000000) rotate(90.000000) translate(-30.500000, -9.000000) " points="30.5 3.5 39.5 14.5 21.5 14.5"></polygon>
                </g>
                <g id="Group-8" opacity="0.200000003" transform="translate(534.000000, 70.000000)">
                    <path d="M-2.27373675e-12,9 L25,9" id="Line-Copy-2" stroke="#000000" stroke-width="6" stroke-linecap="square" stroke-dasharray="5,10" transform="translate(12.500000, 9.000000) scale(1, -1) translate(-12.500000, -9.000000) "></path>
                    <polygon id="Triangle" fill="#000000" transform="translate(30.500000, 9.000000) rotate(90.000000) translate(-30.500000, -9.000000) " points="30.5 3.5 39.5 14.5 21.5 14.5"></polygon>
                </g>
                <text id="上架到「商品河道」後，噗浪會將你的商品放" font-family="PingFangTC-Semibold, PingFang TC" font-size="14" font-weight="500" line-spacing="25" letter-spacing="0.400000006" fill="#000000">
                    <tspan x="83" y="268">上架到「商品河道」後，噗浪會將你的商品放到官方河道上，並且透過各種方式在站內曝光。如果有客</tspan>
                    <tspan x="83" y="293">人透過噗浪曝光而成功購買商品，則會收取 5% 推廣手續費；若不是透過噗浪，而是透過其他管道，如 </tspan>
                    <tspan x="83" y="318">Facebook、或是商品網址直接購買，則不會收取推廣費用。詳細規則請參考問與答。</tspan>
                </text>
                <text id="噗浪推廣成功，只要-5%-手續費" font-family="PingFangTC-Medium, PingFang TC" font-size="27" font-weight="400" line-spacing="41" letter-spacing="4.5999999" fill="#000000">
                    <tspan x="82" y="226">噗浪推廣成功，只要 5% 手續費</tspan>
                </text>
                <path d="M558,205 L568,217 L548,217 L558,205 Z M558,191 L568,203 L548,203 L558,191 Z M558,177 L568,189 L548,189 L558,177 Z" id="Combined-Shape" fill="#FDD768"></path>
                <g id="Group-6" transform="translate(82.000000, 0.596774)">
                    <use id="Triangle-3" stroke="#000000" mask="url(#mask-2)" stroke-width="13" xlink:href="#path-1"></use>
                    <g id="Group-3" transform="translate(70.292365, 58.306452)" fill="#000000">
                        <path d="M9.86934453,0.654 L9.86934453,21.168 L0.84734453,21.168 L0.84734453,23.82 L24.2213445,23.82 L24.2213445,21.168 L12.6773445,21.168 L12.6773445,11.002 L22.2973445,11.002 L22.2973445,8.376 L12.6773445,8.376 L12.6773445,0.654 L9.86934453,0.654 Z M14.1073445,39.162 L14.1073445,48.86 L23.1033445,48.86 L23.1033445,39.162 L14.1073445,39.162 Z M20.5293445,46.416 L16.6813445,46.416 L16.6813445,41.58 L20.5293445,41.58 L20.5293445,46.416 Z M4.59134453,37.732 L4.59134453,39.812 L1.21134453,39.812 L1.21134453,42.152 L4.38334453,42.152 C3.91534453,44.908 2.61534453,46.988 0.45734453,48.392 L2.45934453,50.186 C5.03334453,48.366 6.56734453,45.688 7.06134453,42.152 L9.84334453,42.152 C9.81734453,44.44 9.71334453,45.87 9.50534453,46.39 C9.29734453,46.91 8.77734453,47.196 7.94534453,47.222 C7.55534453,47.196 7.06134453,47.144 6.43734453,47.066 L7.11334453,49.51 C7.68534453,49.614 8.15334453,49.666 8.56934453,49.666 C9.99934453,49.666 11.0133445,49.198 11.5853445,48.262 C12.1573445,47.326 12.4433445,44.518 12.4953445,39.812 L7.24334453,39.812 L7.24334453,37.732 L4.59134453,37.732 Z M1.00334453,51.512 L1.00334453,54.06 L11.1433445,54.06 L11.1433445,61.678 L13.8473445,61.678 L13.8473445,54.06 L24.0133445,54.06 L24.0133445,51.512 L13.8473445,51.512 L13.8473445,49.666 L11.1433445,49.666 L11.1433445,51.512 L1.00334453,51.512 Z M8.12734453,54.606 C6.15134453,56.426 3.73334453,57.986 0.82134453,59.312 L2.43334453,61.444 C5.39734453,59.936 7.91934453,58.22 9.97334453,56.244 L8.12734453,54.606 Z M16.5773445,54.528 L15.0173445,56.322 C17.5653445,57.726 20.0093445,59.39 22.3753445,61.314 L24.1433445,59.338 C21.8813445,57.622 19.3593445,56.01 16.5773445,54.528 L16.5773445,54.528 Z" id="上架"></path>
                    </g>
                </g>
                <g id="Group-12" transform="translate(333.000000, 3.000000)" fill="#000000">
                    <g id="Group-6-Copy" transform="translate(48.294227, 64.427419)">
                        <g id="Group-3">
                            <path d="M9.32946001,1.278 L9.32946001,8.558 L11.79946,8.558 L11.79946,9.572 L8.62746001,9.572 L8.62746001,11.496 L11.79946,11.496 L11.79946,12.692 L7.89946001,12.692 L7.89946001,14.72 L11.17546,14.72 C10.29146,15.5 9.09546001,16.15 7.56146001,16.67 L8.86146001,18.802 C9.43346001,18.49 10.00546,18.178 10.55146,17.866 C11.27946,18.386 11.87746,18.854 12.34546,19.296 L13.77546,17.866 C13.30746,17.45 12.81346,17.008 12.24146,16.592 C12.83946,16.02 13.35946,15.396 13.82746,14.72 L17.67546,14.72 C17.98746,15.266 18.37746,15.812 18.84546,16.358 C18.32546,16.826 17.72746,17.242 17.05146,17.658 L17.05146,15.396 L14.45146,15.396 L14.45146,21.844 C14.45146,22.156 14.26946,22.338 13.95746,22.338 C13.41146,22.338 12.83946,22.286 12.26746,22.208 L12.83946,24.6 L14.81546,24.6 C16.29746,24.6 17.05146,23.872 17.05146,22.442 L17.05146,17.762 L18.24746,19.322 C19.00146,18.854 19.70346,18.36 20.32746,17.814 C20.87346,18.282 21.52346,18.776 22.25146,19.244 L23.91546,17.19 C22.27746,16.462 21.02946,15.63 20.14546,14.72 L23.36946,14.72 L23.36946,12.692 L19.75546,12.692 L19.75546,11.496 L22.95346,11.496 L22.95346,9.572 L19.75546,9.572 L19.75546,8.558 L22.06946,8.558 L22.06946,1.278 L9.32946001,1.278 Z M14.24346,12.692 L14.24346,11.496 L17.33746,11.496 L17.33746,12.692 L14.24346,12.692 Z M14.24346,9.572 L14.24346,8.558 L17.33746,8.558 L17.33746,9.572 L14.24346,9.572 Z M19.75546,6.738 L11.66946,6.738 L11.66946,5.75 L19.75546,5.75 L19.75546,6.738 Z M11.66946,4.112 L11.66946,3.124 L19.75546,3.124 L19.75546,4.112 L11.66946,4.112 Z M13.46346,19.244 C11.90346,20.024 10.03146,20.7 7.84746001,21.246 L8.86146001,23.612 C10.91546,22.858 12.63146,22 14.00946,21.064 L13.46346,19.244 Z M18.32546,19.66 L17.20746,21.324 C18.81946,22 20.40546,22.936 21.96546,24.132 L23.29146,22.026 C21.78346,21.116 20.14546,20.336 18.32546,19.66 L18.32546,19.66 Z M2.93346001,12.588 L4.88346001,12.588 L4.88346001,18.022 L2.93346001,18.022 L2.93346001,12.588 Z M4.88346001,10.144 L2.93346001,10.144 L2.93346001,4.606 L4.88346001,4.606 L4.88346001,10.144 Z M7.32746001,2.188 L0.43746001,2.188 L0.43746001,22.208 L2.93346001,22.208 L2.93346001,20.466 L7.32746001,20.466 L7.32746001,2.188 Z M42.29146,0.732 L42.29146,9.962 L32.22946,9.962 L32.22946,12.614 L38.88546,12.614 L38.88546,12.64 C38.78146,15.136 38.26146,17.138 37.27346,18.672 C36.28546,20.102 34.38746,21.298 31.57946,22.286 L33.11346,24.704 C36.02546,23.716 38.13146,22.312 39.43146,20.492 C40.78346,18.516 41.51146,15.89 41.64146,12.64 L41.64146,12.614 L45.30746,12.614 L45.30746,20.986 C45.30746,23.014 46.24346,24.054 48.11546,24.054 L52.24946,24.054 C53.28946,24.054 54.04346,23.794 54.56346,23.274 C55.08346,22.728 55.44746,21.012 55.68146,18.152 L53.02946,17.32 C52.92546,19.348 52.79546,20.544 52.58746,20.96 C52.40546,21.324 52.11946,21.532 51.75546,21.532 L48.92146,21.532 C48.32346,21.532 48.03746,21.142 48.03746,20.414 L48.03746,12.614 L55.13546,12.614 L55.13546,9.962 L45.04746,9.962 L45.04746,0.732 L42.29146,0.732 Z M50.87146,1.876 C50.03946,3.878 48.94746,5.906 47.56946,7.934 L50.06546,9.234 C51.44346,7.258 52.56146,5.23 53.41946,3.098 L50.87146,1.876 Z M36.57146,2.136 L33.99746,3.358 C35.21946,5.074 36.36346,7.05 37.42946,9.234 L40.00346,7.934 C38.91146,5.828 37.76746,3.904 36.57146,2.136 L36.57146,2.136 Z" id="曝光"></path>
                        </g>
                    </g>
                    <path d="M73.4394786,-1.13686838e-13 L79.9385475,-1.13686838e-13 L79.9385475,18.1774194 L73.4394786,18.1774194 L73.4394786,-1.13686838e-13 Z M112.214347,8.63833511 L117.842706,11.8878696 L108.753996,27.6299765 L103.125637,24.380442 L112.214347,8.63833511 Z M141.47023,35.48824 L144.719765,41.1165987 L128.977658,50.2053084 L125.728124,44.5769496 L141.47023,35.48824 Z M153.368039,73.3553043 L153.368039,79.8543732 L135.19062,79.8543732 L135.19062,73.3553043 L153.368039,73.3553043 Z M144.719765,112.093079 L141.47023,117.721437 L125.728124,108.632728 L128.977658,103.004369 L144.719765,112.093079 Z M117.842706,141.321808 L112.214347,144.571342 L103.125637,128.829235 L108.753996,125.579701 L117.842706,141.321808 Z M79.9385475,153.209677 L73.4394786,153.209677 L73.4394786,135.032258 L79.9385475,135.032258 L79.9385475,153.209677 Z M41.1636793,144.571342 L35.5353205,141.321808 L44.6240302,125.579701 L50.252389,128.829235 L41.1636793,144.571342 Z M11.9077956,117.721437 L8.65826114,112.093079 L24.4003681,103.004369 L27.6499025,108.632728 L11.9077956,117.721437 Z M0.00998678441,79.8543732 L0.00998678441,73.3553043 L18.1874061,73.3553043 L18.1874061,79.8543732 L0.00998678441,79.8543732 Z M8.65826114,41.1165987 L11.9077956,35.48824 L27.6499025,44.5769496 L24.4003681,50.2053084 L8.65826114,41.1165987 Z M35.5353205,11.8878696 L41.1636793,8.63833511 L50.252389,24.380442 L44.6240302,27.6299765 L35.5353205,11.8878696 Z" id="Rectangle-7"></path>
                </g>
                <g id="Group-15" transform="translate(594.821229, 5.491935)">
                    <g id="Group-13" transform="translate(0.000000, 0.000000)">
                        <g id="Group-3" transform="translate(42.098696, 41.056452)" fill="#000000">
                            <path d="M19.7246891,0.42 L18.0086891,2.058 C19.0226891,2.838 19.8546891,3.618 20.5046891,4.346 L16.8386891,4.346 C16.7866891,3.15 16.7606891,1.902 16.7606891,0.576 L14.0046891,0.576 C14.0046891,1.876 14.0046891,3.15 14.0566891,4.346 L3.34468906,4.346 L3.34468906,13.004 C3.26668906,17.216 2.43468906,20.518 0.822689061,22.884 L2.87668906,24.73 C4.87868906,21.792 5.94468906,17.918 6.07468906,13.082 L9.74068906,13.082 C9.68868906,15.734 9.61068906,17.372 9.45468906,17.97 C9.32468906,18.49 9.03868906,18.75 8.62268906,18.776 C7.89468906,18.776 7.03668906,18.724 5.99668906,18.646 L6.82868906,21.116 C7.60868906,21.194 8.31068906,21.246 8.93468906,21.246 C10.3386891,21.22 11.2486891,20.674 11.6646891,19.582 C12.1066891,18.386 12.3666891,15.37 12.4446891,10.534 L6.07468906,10.534 L6.07468906,6.92 L14.1866891,6.92 C14.3946891,10.04 14.7586891,12.666 15.3306891,14.746 C15.6166891,15.812 15.9286891,16.8 16.2926891,17.71 C14.5766891,19.79 12.4966891,21.376 10.0526891,22.468 L11.6126891,24.756 C13.8486891,23.768 15.8246891,22.338 17.5406891,20.466 C17.8526891,21.038 18.2166891,21.558 18.5806891,22.026 C19.8546891,23.56 21.0506891,24.34 22.1946891,24.34 C23.4946891,24.34 24.4566891,22.494 25.1326891,18.828 L22.6886891,17.502 C22.3506891,19.998 22.0386891,21.246 21.7786891,21.246 C21.3886891,21.246 20.8166891,20.674 20.0886891,19.556 C19.8286891,19.166 19.5686891,18.698 19.3346891,18.178 C20.9206891,15.864 22.2206891,13.056 23.2346891,9.754 L20.7646891,8.688 C20.0886891,11.028 19.2306891,13.134 18.1906891,14.954 C18.0866891,14.59 17.9826891,14.252 17.9046891,13.888 C17.4886891,12.276 17.1766891,9.936 16.9686891,6.92 L24.6126891,6.92 L24.6126891,4.346 L21.5186891,4.346 L22.7146891,3.124 C21.8826891,2.214 20.8946891,1.304 19.7246891,0.42 L19.7246891,0.42 Z M36.670689,5.88 L36.670689,17.476 C35.422689,17.736 34.148689,17.97 32.900689,18.178 L33.602689,20.934 C36.982689,20.206 40.154689,19.296 43.144689,18.256 L43.144689,15.526 C41.896689,15.994 40.648689,16.41 39.400689,16.774 L39.400689,5.88 L42.858689,5.88 L42.858689,3.254 L33.212689,3.254 L33.212689,5.88 L36.670689,5.88 Z M47.096689,0.706 L47.096689,5.672 L43.274689,5.672 L43.274689,8.324 L47.096689,8.324 L47.096689,8.48 C47.044689,15.136 45.198689,19.972 41.584689,22.988 L43.820689,24.938 C47.746689,21.454 49.748689,15.968 49.852689,8.48 L49.852689,8.324 L53.674689,8.324 C53.622689,15.188 53.544689,19.218 53.388689,20.388 C53.180689,21.428 52.348689,21.974 50.944689,21.974 C50.190689,21.974 49.280689,21.922 48.240689,21.844 L48.890689,24.392 C50.086689,24.47 50.944689,24.522 51.412689,24.522 C54.090689,24.522 55.598689,23.586 55.936689,21.714 C56.196689,19.686 56.326689,14.33 56.326689,5.672 L49.852689,5.672 L49.852689,0.706 L47.096689,0.706 Z M1.39468906,40.462 L1.39468906,43.036 L24.6126891,43.036 L24.6126891,40.462 L14.5766891,40.462 C14.1346891,39.37 13.6666891,38.356 13.1986891,37.446 L10.1566891,37.966 C10.6766891,38.746 11.1446891,39.578 11.5606891,40.462 L1.39468906,40.462 Z M17.3586891,43.192 L15.5126891,44.96 C18.5806891,47.43 20.9726891,49.718 22.6366891,51.85 L24.6386891,49.822 C22.6626891,47.612 20.2186891,45.402 17.3586891,43.192 L17.3586891,43.192 Z M16.9686891,48.106 C15.9286891,50.082 14.6026891,51.824 12.9906891,53.358 C11.3006891,51.876 9.94868906,50.186 8.90868906,48.262 L6.56868906,49.588 C7.71268906,51.642 9.16868906,53.488 10.8846891,55.1 C8.23268906,56.972 4.98268906,58.402 1.13468906,59.338 L2.82468906,61.834 C6.82868906,60.794 10.2346891,59.182 13.0946891,56.946 C15.8766891,59.026 19.2826891,60.638 23.2866891,61.756 L24.9766891,59.208 C21.1286891,58.246 17.8526891,56.868 15.2006891,55.074 C16.8646891,53.41 18.2946891,51.46 19.4646891,49.224 L16.9686891,48.106 Z M8.44068906,43.218 C6.51668906,45.584 4.12468906,47.638 1.31668906,49.406 L3.05868906,51.694 C5.97068906,49.77 8.44068906,47.534 10.4166891,44.934 L8.44068906,43.218 Z M39.894689,48.236 C38.490689,49.796 36.384689,51.122 33.602689,52.162 L35.084689,54.554 C36.618689,53.826 37.996689,53.02 39.244689,52.136 L42.364689,52.136 C40.752689,53.904 38.282689,55.386 34.954689,56.556 L36.670689,58.662 C40.622689,57.076 43.508689,54.892 45.328689,52.136 L47.850689,52.136 C45.874689,55.672 42.780689,58.09 38.568689,59.39 L40.102689,61.678 C44.886689,60.118 48.422689,56.92 50.658689,52.136 L52.504689,52.136 C52.400689,54.996 52.166689,56.868 51.802689,57.752 C51.438689,58.584 50.710689,59.026 49.592689,59.026 C48.604689,59.026 47.564689,58.974 46.498689,58.896 L47.174689,61.444 L50.892689,61.444 C52.140689,61.392 53.024689,61.028 53.570689,60.352 C54.116689,59.65 54.532689,58.428 54.792689,56.686 C55.026689,54.918 55.182689,52.604 55.260689,49.744 L41.896689,49.744 C42.312689,49.276 42.702689,48.756 43.066689,48.236 L53.284689,48.236 L53.284689,38.434 L36.826689,38.434 L36.826689,48.236 L39.894689,48.236 Z M50.606689,45.948 L39.504689,45.948 L39.504689,44.388 L50.606689,44.388 L50.606689,45.948 Z M39.504689,42.256 L39.504689,40.722 L50.606689,40.722 L50.606689,42.256 L39.504689,42.256 Z" id="成功-交易"></path>
                        </g>
                        <use id="Oval-2" stroke="#000000" mask="url(#mask-4)" stroke-width="13" xlink:href="#path-3"></use>
                    </g>
                    <g id="Group-14" transform="translate(93.586592, 99.975806)">
                        <ellipse id="Oval" fill="#000000" cx="27.2960894" cy="27.266129" rx="27.2960894" ry="27.266129"></ellipse>
                        <path d="M15.9383687,18.8230968 L14.9243687,29.2750968 L17.7583687,29.2750968 C18.1223687,28.6250968 18.6163687,28.1570968 19.2663687,27.8450968 C19.8383687,27.5590968 20.5403687,27.4290968 21.3463687,27.4290968 C22.5423687,27.4290968 23.4783687,27.7670968 24.1023687,28.4950968 C24.7263687,29.1970968 25.0643687,30.1850968 25.0643687,31.4330968 C25.0643687,32.5770968 24.6743687,33.4870968 23.9463687,34.1630968 C23.1923687,34.8390968 22.2563687,35.1770968 21.1643687,35.1770968 C20.1503687,35.1770968 19.3443687,34.9430968 18.7723687,34.5270968 C18.0963687,34.0330968 17.7063687,33.2790968 17.5763687,32.2650968 L14.5863687,32.2650968 C14.7163687,33.9810968 15.4443687,35.3590968 16.7963687,36.3730968 C17.9923687,37.2830968 19.4483687,37.7510968 21.1383687,37.7510968 C22.9843687,37.7510968 24.5703687,37.2050968 25.9223687,36.1130968 C27.3783687,34.8910968 28.1063687,33.3310968 28.1063687,31.4070968 C28.1063687,29.4050968 27.5343687,27.8190968 26.4423687,26.6750968 C25.3503687,25.5310968 23.9203687,24.9590968 22.1783687,24.9590968 C21.3463687,24.9590968 20.5923687,25.0890968 19.9163687,25.3490968 C19.1623687,25.6090968 18.5123687,26.0250968 17.9403687,26.5970968 L17.8623687,26.5970968 L18.3823687,21.5010968 L27.2483687,21.5010968 L27.2483687,18.8230968 L15.9383687,18.8230968 Z" id="5" fill="#FFFFFF"></path>
                        <path d="M40.8847203,29.3762065 C40.0111203,29.3762065 39.3247203,29.6726065 38.8567203,30.2966065 C38.4199203,30.8270065 38.2171203,31.5446065 38.2171203,32.4338065 C38.2171203,33.3074065 38.4199203,34.0094065 38.8567203,34.5710065 C39.3247203,35.1638065 40.0111203,35.4758065 40.8847203,35.4758065 C41.7583203,35.4758065 42.4291203,35.1638065 42.8971203,34.5710065 C43.3027203,34.0250065 43.5211203,33.3074065 43.5211203,32.4338065 C43.5211203,31.5446065 43.3027203,30.8270065 42.8971203,30.2966065 C42.4291203,29.6726065 41.7583203,29.3762065 40.8847203,29.3762065 L40.8847203,29.3762065 Z M39.2935203,24.1190065 L33.0379203,35.6942065 L34.3951203,35.6942065 L40.6507203,24.1190065 L39.2935203,24.1190065 Z M32.8351203,24.3374065 C31.9615203,24.3374065 31.2751203,24.6338065 30.8071203,25.2578065 C30.3703203,25.7882065 30.1675203,26.5058065 30.1675203,27.3950065 C30.1675203,28.2686065 30.3703203,28.9706065 30.8071203,29.5322065 C31.2751203,30.1250065 31.9615203,30.4370065 32.8351203,30.4370065 C33.7087203,30.4370065 34.3795203,30.1250065 34.8475203,29.5322065 C35.2531203,28.9862065 35.4715203,28.2686065 35.4715203,27.3950065 C35.4715203,26.5058065 35.2531203,25.7882065 34.8475203,25.2578065 C34.3795203,24.6338065 33.7087203,24.3374065 32.8351203,24.3374065 L32.8351203,24.3374065 Z M40.8847203,30.5150065 C41.2591203,30.5150065 41.5243203,30.7178065 41.6803203,31.1390065 C41.8051203,31.4510065 41.8675203,31.8722065 41.8675203,32.4338065 C41.8675203,32.9642065 41.8051203,33.3854065 41.6959203,33.6974065 C41.5243203,34.1186065 41.2591203,34.3370065 40.8847203,34.3370065 C40.4947203,34.3370065 40.2139203,34.1342065 40.0579203,33.7286065 C39.9331203,33.4166065 39.8707203,32.9798065 39.8707203,32.4338065 C39.8707203,31.8722065 39.9331203,31.4354065 40.0579203,31.1234065 C40.2139203,30.7178065 40.4947203,30.5150065 40.8847203,30.5150065 L40.8847203,30.5150065 Z M32.8351203,25.4762065 C33.2095203,25.4762065 33.4747203,25.6790065 33.6307203,26.1002065 C33.7555203,26.4122065 33.8179203,26.8334065 33.8179203,27.3950065 C33.8179203,27.9254065 33.7555203,28.3466065 33.6463203,28.6586065 C33.4747203,29.0798065 33.2095203,29.2982065 32.8351203,29.2982065 C32.4451203,29.2982065 32.1643203,29.0954065 32.0083203,28.6898065 C31.8835203,28.3778065 31.8211203,27.9410065 31.8211203,27.3950065 C31.8211203,26.8334065 31.8835203,26.3966065 32.0083203,26.0846065 C32.1643203,25.6790065 32.4451203,25.4762065 32.8351203,25.4762065 L32.8351203,25.4762065 Z" id="%" fill="#FFFFFF"></path>
                    </g>
                </g>
            </g>
        </g>
    </g>
</svg>