<?xml version="1.0" encoding="UTF-8"?>
<svg width="173px" height="67px" viewBox="0 0 173 67" version="1.1" xmlns="http://www.w3.org/2000/svg" xmlns:xlink="http://www.w3.org/1999/xlink">
    <!-- Generator: Sketch 40.3 (33839) - http://www.bohemiancoding.com/sketch -->
    <title>F</title>
    <desc>Created with Sketch.</desc>
    <defs>
        <rect id="path-1" x="0" y="0" width="173" height="67"></rect>
        <mask id="mask-2" maskContentUnits="userSpaceOnUse" maskUnits="objectBoundingBox" x="0" y="0" width="173" height="67" fill="white">
            <use xlink:href="#path-1"></use>
        </mask>
    </defs>
    <g id="Main" stroke="none" stroke-width="1" fill="none" fill-rule="evenodd">
        <g id="合作社" transform="translate(-160.000000, -3016.000000)">
            <g id="F" transform="translate(160.000000, 3016.000000)">
                <use id="Rectangle-8" stroke="#FDD768" mask="url(#mask-2)" stroke-width="10" xlink:href="#path-1"></use>
                <path d="M45.8639999,30.118 L50.3819999,30.118 L50.3819999,31.486 L45.8639999,31.486 L45.8639999,30.118 Z M45.8639999,32.962 L50.3819999,32.962 L50.3819999,34.384 L45.8639999,34.384 L45.8639999,32.962 Z M52.0559999,34.384 L52.0559999,32.962 L56.6459999,32.962 L56.6459999,31.486 L52.0559999,31.486 L52.0559999,30.118 L56.6819999,30.118 L56.6819999,28.66 L52.0559999,28.66 L52.0559999,27.31 L57.4919999,27.31 L57.4919999,25.78 L44.1719999,25.78 L44.1719999,35.896 L56.3579999,35.896 C56.3579999,37.624 56.2679999,38.776 56.1239999,39.352 C55.9799999,39.928 55.4219999,40.216 54.4499999,40.216 C53.9099999,40.216 53.3159999,40.18 52.6859999,40.108 L53.0819999,41.746 C53.6579999,41.764 54.1979999,41.782 54.7379999,41.782 C56.0519999,41.782 56.9339999,41.458 57.4019999,40.846 C57.8699999,40.234 58.1039999,38.074 58.1039999,34.384 L52.0559999,34.384 Z M50.3819999,27.31 L50.3819999,28.66 L45.8639999,28.66 L45.8639999,27.31 L50.3819999,27.31 Z M43.9379999,36.616 C43.5239999,38.416 43.0379999,39.892 42.4619999,41.08 L44.0639999,41.656 C44.6219999,40.324 45.0719999,38.776 45.4319999,37.012 L43.9379999,36.616 Z M48.1679999,36.904 L46.6379999,37.066 C46.8179999,38.038 46.9439999,39.388 46.9979999,41.134 L48.6179999,40.918 C48.5459999,39.226 48.3839999,37.876 48.1679999,36.904 L48.1679999,36.904 Z M51.1019999,36.706 L49.6439999,37.084 C50.0039999,38.2 50.3279999,39.352 50.6159999,40.522 L52.1099999,39.946 C51.8579999,38.974 51.5339999,37.894 51.1019999,36.706 L51.1019999,36.706 Z M54.1079999,36.364 L52.7219999,36.832 C53.0819999,37.66 53.3699999,38.524 53.6219999,39.442 L55.0799999,39.082 C54.7919999,38.056 54.4679999,37.156 54.1079999,36.364 L54.1079999,36.364 Z M73.072,25.24 L73.072,39.55 L66.754,39.55 L66.754,41.206 L82.882,41.206 L82.882,39.55 L74.836,39.55 L74.836,32.314 L81.496,32.314 L81.496,30.658 L74.836,30.658 L74.836,25.24 L73.072,25.24 Z M94.25,35.806 L94.25,37.3 L96.356,37.3 C96.266,37.804 96.14,38.254 95.978,38.65 C95.654,39.316 95.078,39.874 94.214,40.306 L95.06,41.638 C96.068,41.17 96.806,40.504 97.256,39.64 C97.58,39.01 97.796,38.236 97.922,37.3 L100.334,37.3 L100.334,41.35 L101.882,41.35 L101.882,37.3 L104.042,37.3 L104.042,35.806 L101.882,35.806 L101.882,34.096 L103.484,34.096 L103.484,32.656 L94.718,32.656 L94.718,34.096 L96.482,34.096 L96.482,35.806 L94.25,35.806 Z M100.334,35.806 L98.012,35.806 L98.012,34.096 L100.334,34.096 L100.334,35.806 Z M93.296,29.254 L96.896,29.254 L96.896,30.262 L93.296,30.262 L93.296,29.254 Z M96.896,28.084 L93.296,28.084 L93.296,27.004 L96.896,27.004 L96.896,28.084 Z M101.378,29.254 L105.068,29.254 L105.068,30.226 L101.378,30.226 L101.378,29.254 Z M105.068,28.084 L101.378,28.084 L101.378,27.04 L105.068,27.04 L105.068,28.084 Z M98.57,25.69 L91.604,25.69 L91.604,41.692 L93.296,41.692 L93.296,31.594 L98.57,31.594 L98.57,25.69 Z M105.068,31.558 L105.068,39.172 C105.068,39.82 104.816,40.144 104.33,40.144 C103.808,40.144 103.25,40.108 102.638,40.054 L103.034,41.566 C103.682,41.602 104.312,41.62 104.942,41.62 C106.166,41.62 106.778,40.972 106.778,39.694 L106.778,25.69 L99.704,25.69 L99.704,31.558 L105.068,31.558 Z M117.354,25.132 C117.21,26.302 117.048,27.436 116.886,28.534 L115.356,28.534 L115.356,30.172 L116.616,30.172 C116.292,31.954 115.914,33.61 115.518,35.122 C116.346,35.914 117.102,36.67 117.804,37.39 C117.174,38.614 116.364,39.694 115.356,40.594 L116.436,41.944 C117.444,41.008 118.29,39.91 118.974,38.65 C119.586,39.334 120.108,39.964 120.558,40.576 L121.71,39.226 C121.206,38.56 120.54,37.804 119.748,36.976 C120.576,34.852 121.044,32.368 121.152,29.488 L121.152,28.534 L118.596,28.534 C118.74,27.526 118.884,26.428 119.028,25.276 L117.354,25.132 Z M118.524,35.734 C118.164,35.374 117.768,35.014 117.354,34.618 C117.696,33.43 118.02,31.936 118.326,30.172 L119.568,30.172 C119.46,32.242 119.1,34.096 118.524,35.734 L118.524,35.734 Z M130.62,33.97 L122.43,33.97 L122.43,41.872 L124.05,41.872 L124.05,40.864 L128.982,40.864 L128.982,41.872 L130.62,41.872 L130.62,33.97 Z M124.05,39.262 L124.05,35.536 L128.982,35.536 L128.982,39.262 L124.05,39.262 Z M121.818,32.656 C124.68,32.476 127.29,32.224 129.63,31.9 C129.81,32.296 129.99,32.728 130.17,33.196 L131.736,32.44 C130.908,30.55 130.044,28.822 129.108,27.256 L127.65,27.958 C128.082,28.732 128.532,29.56 128.964,30.46 C127.344,30.712 125.67,30.892 123.942,31 C124.95,29.596 125.922,27.832 126.894,25.744 L125.274,25.204 C123.672,28.858 122.43,30.82 121.548,31.108 L121.818,32.656 Z" id="馬上開始" fill="#000000"></path>
            </g>
        </g>
    </g>
</svg>