<?xml version="1.0" encoding="UTF-8"?>
<svg width="213px" height="54px" viewBox="0 0 213 54" version="1.1" xmlns="http://www.w3.org/2000/svg" xmlns:xlink="http://www.w3.org/1999/xlink">
    <!-- Generator: Sketch 40.3 (33839) - http://www.bohemiancoding.com/sketch -->
    <title>H</title>
    <desc>Created with Sketch.</desc>
    <defs></defs>
    <g id="Main" stroke="none" stroke-width="1" fill="none" fill-rule="evenodd">
        <g id="合作社" transform="translate(-578.000000, -3162.000000)" fill="#000000">
            <g id="Dock" transform="translate(80.000000, 3129.000000)">
                <g id="H" transform="translate(498.000000, 33.000000)">
                    <path d="M2.772,0.38 C2.632,1.276 2.478,2.158 2.31,3.012 L0.714,3.012 L0.714,4.426 L2.002,4.426 C1.666,5.798 1.302,7.072 0.896,8.248 C1.638,8.794 2.324,9.326 2.954,9.844 C2.338,10.796 1.54,11.608 0.588,12.308 L1.596,13.554 C2.604,12.77 3.43,11.86 4.102,10.796 C4.69,11.3 5.208,11.776 5.642,12.224 L6.636,11.076 C6.16,10.6 5.544,10.082 4.802,9.494 C5.544,7.884 5.964,5.994 6.048,3.81 L6.048,3.012 L3.752,3.012 C3.892,2.242 4.046,1.416 4.2,0.52 L2.772,0.38 Z M3.626,8.612 C3.276,8.346 2.898,8.08 2.492,7.8 C2.828,6.89 3.15,5.77 3.458,4.426 L4.62,4.426 C4.508,5.98 4.172,7.38 3.626,8.612 L3.626,8.612 Z M6.328,6.218 L6.328,7.646 L9.31,7.646 L9.31,11.23 C9.31,11.706 9.184,11.944 8.946,11.944 C8.26,11.944 7.63,11.93 7.07,11.916 L7.448,13.302 L9.548,13.302 C10.36,13.302 10.78,12.756 10.78,11.664 L10.78,7.646 L13.454,7.646 L13.454,6.218 L10.78,6.218 L10.78,5.126 C11.592,4.3 12.32,3.418 12.964,2.494 L12.964,1.066 L6.72,1.066 L6.72,2.494 L11.284,2.494 C10.64,3.334 9.982,4.062 9.31,4.678 L9.31,6.218 L6.328,6.218 Z M26.356,8.402 L26.356,6.484 L27.616,6.484 L27.616,5.28 L26.356,5.28 L26.356,3.334 L22.94,3.334 L22.94,2.634 L27.462,2.634 L27.462,1.332 L22.702,1.332 C22.576,0.996 22.45,0.702 22.324,0.436 L20.798,0.688 C20.938,0.884 21.064,1.108 21.176,1.332 L15.94,1.332 L15.94,6.05 C15.912,8.794 15.548,10.922 14.848,12.448 L15.954,13.428 C16.794,11.664 17.27,9.354 17.354,6.484 L21.526,6.484 L21.526,7.198 L18.208,7.198 L18.208,8.402 L21.526,8.402 L21.526,11.734 C21.526,12 21.386,12.14 21.12,12.14 C20.756,12.14 20.378,12.112 19.986,12.056 C20.336,11.874 20.672,11.678 20.98,11.468 L20.63,10.278 C19.622,10.866 18.432,11.37 17.032,11.776 L17.592,13.092 C18.404,12.812 19.16,12.49 19.832,12.14 L20.098,13.386 L21.596,13.386 C22.492,13.386 22.94,12.952 22.94,12.084 L22.94,8.402 L26.356,8.402 Z M17.368,5.28 L17.368,2.634 L21.526,2.634 L21.526,3.334 L18.222,3.334 L18.222,4.538 L21.526,4.538 L21.526,5.28 L17.368,5.28 Z M22.94,4.538 L24.942,4.538 L24.942,5.28 L22.94,5.28 L22.94,4.538 Z M24.942,6.484 L24.942,7.198 L22.94,7.198 L22.94,6.484 L24.942,6.484 Z M18.432,8.472 L17.732,9.508 C18.474,9.746 19.202,10.082 19.93,10.516 L20.588,9.48 C19.93,9.088 19.216,8.752 18.432,8.472 L18.432,8.472 Z M25.754,8.458 C25.25,8.906 24.634,9.34 23.92,9.746 L24.774,10.586 C25.446,10.208 26.104,9.746 26.72,9.2 L25.754,8.458 Z M23.892,10.474 L23.22,11.468 C24.494,11.916 25.74,12.518 26.958,13.274 L27.728,12.098 C26.566,11.454 25.292,10.922 23.892,10.474 L23.892,10.474 Z M34.862,2.004 L35.212,9.13 L36.402,9.13 L36.752,2.004 L34.862,2.004 Z M35.8,9.886 C35.492,9.886 35.24,9.984 35.044,10.18 C34.82,10.376 34.722,10.628 34.722,10.936 C34.722,11.244 34.82,11.496 35.044,11.692 C35.24,11.888 35.492,12 35.8,12 C36.108,12 36.36,11.902 36.584,11.706 C36.78,11.51 36.892,11.244 36.892,10.936 C36.892,10.628 36.78,10.376 36.584,10.18 C36.374,9.984 36.108,9.886 35.8,9.886 L35.8,9.886 Z M46.392,0.464 L44.978,0.842 C45.16,1.262 45.328,1.682 45.482,2.116 L43.928,2.116 L43.928,3.46 L48.436,3.46 L48.436,2.116 L46.868,2.116 C46.756,1.612 46.588,1.066 46.392,0.464 L46.392,0.464 Z M44.32,4.216 L44.32,5.49 L47.96,5.49 L47.96,4.216 L44.32,4.216 Z M44.32,6.162 L44.32,7.45 L47.96,7.45 L47.96,6.162 L44.32,6.162 Z M48.128,8.276 L44.138,8.276 L44.138,13.442 L45.496,13.442 L45.496,12.658 L46.77,12.658 L46.77,13.246 L48.128,13.246 L48.128,8.276 Z M45.496,11.342 L45.496,9.564 L46.77,9.564 L46.77,11.342 L45.496,11.342 Z M48.786,2.942 L48.786,4.314 L52.636,4.314 C52.692,5.966 52.818,7.436 53,8.738 C53.406,11.72 54.092,13.246 55.058,13.302 C55.786,13.302 56.346,12.182 56.738,9.942 L55.618,9.312 C55.38,10.88 55.198,11.664 55.058,11.664 C54.862,11.65 54.638,10.908 54.386,9.438 C54.162,8.094 54.022,6.386 53.952,4.314 L56.304,4.314 L56.304,2.942 L53.924,2.942 C53.896,2.186 53.896,1.388 53.896,0.548 L52.552,0.548 C52.552,1.36 52.552,2.158 52.58,2.942 L48.786,2.942 Z M48.702,6.008 L48.702,7.31 L49.822,7.31 L49.822,10.432 C49.332,10.502 48.842,10.558 48.352,10.614 L48.688,11.916 C50.06,11.72 51.362,11.496 52.594,11.216 L52.594,9.914 C52.132,10.026 51.656,10.124 51.18,10.208 L51.18,7.31 L52.244,7.31 L52.244,6.008 L48.702,6.008 Z M55.17,0.562 L54.176,1.178 C54.666,1.766 55.058,2.298 55.338,2.788 L56.332,2.088 C56.052,1.64 55.674,1.136 55.17,0.562 L55.17,0.562 Z M60.526,6.47 L60.526,9.284 L63.816,9.284 L63.662,9.816 L59.588,9.816 L59.588,13.512 L61.002,13.512 L61.002,12.994 L68.492,12.994 L68.492,13.498 L69.92,13.498 L69.92,9.816 L65.132,9.816 L65.286,9.284 L68.702,9.284 L68.702,6.47 L60.526,6.47 Z M67.302,8.206 L61.926,8.206 L61.926,7.548 L67.302,7.548 L67.302,8.206 Z M61.002,11.832 L61.002,10.964 L68.492,10.964 L68.492,11.832 L61.002,11.832 Z M70.648,4.664 L69.808,4.664 L70.452,3.67 C69.724,3.25 68.94,2.886 68.086,2.578 C68.198,2.214 68.268,1.822 68.296,1.388 L68.296,0.506 L66.952,0.506 L66.952,1.388 C66.91,1.948 66.742,2.41 66.434,2.774 C66.126,3.11 65.524,3.39 64.628,3.614 L65.3,4.664 L63.55,4.664 L64.39,3.81 C63.718,3.432 62.934,3.04 62.01,2.648 C62.15,2.228 62.248,1.766 62.276,1.234 L62.276,0.52 L60.932,0.52 L60.932,1.234 C60.89,1.864 60.708,2.382 60.386,2.802 C60.05,3.18 59.42,3.502 58.468,3.754 L59.042,4.664 L58.552,4.664 L58.552,7.254 L59.952,7.254 L59.952,5.924 L69.248,5.924 L69.248,7.268 L70.648,7.268 L70.648,4.664 Z M67.47,3.614 C68.142,3.894 68.786,4.244 69.43,4.664 L65.482,4.664 C66.364,4.412 67.022,4.062 67.47,3.614 L67.47,3.614 Z M61.408,3.67 C62.136,4.02 62.738,4.356 63.228,4.664 L59.77,4.664 C60.47,4.398 61.016,4.062 61.408,3.67 L61.408,3.67 Z M59.7,0.884 L58.636,1.332 C58.888,1.78 59.098,2.298 59.294,2.886 L60.386,2.41 C60.19,1.864 59.966,1.36 59.7,0.884 L59.7,0.884 Z M65.608,0.856 L64.544,1.304 C64.782,1.752 65.006,2.284 65.202,2.9 L66.294,2.424 C66.098,1.864 65.874,1.346 65.608,0.856 L65.608,0.856 Z M63.186,0.828 C63.074,1.388 62.864,1.906 62.556,2.396 L63.69,2.788 C64.012,2.256 64.236,1.71 64.348,1.136 L63.186,0.828 Z M69.276,0.856 C69.164,1.402 68.968,1.92 68.688,2.41 L69.822,2.802 C70.116,2.27 70.326,1.724 70.438,1.164 L69.276,0.856 Z M85.062,0.926 L76.564,0.926 L76.564,3.404 L77.39,3.404 L77.39,3.922 L80.134,3.922 L80.134,4.44 L77.222,4.44 L77.222,8.808 L80.134,8.808 L80.134,9.368 L76.592,9.368 L76.592,10.558 L80.134,10.558 L80.134,11.706 L81.534,11.706 L81.534,10.558 L85.076,10.558 L85.076,9.368 L81.534,9.368 L81.534,8.808 L84.432,8.808 L84.432,4.44 L81.534,4.44 L81.534,3.922 L84.306,3.922 L84.306,3.334 L85.062,3.334 L85.062,0.926 Z M77.964,2.788 L77.964,2.102 L80.134,2.102 L80.134,2.788 L77.964,2.788 Z M81.534,2.102 L83.662,2.102 L83.662,2.788 L81.534,2.788 L81.534,2.102 Z M83.032,7.702 L81.534,7.702 L81.534,7.142 L83.032,7.142 L83.032,7.702 Z M80.134,7.702 L78.622,7.702 L78.622,7.142 L80.134,7.142 L80.134,7.702 Z M78.622,6.12 L78.622,5.532 L80.134,5.532 L80.134,6.12 L78.622,6.12 Z M81.534,5.532 L83.032,5.532 L83.032,6.12 L81.534,6.12 L81.534,5.532 Z M73.96,0.562 L73.008,1.458 C73.918,2.186 74.632,2.872 75.136,3.488 L76.074,2.55 C75.486,1.878 74.786,1.22 73.96,0.562 L73.96,0.562 Z M72.728,3.88 L72.728,5.196 L74.562,5.196 C74.142,5.826 73.596,6.498 72.952,7.226 L72.952,8.318 L74.926,8.318 C74.772,9.046 74.576,9.704 74.324,10.32 C73.736,10.558 73.134,11.272 72.504,12.476 L73.554,13.456 C74.142,12.252 74.576,11.65 74.828,11.65 C74.94,11.65 75.052,11.692 75.15,11.79 C75.626,12.252 76.144,12.588 76.732,12.812 C77.222,12.994 77.936,13.092 78.888,13.12 C79.826,13.148 80.778,13.176 81.73,13.176 L85.16,13.176 L85.496,11.804 C83.872,11.874 82.556,11.916 81.548,11.916 C80.568,11.916 79.7,11.902 78.944,11.888 C78.188,11.86 77.614,11.776 77.208,11.636 C76.816,11.468 76.396,11.188 75.948,10.796 C75.85,10.712 75.752,10.628 75.64,10.544 C75.892,9.9 76.102,9.06 76.298,8.052 L76.298,7.1 L74.674,7.1 C75.234,6.4 75.738,5.714 76.158,5.014 L76.158,3.88 L72.728,3.88 Z M87.94,0.576 L87.94,1.976 L87.226,1.976 L87.226,3.334 L87.94,3.334 L87.94,8.808 L87.072,8.808 L87.072,10.166 L93.806,10.166 L93.806,8.808 L93.05,8.808 L93.05,3.334 L93.736,3.334 L93.736,1.976 L93.05,1.976 L93.05,0.604 L91.65,0.604 L91.65,1.976 L89.34,1.976 L89.34,0.576 L87.94,0.576 Z M89.34,8.808 L89.34,7.842 L91.65,7.842 L91.65,8.808 L89.34,8.808 Z M91.65,3.334 L91.65,4.314 L89.34,4.314 L89.34,3.334 L91.65,3.334 Z M89.34,6.568 L89.34,5.588 L91.65,5.588 L91.65,6.568 L89.34,6.568 Z M91.846,10.25 L90.712,10.964 C91.3,11.804 91.776,12.56 92.112,13.232 L92.952,12.644 L93.974,13.568 C94.884,12.35 95.444,10.824 95.654,8.99 L97.894,8.99 L97.894,11.398 C97.894,11.776 97.754,11.972 97.474,11.972 C97.054,11.972 96.592,11.944 96.088,11.902 L96.48,13.33 L97.936,13.33 C98.888,13.33 99.364,12.854 99.364,11.93 L99.364,0.926 L94.282,0.926 L94.282,7.674 C94.268,9.41 93.89,10.88 93.148,12.098 C92.826,11.566 92.392,10.95 91.846,10.25 L91.846,10.25 Z M88.682,10.292 C88.192,11.188 87.604,11.958 86.932,12.602 L88.108,13.442 C88.766,12.714 89.34,11.86 89.844,10.852 L88.682,10.292 Z M95.738,5.644 L97.894,5.644 L97.894,7.66 L95.738,7.66 L95.738,5.644 Z M97.894,4.314 L95.738,4.314 L95.738,2.298 L97.894,2.298 L97.894,4.314 Z M105.056,6.652 L105.056,12.35 L110.516,12.35 L110.516,6.652 L105.056,6.652 Z M109.13,11.146 L106.456,11.146 L106.456,10.068 L109.13,10.068 L109.13,11.146 Z M106.456,8.906 L106.456,7.856 L109.13,7.856 L109.13,8.906 L106.456,8.906 Z M103.432,3.894 L105.812,3.894 L105.812,4.566 L103.432,4.566 L103.432,3.894 Z M105.812,2.802 L103.432,2.802 L103.432,2.158 L105.812,2.158 L105.812,2.802 Z M109.69,3.922 L112.154,3.922 L112.154,4.566 L109.69,4.566 L109.69,3.922 Z M112.154,2.83 L109.69,2.83 L109.69,2.172 L112.154,2.172 L112.154,2.83 Z M107.268,0.87 L101.99,0.87 L101.99,13.442 L103.432,13.442 L103.432,5.854 L107.268,5.854 L107.268,0.87 Z M112.154,5.854 L112.154,11.622 C112.154,11.902 112.028,12.056 111.79,12.056 C111.426,12.056 111.034,12.028 110.614,11.972 L111.006,13.372 C111.426,13.4 111.86,13.428 112.308,13.428 C113.162,13.428 113.596,12.98 113.596,12.098 L113.596,0.856 L108.234,0.856 L108.234,5.854 L112.154,5.854 Z M117.426,5.126 L117.426,8.822 L120.716,8.822 C120.674,8.906 120.632,9.004 120.576,9.116 C119.848,10.39 118.294,11.482 115.886,12.378 L116.824,13.512 C119.568,12.448 121.29,11.104 122.004,9.508 C122.102,9.284 122.2,9.06 122.284,8.822 L122.676,8.822 L122.676,11.552 C122.676,12.686 123.166,13.26 124.174,13.26 L126.974,13.26 C127.478,13.26 127.856,13.134 128.094,12.882 C128.346,12.602 128.528,11.762 128.64,10.348 L127.254,9.914 C127.226,10.838 127.156,11.398 127.072,11.58 C126.988,11.748 126.862,11.846 126.694,11.846 L124.622,11.846 C124.286,11.846 124.132,11.636 124.132,11.244 L124.132,8.822 L127.296,8.822 L127.296,4.216 L124.188,4.216 C124.636,3.768 125.098,3.264 125.56,2.676 L125.56,1.584 L120.954,1.584 C121.136,1.332 121.318,1.052 121.514,0.758 L120.044,0.422 C118.84,2.158 117.44,3.502 115.844,4.44 L116.782,5.56 C116.992,5.42 117.202,5.266 117.426,5.126 L117.426,5.126 Z M122.354,4.216 L118.574,4.216 C119.022,3.81 119.47,3.376 119.904,2.9 L123.67,2.9 C123.222,3.39 122.788,3.824 122.354,4.216 L122.354,4.216 Z M125.882,7.45 L122.676,7.45 C122.788,6.862 122.872,6.246 122.9,5.574 L125.882,5.574 L125.882,7.45 Z M121.178,7.45 L118.854,7.45 L118.854,5.574 L121.43,5.574 C121.388,6.246 121.304,6.876 121.178,7.45 L121.178,7.45 Z M130.356,2.018 L130.356,3.404 L142.858,3.404 L142.858,2.018 L137.454,2.018 C137.216,1.43 136.964,0.884 136.712,0.394 L135.074,0.674 C135.354,1.094 135.606,1.542 135.83,2.018 L130.356,2.018 Z M138.952,3.488 L137.958,4.44 C139.61,5.77 140.898,7.002 141.794,8.15 L142.872,7.058 C141.808,5.868 140.492,4.678 138.952,3.488 L138.952,3.488 Z M138.742,6.134 C138.182,7.198 137.468,8.136 136.6,8.962 C135.69,8.164 134.962,7.254 134.402,6.218 L133.142,6.932 C133.758,8.038 134.542,9.032 135.466,9.9 C134.038,10.908 132.288,11.678 130.216,12.182 L131.126,13.526 C133.282,12.966 135.116,12.098 136.656,10.894 C138.154,12.014 139.988,12.882 142.144,13.484 L143.054,12.112 C140.982,11.594 139.218,10.852 137.79,9.886 C138.686,8.99 139.456,7.94 140.086,6.736 L138.742,6.134 Z M134.15,3.502 C133.114,4.776 131.826,5.882 130.314,6.834 L131.252,8.066 C132.82,7.03 134.15,5.826 135.214,4.426 L134.15,3.502 Z M148.256,6.204 C147.5,7.044 146.366,7.758 144.868,8.318 L145.666,9.606 C146.492,9.214 147.234,8.78 147.906,8.304 L149.586,8.304 C148.718,9.256 147.388,10.054 145.596,10.684 L146.52,11.818 C148.648,10.964 150.202,9.788 151.182,8.304 L152.54,8.304 C151.476,10.208 149.81,11.51 147.542,12.21 L148.368,13.442 C150.944,12.602 152.848,10.88 154.052,8.304 L155.046,8.304 C154.99,9.844 154.864,10.852 154.668,11.328 C154.472,11.776 154.08,12.014 153.478,12.014 C152.946,12.014 152.386,11.986 151.812,11.944 L152.176,13.316 L154.178,13.316 C154.85,13.288 155.326,13.092 155.62,12.728 C155.914,12.35 156.138,11.692 156.278,10.754 C156.404,9.802 156.488,8.556 156.53,7.016 L149.334,7.016 C149.558,6.764 149.768,6.484 149.964,6.204 L155.466,6.204 L155.466,0.926 L146.604,0.926 L146.604,6.204 L148.256,6.204 Z M154.024,4.972 L148.046,4.972 L148.046,4.132 L154.024,4.132 L154.024,4.972 Z M148.046,2.984 L148.046,2.158 L154.024,2.158 L154.024,2.984 L148.046,2.984 Z M161.326,3.572 L163.174,3.572 L163.174,3.768 C163.16,3.88 163.132,3.992 163.104,4.118 L161.172,4.118 L161.326,3.572 Z M164.532,3.572 L166.198,3.572 L166.198,4.118 L164.49,4.118 L164.532,3.768 L164.532,3.572 Z M167.556,3.572 L170.65,3.572 L170.65,1.024 L167.556,1.024 L167.556,0.52 L166.198,0.52 L166.198,1.024 L164.532,1.024 L164.532,0.52 L163.174,0.52 L163.174,1.024 L159.898,1.024 L159.898,2.088 L163.174,2.088 L163.174,2.634 L160.248,2.634 L159.73,5.084 L162.446,5.084 C162.404,5.112 162.362,5.154 162.306,5.196 C161.788,5.532 160.78,5.812 159.282,6.05 L159.898,7.002 L160.78,6.834 L160.78,11.678 L162.894,11.678 C161.928,11.986 160.626,12.252 158.988,12.476 L159.604,13.54 C161.564,13.232 163.076,12.812 164.126,12.308 L163.65,11.678 L166.702,11.678 L166.338,12.35 C168.074,12.63 169.726,13.022 171.322,13.554 L171.77,12.448 C170.594,12.14 169.362,11.874 168.102,11.678 L170.104,11.678 L170.104,6.596 L161.746,6.596 C162.404,6.4 162.936,6.162 163.342,5.882 C163.65,5.658 163.902,5.392 164.112,5.084 L166.198,5.084 L166.198,6.316 L167.556,6.316 L167.556,5.084 L170.02,5.084 C170.02,5.224 169.978,5.336 169.908,5.42 C169.824,5.476 169.6,5.518 169.236,5.518 C168.97,5.518 168.69,5.504 168.382,5.49 L168.606,6.316 C168.858,6.33 169.124,6.344 169.39,6.344 C170.174,6.33 170.664,6.19 170.874,5.938 C171.084,5.672 171.196,5.07 171.196,4.118 L167.556,4.118 L167.556,3.572 Z M164.532,2.088 L166.198,2.088 L166.198,2.634 L164.532,2.634 L164.532,2.088 Z M167.556,2.088 L169.446,2.088 L169.446,2.634 L167.556,2.634 L167.556,2.088 Z M168.732,10.67 L162.166,10.67 L162.166,10.18 L168.732,10.18 L168.732,10.67 Z M162.166,9.312 L162.166,8.878 L168.732,8.878 L168.732,9.312 L162.166,9.312 Z M162.166,7.982 L162.166,7.534 L168.732,7.534 L168.732,7.982 L162.166,7.982 Z M179.8,3.236 C179.492,3.236 179.226,3.334 179.016,3.558 C178.806,3.768 178.708,4.034 178.708,4.342 C178.708,4.65 178.806,4.902 179.016,5.112 C179.226,5.322 179.492,5.434 179.8,5.434 C180.108,5.434 180.36,5.322 180.584,5.112 C180.794,4.902 180.906,4.65 180.906,4.342 C180.906,4.034 180.794,3.768 180.584,3.558 C180.36,3.334 180.108,3.236 179.8,3.236 L179.8,3.236 Z M179.8,8.36 C179.492,8.36 179.226,8.458 179.016,8.682 C178.806,8.892 178.708,9.158 178.708,9.466 C178.708,9.774 178.806,10.026 179.016,10.236 C179.226,10.446 179.492,10.558 179.8,10.558 C180.108,10.558 180.36,10.446 180.584,10.236 C180.794,10.026 180.906,9.774 180.906,9.466 C180.906,9.158 180.794,8.892 180.584,8.682 C180.36,8.458 180.108,8.36 179.8,8.36 L179.8,8.36 Z M4.354,21.808 C3.276,21.808 2.408,22.172 1.75,22.9 C1.106,23.586 0.784,24.482 0.77,25.602 L2.408,25.602 C2.436,24.818 2.604,24.216 2.912,23.824 C3.22,23.404 3.682,23.194 4.298,23.194 C4.872,23.194 5.306,23.32 5.6,23.586 C5.88,23.852 6.034,24.258 6.034,24.804 C6.034,25.364 5.81,25.896 5.376,26.386 C5.096,26.68 4.648,27.058 4.004,27.506 C2.842,28.304 2.072,28.92 1.708,29.34 C1.036,30.096 0.714,30.978 0.714,32 L7.686,32 L7.686,30.558 L2.758,30.558 C2.982,30.054 3.598,29.466 4.62,28.794 C5.6,28.136 6.3,27.604 6.692,27.184 C7.336,26.47 7.672,25.686 7.672,24.818 C7.672,23.922 7.364,23.208 6.748,22.648 C6.118,22.088 5.32,21.808 4.354,21.808 L4.354,21.808 Z M13,21.808 C11.824,21.808 10.914,22.284 10.27,23.264 C9.65400001,24.188 9.34600001,25.434 9.34600001,27.002 C9.34600001,28.57 9.65400001,29.816 10.27,30.74 C10.914,31.706 11.824,32.196 13,32.196 C14.162,32.196 15.072,31.706 15.73,30.74 C16.346,29.816 16.654,28.57 16.654,27.002 C16.654,25.434 16.346,24.188 15.73,23.264 C15.072,22.284 14.162,21.808 13,21.808 L13,21.808 Z M13,23.194 C13.784,23.194 14.344,23.628 14.68,24.524 C14.904,25.126 15.016,25.952 15.016,27.002 C15.016,28.038 14.904,28.864 14.68,29.48 C14.344,30.362 13.784,30.81 13,30.81 C12.202,30.81 11.642,30.362 11.32,29.48 C11.096,28.864 10.984,28.038 10.984,27.002 C10.984,25.952 11.096,25.126 11.32,24.524 C11.642,23.628 12.202,23.194 13,23.194 L13,23.194 Z M20.848,22.004 C20.512,22.354 20.092,22.676 19.588,22.984 C19.084,23.264 18.608,23.46 18.16,23.572 L18.16,25.196 C19.084,24.93 19.84,24.524 20.442,23.978 L20.442,32 L22.08,32 L22.08,22.004 L20.848,22.004 Z M28.08,21.808 C26.918,21.808 25.994,22.312 25.322,23.32 C24.636,24.328 24.3,25.644 24.3,27.282 C24.3,28.808 24.608,29.998 25.252,30.866 C25.896,31.748 26.834,32.196 28.066,32.196 C29.06,32.196 29.9,31.86 30.572,31.216 C31.244,30.572 31.594,29.746 31.594,28.738 C31.594,27.758 31.3,26.946 30.712,26.316 C30.124,25.686 29.34,25.378 28.36,25.378 C27.856,25.378 27.408,25.462 27.016,25.658 C26.596,25.854 26.246,26.148 25.966,26.568 L25.896,26.568 L25.896,26.442 C25.896,25.518 26.078,24.748 26.47,24.132 C26.862,23.474 27.394,23.152 28.066,23.152 C29.018,23.152 29.606,23.614 29.802,24.538 L31.398,24.538 C31.146,22.718 30.04,21.808 28.08,21.808 L28.08,21.808 Z M28.01,26.708 C28.612,26.708 29.088,26.89 29.452,27.268 C29.788,27.632 29.97,28.122 29.97,28.738 C29.97,29.354 29.788,29.858 29.424,30.25 C29.06,30.642 28.598,30.838 28.01,30.838 C27.436,30.838 26.974,30.656 26.61,30.292 C26.246,29.928 26.064,29.424 26.064,28.794 C26.064,28.15 26.232,27.632 26.582,27.268 C26.918,26.89 27.394,26.708 28.01,26.708 L28.01,26.708 Z M37.79,20.52 L32.918,33.4 L34.304,33.4 L39.162,20.52 L37.79,20.52 Z M43.188,22.004 C42.852,22.354 42.432,22.676 41.928,22.984 C41.424,23.264 40.948,23.46 40.5,23.572 L40.5,25.196 C41.424,24.93 42.18,24.524 42.782,23.978 L42.782,32 L44.42,32 L44.42,22.004 L43.188,22.004 Z M49.328,22.004 C48.992,22.354 48.572,22.676 48.068,22.984 C47.564,23.264 47.088,23.46 46.64,23.572 L46.64,25.196 C47.564,24.93 48.32,24.524 48.922,23.978 L48.922,32 L50.56,32 L50.56,22.004 L49.328,22.004 Z M57.47,20.52 L52.598,33.4 L53.984,33.4 L58.842,20.52 L57.47,20.52 Z M62.868,22.004 C62.532,22.354 62.112,22.676 61.608,22.984 C61.104,23.264 60.628,23.46 60.18,23.572 L60.18,25.196 C61.104,24.93 61.86,24.524 62.462,23.978 L62.462,32 L64.1,32 L64.1,22.004 L62.868,22.004 Z M77.0660001,20.436 L77.0660001,22.83 L72.1100001,22.83 L72.1100001,29.662 L73.5800001,29.662 L73.5800001,28.892 L77.0660001,28.892 L77.0660001,33.568 L78.5780001,33.568 L78.5780001,28.892 L82.0780001,28.892 L82.0780001,29.662 L83.5480001,29.662 L83.5480001,22.83 L78.5780001,22.83 L78.5780001,20.436 L77.0660001,20.436 Z M73.5800001,27.464 L73.5800001,24.258 L77.0660001,24.258 L77.0660001,27.464 L73.5800001,27.464 Z M78.5780001,27.464 L78.5780001,24.258 L82.0780001,24.258 L82.0780001,27.464 L78.5780001,27.464 Z M88.7920001,23.628 L91.7320001,23.628 L91.7320001,26.708 L86.1740001,26.708 L86.1740001,28.136 L91.7320001,28.136 L91.7320001,33.47 L93.2020001,33.47 L93.2020001,28.136 L98.2840001,28.136 L98.2840001,26.708 L93.2020001,26.708 L93.2020001,23.628 L97.7520001,23.628 L97.7520001,22.2 L89.6180001,22.2 C89.8560001,21.738 90.0800001,21.248 90.3040001,20.744 L88.8620001,20.422 C88.0220001,22.242 87.0280001,23.656 85.9080001,24.664 L86.9300001,25.896 C87.6020001,25.252 88.2180001,24.496 88.7920001,23.628 L88.7920001,23.628 Z M107.932,22.004 C107.596,22.354 107.176,22.676 106.672,22.984 C106.168,23.264 105.692,23.46 105.244,23.572 L105.244,25.196 C106.168,24.93 106.924,24.524 107.526,23.978 L107.526,32 L109.164,32 L109.164,22.004 L107.932,22.004 Z M115.178,21.808 C114.1,21.808 113.232,22.172 112.574,22.9 C111.93,23.586 111.608,24.482 111.594,25.602 L113.232,25.602 C113.26,24.818 113.428,24.216 113.736,23.824 C114.044,23.404 114.506,23.194 115.122,23.194 C115.696,23.194 116.13,23.32 116.424,23.586 C116.704,23.852 116.858,24.258 116.858,24.804 C116.858,25.364 116.634,25.896 116.2,26.386 C115.92,26.68 115.472,27.058 114.828,27.506 C113.666,28.304 112.896,28.92 112.532,29.34 C111.86,30.096 111.538,30.978 111.538,32 L118.51,32 L118.51,30.558 L113.582,30.558 C113.806,30.054 114.422,29.466 115.444,28.794 C116.424,28.136 117.124,27.604 117.516,27.184 C118.16,26.47 118.496,25.686 118.496,24.818 C118.496,23.922 118.188,23.208 117.572,22.648 C116.942,22.088 116.144,21.808 115.178,21.808 L115.178,21.808 Z M125.75,26.876 L125.75,28.024 L127.864,28.024 L127.864,28.71 L125.442,28.71 L125.442,29.998 L131.532,29.998 L131.532,28.71 L129.138,28.71 L129.138,28.024 L131.224,28.024 L131.224,26.876 L129.138,26.876 L129.138,26.204 L131.434,26.204 L131.434,20.926 L125.554,20.926 L125.554,26.204 L127.864,26.204 L127.864,26.876 L125.75,26.876 Z M125.652,30.53 C125.596,31.482 125.428,32.336 125.176,33.092 L126.366,33.456 C126.576,32.644 126.702,31.706 126.758,30.67 L125.652,30.53 Z M128.158,30.614 L127.108,30.754 C127.15,31.356 127.178,32.21 127.192,33.302 L128.368,33.148 C128.326,32.084 128.256,31.23 128.158,30.614 L128.158,30.614 Z M131.126,30.348 L130.104,30.642 C130.314,31.37 130.496,32.126 130.65,32.896 L131.686,32.518 C131.546,31.846 131.364,31.132 131.126,30.348 L131.126,30.348 Z M129.628,30.544 L128.592,30.754 C128.732,31.44 128.858,32.224 128.956,33.12 L130.118,32.854 C129.978,32.014 129.81,31.244 129.628,30.544 L129.628,30.544 Z M130.272,25.112 L128.984,25.112 L128.984,22.018 L130.272,22.018 L130.272,25.112 Z M127.962,25.112 L126.716,25.112 L126.716,22.858 C126.884,23.446 127.038,24.076 127.164,24.72 L127.92,24.524 C127.78,23.768 127.612,23.096 127.43,22.522 L126.716,22.746 L126.716,22.018 L127.962,22.018 L127.962,25.112 Z M129.404,22.382 C129.334,23.124 129.222,23.824 129.054,24.482 L129.81,24.748 C129.992,24.062 130.118,23.348 130.188,22.592 L129.404,22.382 Z M133.898,20.576 L133.898,26.47 L132.022,26.47 L132.022,33.456 L133.394,33.456 L133.394,32.798 L136.222,32.798 L136.222,33.456 L137.594,33.456 L137.594,26.47 L135.326,26.47 L135.326,24.342 L138.14,24.342 L138.14,23.012 L135.326,23.012 L135.326,20.576 L133.898,20.576 Z M133.394,31.482 L133.394,27.786 L136.222,27.786 L136.222,31.482 L133.394,31.482 Z M146.248,25.812 C145.576,25.812 144.946,26.302 144.33,27.282 L145.296,27.954 C145.646,27.338 145.968,27.044 146.248,27.044 C146.472,27.044 146.892,27.226 147.48,27.604 C148.068,27.968 148.586,28.15 149.048,28.15 C149.706,28.15 150.35,27.66 150.966,26.68 L150,26.008 C149.636,26.61 149.328,26.918 149.048,26.918 C148.824,26.918 148.418,26.736 147.83,26.372 C147.242,25.994 146.71,25.812 146.248,25.812 L146.248,25.812 Z M159.858,22.004 C159.522,22.354 159.102,22.676 158.598,22.984 C158.094,23.264 157.618,23.46 157.17,23.572 L157.17,25.196 C158.094,24.93 158.85,24.524 159.452,23.978 L159.452,32 L161.09,32 L161.09,22.004 L159.858,22.004 Z M167.104,21.808 C166.026,21.808 165.158,22.172 164.5,22.9 C163.856,23.586 163.534,24.482 163.52,25.602 L165.158,25.602 C165.186,24.818 165.354,24.216 165.662,23.824 C165.97,23.404 166.432,23.194 167.048,23.194 C167.622,23.194 168.056,23.32 168.35,23.586 C168.63,23.852 168.784,24.258 168.784,24.804 C168.784,25.364 168.56,25.896 168.126,26.386 C167.846,26.68 167.398,27.058 166.754,27.506 C165.592,28.304 164.822,28.92 164.458,29.34 C163.786,30.096 163.464,30.978 163.464,32 L170.436,32 L170.436,30.558 L165.508,30.558 C165.732,30.054 166.348,29.466 167.37,28.794 C168.35,28.136 169.05,27.604 169.442,27.184 C170.086,26.47 170.422,25.686 170.422,24.818 C170.422,23.922 170.114,23.208 169.498,22.648 C168.868,22.088 168.07,21.808 167.104,21.808 L167.104,21.808 Z M176.8,20.52 L171.928,33.4 L173.314,33.4 L178.172,20.52 L176.8,20.52 Z M183.248,21.808 C182.268,21.808 181.456,22.074 180.826,22.634 C180.154,23.194 179.79,23.978 179.706,24.986 L181.316,24.986 C181.372,24.384 181.568,23.936 181.904,23.642 C182.226,23.348 182.674,23.208 183.262,23.208 C183.836,23.208 184.27,23.334 184.564,23.586 C184.83,23.838 184.97,24.202 184.97,24.692 C184.97,25.182 184.816,25.56 184.522,25.812 C184.214,26.064 183.766,26.19 183.178,26.19 L182.478,26.19 L182.478,27.422 L183.178,27.422 C183.822,27.422 184.312,27.548 184.648,27.828 C184.984,28.094 185.166,28.514 185.166,29.088 C185.166,29.564 184.998,29.956 184.676,30.278 C184.312,30.628 183.808,30.81 183.178,30.81 C182.604,30.81 182.142,30.642 181.792,30.32 C181.4,29.97 181.204,29.466 181.176,28.822 L179.51,28.822 C179.594,29.942 179.986,30.81 180.686,31.398 C181.316,31.93 182.156,32.196 183.192,32.196 C184.284,32.196 185.166,31.888 185.838,31.286 C186.482,30.698 186.804,29.942 186.804,29.018 C186.804,28.43 186.636,27.94 186.3,27.562 C185.992,27.198 185.53,26.932 184.942,26.75 C186.048,26.386 186.608,25.658 186.608,24.566 C186.608,23.698 186.3,23.026 185.698,22.536 C185.082,22.046 184.256,21.808 183.248,21.808 L183.248,21.808 Z M190.998,22.004 C190.662,22.354 190.242,22.676 189.738,22.984 C189.234,23.264 188.758,23.46 188.31,23.572 L188.31,25.196 C189.234,24.93 189.99,24.524 190.592,23.978 L190.592,32 L192.23,32 L192.23,22.004 L190.998,22.004 Z M205.826,20.618 L205.826,31.538 L203.376,31.538 L203.376,23.054 L201.906,23.054 L201.906,31.538 L199.68,31.538 L199.68,32.966 L212.224,32.966 L212.224,31.538 L207.31,31.538 L207.31,26.386 L211.51,26.386 L211.51,24.958 L207.31,24.958 L207.31,20.618 L205.826,20.618 Z M5.436,44.212 L5.604,47.284 L2.748,46.168 L2.388,47.212 L5.376,48.064 L3.36,50.476 L4.2,51.136 L6,48.544 L7.8,51.136 L8.64,50.476 L6.624,48.064 L9.612,47.212 L9.252,46.168 L6.396,47.284 L6.564,44.212 L5.436,44.212 Z M13.2068572,42.832 L13.2068572,43.672 L18.5828572,43.672 C17.5148572,45.892 15.6188572,47.776 12.8828572,49.336 L13.4468572,50.08 C15.2828572,49 16.7708572,47.752 17.8988572,46.36 L17.8988572,53.224 L18.7868572,53.224 L18.7868572,46.576 C20.5388572,47.668 21.9908572,48.832 23.1668572,50.08 L23.7548572,49.372 C22.3628572,48.028 20.7068572,46.792 18.7868572,45.664 L18.7868572,45.112 C19.0748572,44.644 19.3268572,44.164 19.5428572,43.672 L23.4788572,43.672 L23.4788572,42.832 L13.2068572,42.832 Z M32.2817143,45.844 L27.0857143,45.844 L27.0857143,52.024 C27.0857143,52.696 27.4577143,53.044 28.2137143,53.044 L34.5137143,53.044 C35.0657143,53.02 35.4377143,52.78 35.6177143,52.3 C35.7257143,51.988 35.8097143,51.46 35.8817143,50.716 L35.0657143,50.452 C35.0057143,51.196 34.9337143,51.676 34.8377143,51.868 C34.7297143,52.096 34.5377143,52.216 34.2617143,52.228 L28.5377143,52.228 C28.1537143,52.228 27.9497143,52.048 27.9497143,51.712 L27.9497143,49.492 L32.2817143,49.492 L32.2817143,45.844 Z M27.9497143,48.7 L27.9497143,46.636 L31.4177143,46.636 L31.4177143,48.7 L27.9497143,48.7 Z M28.2017143,42.088 C27.4817143,43.768 26.5577143,45.136 25.4297143,46.168 L26.0297143,46.888 C26.7857143,46.156 27.4577143,45.292 28.0577143,44.308 L34.3337143,44.308 C34.3097143,46.804 34.2617143,48.292 34.1897143,48.772 C34.1297143,49.252 33.9017143,49.492 33.5057143,49.492 C33.2657143,49.492 32.9897143,49.468 32.6657143,49.444 L32.8697143,50.224 C33.2297143,50.248 33.4817143,50.26 33.6257143,50.26 C34.4537143,50.26 34.9217143,49.876 35.0297143,49.108 C35.1497143,48.388 35.2097143,46.516 35.2097143,43.48 L28.5137143,43.48 C28.7057143,43.096 28.8977143,42.688 29.0657143,42.28 L28.2017143,42.088 Z M46.9525715,49.144 L44.7565715,49.144 C45.3685715,48.616 45.9205715,48.028 46.4125715,47.392 L46.4125715,46.708 L39.3805715,46.708 L39.3805715,47.476 L45.3565715,47.476 C44.7685715,48.124 44.1685715,48.688 43.5445715,49.144 L39.1165715,49.144 L39.1165715,53.212 L39.9565715,53.212 L39.9565715,52.648 L46.1125715,52.648 L46.1125715,53.212 L46.9525715,53.212 L46.9525715,49.144 Z M39.9565715,51.844 L39.9565715,49.948 L46.1125715,49.948 L46.1125715,51.844 L39.9565715,51.844 Z M42.6685715,42.268 C41.4445715,43.66 39.7045715,44.8 37.4245715,45.664 L37.8925715,46.396 C38.8765715,46.012 39.8005715,45.568 40.6405715,45.04 L40.6405715,45.568 L45.3445715,45.568 L45.3445715,45.004 C46.1365715,45.496 47.0725715,45.952 48.1285715,46.372 L48.5965715,45.64 C46.1365715,44.68 44.3965715,43.552 43.3885715,42.268 L42.6685715,42.268 Z M41.0005715,44.8 C41.7445715,44.296 42.4165715,43.72 43.0285715,43.072 C43.5565715,43.696 44.2165715,44.272 45.0205715,44.8 L41.0005715,44.8 Z M52.2274286,45.628 L52.2274286,46.324 L54.9514286,46.324 L54.9514286,48.052 L50.6674286,48.052 L50.6674286,48.856 L54.9514286,48.856 L54.9514286,52.06 L53.5714286,52.06 C53.2594286,51.112 52.9234286,50.296 52.5514286,49.624 L51.7714286,49.912 C52.1554286,50.584 52.4794286,51.292 52.7314286,52.06 L50.2474286,52.06 L50.2474286,52.888 L60.5074286,52.888 L60.5074286,52.06 L58.0234286,52.06 C58.3834286,51.412 58.7194286,50.656 59.0194286,49.816 L58.2274286,49.54 C57.9154286,50.44 57.5554286,51.28 57.1474286,52.06 L55.8154286,52.06 L55.8154286,48.856 L60.0874286,48.856 L60.0874286,48.052 L55.8154286,48.052 L55.8154286,46.324 L58.5394286,46.324 L58.5394286,45.664 C59.0914286,45.988 59.6794286,46.288 60.3154286,46.552 L60.8074286,45.832 C58.5754286,44.896 56.8834286,43.72 55.7314286,42.292 L55.0354286,42.292 C53.7154286,43.744 52.0114286,44.932 49.9234286,45.868 L50.4274286,46.588 C51.0514286,46.3 51.6514286,45.976 52.2274286,45.628 L52.2274286,45.628 Z M58.3354286,45.544 L52.3594286,45.544 C53.4754286,44.86 54.4834286,44.044 55.3834286,43.108 C56.1754286,44.032 57.1594286,44.848 58.3354286,45.544 L58.3354286,45.544 Z M68.5782858,42.172 C68.4102858,42.604 68.2182858,43.012 68.0262858,43.396 L65.5062858,43.396 L65.5062858,44.188 L67.5942858,44.188 C67.0182858,45.124 66.3582858,45.88 65.6262858,46.432 L65.8662858,47.164 C67.8222858,47.092 69.7302858,46.948 71.5902858,46.732 C71.8062858,47.056 72.0102858,47.38 72.2022858,47.692 L72.9222858,47.188 C72.4542858,46.432 71.7822858,45.544 70.9182858,44.536 L70.2222858,44.956 C70.5342858,45.316 70.8222858,45.688 71.0982858,46.06 C69.7062858,46.216 68.2782858,46.324 66.8142858,46.396 C67.4382858,45.796 68.0022858,45.052 68.5302858,44.188 L72.8742858,44.188 L72.8742858,43.396 L68.9622858,43.396 C69.1182858,43.084 69.2742858,42.76 69.4182858,42.424 L68.5782858,42.172 Z M63.2742858,42.352 L62.6502858,42.94 C63.4542858,43.492 64.0902858,44.02 64.5462858,44.512 L65.1582858,43.9 C64.6422858,43.384 64.0182858,42.868 63.2742858,42.352 L63.2742858,42.352 Z M62.9862858,45.22 L62.3742858,45.808 C63.1902858,46.444 63.8262858,47.032 64.2942858,47.584 L64.9062858,46.972 C64.3902858,46.396 63.7542858,45.808 62.9862858,45.22 L62.9862858,45.22 Z M64.2102858,48.412 C63.7542858,49.864 63.2142858,51.28 62.5902858,52.66 L63.3942858,53.02 C63.9702858,51.676 64.4982858,50.236 64.9662858,48.712 L64.2102858,48.412 Z M68.4462858,47.776 L68.4462858,52.996 L69.3222858,52.996 L69.3222858,47.776 L68.4462858,47.776 Z M66.3582858,47.776 C66.3102858,49.192 66.1782858,50.212 65.9502858,50.836 C65.7102858,51.484 65.2902858,52.036 64.7142858,52.504 L65.2662858,53.188 C65.9382858,52.636 66.4182858,51.976 66.7182858,51.22 C66.9822858,50.488 67.1502858,49.336 67.1982858,47.776 L66.3582858,47.776 Z M71.6622858,52.984 L73.1982858,52.984 L73.1982858,52.18 L71.9142858,52.18 C71.6862858,52.18 71.5782858,52.036 71.5782858,51.772 L71.5782858,47.776 L70.7502858,47.776 L70.7502858,51.88 C70.7502858,52.612 71.0502858,52.984 71.6622858,52.984 L71.6622858,52.984 Z M84.0891429,42.304 C81.7971429,42.856 78.9171429,43.144 75.4371429,43.144 L75.7011429,43.924 C77.1891429,43.924 78.5691429,43.864 79.8411429,43.768 L79.8411429,45.724 L75.6771429,45.724 L75.6771429,46.564 L79.8411429,46.564 L79.8411429,48.532 L74.6811429,48.532 L74.6811429,49.36 L79.8411429,49.36 L79.8411429,51.796 C79.8411429,52.132 79.6491429,52.312 79.2891429,52.312 C78.7371429,52.312 78.1491429,52.288 77.5371429,52.264 L77.7291429,53.104 L79.5891429,53.104 C80.3331429,53.104 80.7171429,52.732 80.7171429,52.012 L80.7171429,49.36 L85.4451429,49.36 L85.4451429,48.532 L80.7171429,48.532 L80.7171429,46.564 L84.5451429,46.564 L84.5451429,45.724 L80.7171429,45.724 L80.7171429,43.696 C82.1571429,43.552 83.4171429,43.324 84.5091429,43.036 L84.0891429,42.304 Z M87.3600001,50.128 C87.3120001,51.112 87.1680001,51.976 86.9400001,52.744 L87.6720001,52.972 C87.8760001,52.18 88.0080001,51.256 88.0680001,50.212 L87.3600001,50.128 Z M89.3520001,49.972 L88.6920001,50.116 C88.8120001,50.836 88.9080001,51.664 88.9920001,52.6 L89.7240001,52.432 C89.6160001,51.544 89.4960001,50.728 89.3520001,49.972 L89.3520001,49.972 Z M90.5760001,46.948 L89.9160001,47.164 C90.0240001,47.512 90.1320001,47.872 90.2280001,48.244 C89.5560001,48.424 88.8720001,48.568 88.2000001,48.688 C88.9440001,47.848 89.8800001,46.42 91.0200001,44.392 L90.2760001,44.116 C90.0000001,44.632 89.7360001,45.112 89.4840001,45.568 C88.9680001,45.664 88.4400001,45.736 87.9120001,45.784 C88.5240001,44.968 89.1240001,43.876 89.7240001,42.52 L88.9560001,42.232 C88.4880001,43.48 87.9240001,44.584 87.2760001,45.556 C87.1800001,45.7 87.0720001,45.796 86.9520001,45.856 L87.1560001,46.552 C87.7920001,46.468 88.4280001,46.384 89.0640001,46.288 C88.4160001,47.344 87.8760001,48.1 87.4200001,48.556 C87.3240001,48.64 87.2040001,48.712 87.0600001,48.772 L87.2760001,49.504 C88.2600001,49.384 89.2920001,49.168 90.3720001,48.844 L90.4920001,49.456 L91.1880001,49.276 C91.0080001,48.4 90.8040001,47.62 90.5760001,46.948 L90.5760001,46.948 Z M90.6240001,49.672 L90.0000001,49.876 C90.1920001,50.488 90.3720001,51.196 90.5400001,51.988 L91.1880001,51.7 C91.0320001,50.98 90.8400001,50.308 90.6240001,49.672 L90.6240001,49.672 Z M91.3800001,42.832 L91.3800001,43.456 L94.1400001,43.456 L94.1400001,44.092 L91.7280001,44.092 L91.7280001,44.656 L97.3800001,44.656 L97.3800001,44.092 L94.9680001,44.092 L94.9680001,43.456 L97.7280001,43.456 L97.7280001,42.832 L94.9680001,42.832 L94.9680001,42.184 L94.1400001,42.184 L94.1400001,42.832 L91.3800001,42.832 Z M91.4880001,45.22 L91.4880001,47.224 L97.5840001,47.224 L97.5840001,45.22 L91.4880001,45.22 Z M96.8520001,46.684 L95.7000001,46.684 L95.7000001,45.76 L96.8520001,45.76 L96.8520001,46.684 Z M95.1120001,46.684 L93.9720001,46.684 L93.9720001,45.76 L95.1120001,45.76 L95.1120001,46.684 Z M93.3840001,46.684 L92.2200001,46.684 L92.2200001,45.76 L93.3840001,45.76 L93.3840001,46.684 Z M91.8480001,47.752 L91.8480001,51.7 L93.4680001,51.7 C92.8200001,52.06 91.9800001,52.348 90.9600001,52.588 L91.2720001,53.224 C92.3400001,52.96 93.2280001,52.612 93.9480001,52.204 L93.5040001,51.7 L95.3880001,51.7 L95.0520001,52.204 C95.9040001,52.468 96.7320001,52.816 97.5480001,53.26 L97.9440001,52.66 C97.1880001,52.288 96.3480001,51.964 95.4360001,51.7 L97.2480001,51.7 L97.2480001,47.752 L91.8480001,47.752 Z M96.4440001,51.136 L92.6280001,51.136 L92.6280001,50.488 L96.4440001,50.488 L96.4440001,51.136 Z M92.6280001,50.008 L92.6280001,49.42 L96.4440001,49.42 L96.4440001,50.008 L92.6280001,50.008 Z M92.6280001,48.952 L92.6280001,48.292 L96.4440001,48.292 L96.4440001,48.952 L92.6280001,48.952 Z M101.106857,44.668 L103.038857,44.668 L103.038857,44.944 C103.026857,45.076 103.002857,45.208 102.966857,45.352 L100.914857,45.352 L101.106857,44.668 Z M103.842857,44.668 L105.606857,44.668 L105.606857,45.352 L103.782857,45.352 C103.806857,45.22 103.830857,45.088 103.842857,44.944 L103.842857,44.668 Z M106.410857,44.668 L109.134857,44.668 L109.134857,42.748 L106.410857,42.748 L106.410857,42.208 L105.606857,42.208 L105.606857,42.748 L103.842857,42.748 L103.842857,42.208 L103.038857,42.208 L103.038857,42.748 L100.122857,42.748 L100.122857,43.396 L103.038857,43.396 L103.038857,44.08 L100.470857,44.08 L100.062857,45.964 L102.618857,45.964 C102.522857,46.06 102.402857,46.168 102.270857,46.264 C101.766857,46.588 100.878857,46.852 99.5948572,47.056 L99.9668572,47.632 C100.278857,47.584 100.590857,47.524 100.878857,47.464 L100.878857,51.604 L108.690857,51.604 L108.690857,47.44 L100.974857,47.44 C101.802857,47.248 102.438857,46.996 102.882857,46.696 C103.170857,46.48 103.386857,46.24 103.554857,45.964 L105.606857,45.964 L105.606857,47.152 L106.410857,47.152 L106.410857,45.964 L108.882857,45.964 C108.882857,46.204 108.834857,46.36 108.762857,46.456 C108.666857,46.552 108.438857,46.6 108.066857,46.6 C107.850857,46.6 107.610857,46.588 107.346857,46.576 L107.490857,47.104 C107.706857,47.104 107.934857,47.116 108.162857,47.116 C108.774857,47.116 109.170857,47.008 109.350857,46.792 C109.518857,46.588 109.602857,46.108 109.602857,45.352 L106.410857,45.352 L106.410857,44.668 Z M103.842857,43.396 L105.606857,43.396 L105.606857,44.08 L103.842857,44.08 L103.842857,43.396 Z M106.410857,43.396 L108.402857,43.396 L108.402857,44.08 L106.410857,44.08 L106.410857,43.396 Z M107.874857,50.98 L101.694857,50.98 L101.694857,50.344 L107.874857,50.344 L107.874857,50.98 Z M101.694857,49.792 L101.694857,49.204 L107.874857,49.204 L107.874857,49.792 L101.694857,49.792 Z M101.694857,48.64 L101.694857,48.016 L107.874857,48.016 L107.874857,48.64 L101.694857,48.64 Z M105.942857,51.652 L105.654857,52.192 C107.118857,52.444 108.534857,52.804 109.890857,53.26 L110.154857,52.6 C108.810857,52.192 107.406857,51.868 105.942857,51.652 L105.942857,51.652 Z M103.194857,51.64 C102.306857,52.024 101.010857,52.348 99.3068572,52.6 L99.6788572,53.236 C101.382857,52.96 102.678857,52.6 103.590857,52.156 L103.194857,51.64 Z" id="好康！試營運期間免交易費：-2016/1"></path>
                </g>
            </g>
        </g>
    </g>
</svg>