<?xml version="1.0" encoding="UTF-8"?>
<svg width="286px" height="82px" viewBox="0 0 286 82" version="1.1" xmlns="http://www.w3.org/2000/svg" xmlns:xlink="http://www.w3.org/1999/xlink">
    <!-- Generator: Sketch 40.3 (33839) - http://www.bohemiancoding.com/sketch -->
    <title>logo-alt</title>
    <desc>Created with Sketch.</desc>
    <defs></defs>
    <g id="Symbols" stroke="none" stroke-width="1" fill="none" fill-rule="evenodd">
        <g id="logo-alt">
            <path d="M34.9403128,18.1387635 C37.4292819,16.1441612 40.374529,15.1460606 43.7770042,15.1460606 C47.3759973,15.1460606 50.4642261,16.2740909 53.0428165,18.5282576 C54.5569067,19.8528767 55.6264125,21.3265071 56.2511815,22.949072 C56.851571,22.0036223 57.6278225,21.1183952 58.580087,20.2933333 C61.1575515,18.06 64.2457804,16.9429545 67.8458993,16.9429545 C71.5417163,16.9429545 74.7038765,18.1440909 77.3305035,20.5463636 C79.9571305,18.1865152 83.1185401,17.0062121 86.8154829,17.0062121 C89.7474564,17.0062121 92.3334514,17.7210217 94.5744423,19.1502475 C98.5636364,16.3838532 103.202586,15.0000758 108.491292,15.0000758 C113.479804,15.0000758 117.890913,16.2318154 121.724428,18.6943203 C124.036345,17.0992945 126.71315,16.301553 129.755524,16.301553 C133.013382,16.301553 135.847543,17.2398106 138.255378,19.1148106 C139.010453,19.7026894 139.66833,20.3356439 140.229382,21.0129167 C140.352101,21.1606439 140.469941,21.3106439 140.583277,21.4625379 C140.585529,21.4788258 142.781327,19.7932197 142.783579,19.8098864 C145.09384,18.72125 147.246856,18.1761742 149.243378,18.1761742 C153.129089,18.1761742 156.463506,19.4882955 159.247753,22.1117803 C162.030874,24.7367803 163.42281,27.8799621 163.42281,31.5432197 C163.42281,35.2072348 162.398655,38.84625 160.350719,42.4595075 C162.398655,45.08375 163.42281,47.8314772 163.42281,50.7023106 C163.42281,54.3663257 162.044009,57.5083712 159.287158,60.1329924 C156.529932,62.7564772 153.207524,64.0689772 149.321813,64.0689772 C145.338476,64.0689772 141.956868,62.7618684 139.177362,60.1491565 L139.167323,60.4254166 C136.491533,62.7428409 133.354142,63.9023106 129.755524,63.9023106 C127.147656,63.9023106 124.808394,63.3161615 122.737309,62.1441511 C119.852905,63.244055 116.951059,63.3665658 114.031264,62.5121969 C111.566839,61.7907469 109.907887,60.7627411 108.444305,58.9831679 C108.373077,59.033409 106.81564,60.2345454 106.74396,60.2830303 C104.506129,61.7856818 101.927539,62.5375757 99.0063122,62.5375757 C96.1199257,62.5375757 93.5625817,61.81954 91.3337001,60.3838588 C87.3407752,63.1567062 82.6975423,64.5437121 77.403309,64.5437121 C73.2616149,64.5437121 69.5133021,63.6949699 66.1577077,61.9980428 C63.8227324,63.8839043 62.3252444,64.6578289 56.9296165,64.3912121 C53.1666234,64.6999242 39.4698087,65.1075 36.3072733,62.8279545 C33.4088433,60.7394958 31.3494962,57.4040494 30.7795875,52.8174972 C29.1563123,53.3481827 27.4326892,53.7224178 25.6087689,53.9401515 C24.8792128,56.4689394 23.3709382,58.5333333 21.0854463,60.135606 C18.7984531,61.7367424 16.1478078,62.5375 13.1327598,62.5375 C9.53264074,62.5375 6.4444119,61.4204545 3.86694737,59.1871212 C1.2879817,56.9530303 0,54.2780303 0,51.1587121 L0,34.5965909 C0,29.2026515 2.2126865,24.5878788 6.63918536,20.7526515 C11.0645584,16.9181818 16.3909932,15 22.6173639,15 C27.2157898,15 31.3234394,16.0465089 34.9403128,18.1387635 Z" id="Combined-Shape" fill="#000000"></path>
            <path d="M25.7305117,38.2589015 C24.8298252,39.0392045 23.7242325,39.4282197 22.4111066,39.4282197 L17.7414224,39.4282197 L17.7414224,35.3823864 C17.7414224,34.2873106 18.2030243,33.3388258 19.1277291,32.5376894 C20.0509327,31.7380682 21.1456421,31.336553 22.4111066,31.336553 C23.67507,31.336553 24.7697794,31.7380682 25.6941089,32.5376894 C26.6176879,33.3388258 27.0804156,34.2873106 27.0804156,35.3823864 C27.0804156,36.5202652 26.6300723,37.4793561 25.7305117,38.2589015 M32.4792805,26.6903409 C29.7066673,24.2676136 26.3508595,23.0554924 22.4111066,23.0554924 C18.4709785,23.0554924 15.1147954,24.2566288 12.3425574,26.6589015 C9.56994416,29.0607955 8.18401281,31.9691288 8.18401281,35.3823864 L8.18401281,51.9448864 C8.18401281,53.0827652 8.64561465,54.0524621 9.56994416,54.8524621 C10.4935231,55.6535985 11.6130014,56.0535985 12.9261272,56.0535985 C14.2392531,56.0535985 15.3703652,55.6535985 16.318713,54.8524621 C17.2674362,54.0524621 17.7414224,53.0827652 17.7414224,51.9448864 L17.7414224,47.7725379 L22.4111066,47.7725379 C26.3508595,47.7725379 29.7066673,46.561553 32.4792805,44.1376894 C35.2515185,41.7149621 36.6378252,38.7960227 36.6378252,35.3823864 C36.6378252,32.011553 35.2515185,29.1142045 32.4792805,26.6903409" id="Fill-16" fill="#FFFFFF"></path>
            <path d="M55.9134169,56.6159091 L43.3372064,56.6159091 C42.2098471,56.6159091 41.2389822,56.15 40.4249867,55.2166667 C39.610616,54.2848485 39.1951744,53.2022727 39.1951744,51.8768939 L39.1951744,27.0965909 C39.1951744,25.9590909 39.6567762,24.9791667 40.581481,24.157197 C41.5046847,23.3352273 42.6241629,22.9246212 43.9372888,22.9246212 C45.2507899,22.9246212 46.3815268,23.3352273 47.3298746,24.157197 C48.2785977,24.9791667 48.752584,25.9590909 48.752584,27.0965909 L48.7529593,46.9689394 L57.0700485,46.9689394 L57.0700485,46.9469697 L59.0230371,46.9469697 C60.1503963,46.9469697 61.1111286,47.4257576 61.904108,48.3829545 C62.6974627,49.3405303 63.09414,50.4818182 63.09414,51.8075758 C63.09414,53.1329545 62.6974627,54.2628788 61.904108,55.1950758 C61.1111286,56.1280303 60.1503963,56.6159091 59.0230371,56.6159091 L55.9137922,56.6159091 L55.9134169,56.6159091 L55.9134169,56.6159091 Z" id="Fill-14" fill="#FFFFFF"></path>
            <path d="M135.630439,45.3608333 L135.630815,51.7233333 C135.630815,52.9036364 135.156453,53.8941667 134.208105,54.6945455 C133.259382,55.495303 132.128645,55.895303 130.815519,55.895303 C129.502018,55.895303 128.38254,55.495303 127.459336,54.6945455 C126.534632,53.8941667 126.07303,52.9036364 126.07303,51.7233333 L126.07303,26.9430303 C126.07303,25.8051515 126.534632,24.8252273 127.459336,24.0036364 C128.38254,23.1816667 129.502018,22.7710606 130.815519,22.7710606 C132.128645,22.7710606 133.259382,23.1816667 134.208105,24.0036364 C135.156453,24.8252273 135.630815,25.8051515 135.630815,26.9430303 L135.630439,35.632803 L140.347034,35.632803 C142.40773,35.632803 143.799666,34.7915152 144.521716,33.107803 C145.036609,31.5737121 145.552252,30.0388636 146.06827,28.5036364 C146.841359,26.8214394 148.283959,25.9790152 150.397945,25.9790152 C151.789881,25.9790152 152.974659,26.4498485 153.954531,27.39 C154.932902,28.3309091 155.4234,29.4691667 155.4234,30.8059091 C155.4234,35.1131061 153.773268,38.7028788 150.475254,41.5737121 L154.495693,47.2172727 C155.114165,48.1085606 155.921405,49.9043939 155.921405,50.8445455 C155.921405,52.1812879 155.679721,53.2062879 154.70135,54.1718182 C153.721478,55.1369697 152.260865,55.4945455 150.818641,55.4945455 C149.117469,55.4945455 147.253048,54.1733333 146.222888,52.7869697 L140.810888,45.3608333 L135.630439,45.3608333 L135.630439,45.3608333 Z" id="Fill-18" fill="#FFFFFF"></path>
            <path d="M63.9685941,27.4151136 C63.9685941,26.2772348 64.4425803,25.3082955 65.3913034,24.5075379 C66.3396513,23.7071591 67.4707634,23.3060227 68.7838892,23.3060227 C70.0973904,23.3060227 71.2281272,23.7071591 72.1764751,24.5075379 C73.1251982,25.3082955 73.5991844,26.2772348 73.5991844,27.4151136 L73.5991844,44.0408712 C73.5991844,45.1370833 74.0607863,46.0851894 74.9854911,46.8855682 C75.90907,47.6863258 77.0030288,48.0863258 78.2684934,48.0863258 C79.532832,48.0863258 80.6271661,47.6863258 81.5518709,46.8855682 C82.4750746,46.0851894 82.9381776,45.1370833 82.9381776,44.0408712 L82.9381776,27.4783712 C82.9381776,26.3404924 83.4121638,25.360947 84.360887,24.5389773 C85.3092348,23.7173864 86.4399716,23.3060227 87.7534728,23.3060227 C89.0665986,23.3060227 90.184951,23.7173864 91.1096558,24.5389773 C92.0328595,25.360947 92.4955872,26.3404924 92.4955872,27.4783712 L92.4959625,44.0408712 C92.4468,47.4541288 90.9749281,50.3620833 88.227459,52.7643561 C85.4792394,55.1666288 82.1354407,56.3673864 78.1956879,56.3673864 C74.255935,56.3673864 70.8997519,55.1564015 68.1271387,52.7325379 C65.3549007,50.3098106 63.9685941,47.4128409 63.9685941,44.0408712 L63.9685941,27.4151136 L63.9685941,27.4151136 Z" id="Fill-20" fill="#FFFFFF"></path>
            <path d="M113.075185,31.6373864 C112.150481,30.8370076 111.056146,30.43625 109.791808,30.43625 C108.526719,30.43625 107.432384,30.8370076 106.508805,31.6373864 C105.584101,32.4385227 105.122499,33.3866288 105.122499,34.4820833 L105.122499,38.5275379 L109.791808,38.5275379 C111.105309,38.5275379 112.210902,38.1385227 113.111588,37.3582197 C114.011149,36.579053 114.461492,35.6199621 114.461492,34.4820833 C114.461492,33.3866288 113.998389,32.4385227 113.075185,31.6373864 M119.434783,43.4854924 L122.62584,48.7582197 C123.238682,49.7135227 123.362902,50.7877652 122.997373,51.9794318 C122.632595,53.1722348 121.898535,54.1286742 120.79632,54.8491288 C119.694105,55.5692045 118.5386,55.8476136 117.33243,55.6817045 C116.125135,55.5169318 115.215442,54.9563258 114.602975,54.0006439 L110.250032,47.1745076 M110.242902,47.179053 C110.206874,47.180947 110.170471,47.1832197 110.134444,47.1851136 C109.851103,47.1998864 109.565886,47.2070833 109.278416,47.2070833 L105.124,47.2256439 L105.129254,51.06125 C105.129254,53.7593561 102.881666,55.9468561 100.108677,55.9468561 C97.3360641,55.9468561 95.088476,53.7593561 95.088476,51.06125 L95.088476,46.4139015 L95.088476,35.1752652 C95.0847231,35.0593561 95.088476,34.9426894 95.088476,34.8256439 C95.088476,27.9877652 101.430059,22.4442045 109.278416,22.4442045 C117.126773,22.4442045 123.489373,27.9877652 123.489373,34.8256439 C123.489373,38.1968561 121.942819,41.2529167 119.434783,43.4854924" id="Fill-22" fill="#FFFFFF"></path>
            <path d="M280.238507,18.588477 C273.375163,7.43586798 261.055951,0 247,0 C243.975871,0 241.032135,0.344200731 238.20583,0.995563029 C220.902014,4.98347417 208,20.4850237 208,39 C208,60.5391052 225.460895,78 247,78 C268.539105,78 286,60.5391052 286,39 C286,32.8411923 284.572407,27.0158169 282.030081,21.8367339 L274.047338,22.675754 L274.047338,56.6185148 L273.774831,56.6185148 L273.778854,56.6567916 L266.555957,57.4159486 L266.198706,54.0169383 L270.629605,53.5512321 L270.629605,23.0349723 L262.305901,23.9098288 L261.948651,20.5108185 L280.238507,18.588477 L280.238507,18.588477 Z M231.170759,40.9217027 L231.170759,33.6580451 L238.775358,32.8587696 L238.418107,29.4597593 L231.170759,30.2214863 L231.170759,23.1820531 L238.749162,21.008981 L237.807107,17.7236452 L220.148427,22.7871902 L221.090482,26.072526 L227.753026,24.1620723 L227.753026,30.5807045 L227.753026,30.5807045 L220.148427,31.3799801 L220.505677,34.7789904 L227.753026,34.0172633 L227.753026,41.2809209 L217.696397,42.3379152 L218.053648,45.7369255 L227.753026,44.7174798 L227.753026,57.6626136 L222.470034,58.2178784 L222.827285,61.6168887 L230.839237,60.7747986 L231.170759,60.7747986 L231.170759,44.3582616 L240.996967,43.3254855 L240.639717,39.9264751 L231.170759,40.9217027 L231.170759,40.9217027 Z M255.249806,43.7468382 L255.249806,56.1912982 L255.189731,56.1912982 L255.1961,56.2519031 L248.39808,56.9664039 L248.04083,53.5673936 L251.832073,53.1689178 L251.832073,44.7268574 L247.808077,45.8807197 L246.866022,42.5953839 L251.832073,41.1713917 L251.832073,29.8704383 L246.466231,30.434411 L246.108981,27.0354007 L251.832073,26.4338794 L251.832073,16.4601519 L255.249806,16.4601519 L255.249806,26.0746611 L260.188432,25.5555907 L260.545682,28.954601 L255.249806,29.51122 L255.249806,40.1913725 L258.846586,39.1600126 L259.788641,42.4453484 L255.249806,43.7468382 L255.249806,43.7468382 Z" id="Oval-2-Copy-4" fill="#000000"></path>
            <polygon id="Rectangle-129" fill="#FFFFFF" opacity="0.5" points="239 66.053918 257.747364 64 258.102041 67.5175105 239.354677 69.5714286 239 66.053918"></polygon>
            <polygon id="Combined-Shape" fill="#000000" points="187.838835 40.7175144 192.435029 36.1213203 190.313708 34 185.717514 38.5961941 181.12132 34 179 36.1213203 183.596194 40.7175144 179 45.3137085 181.12132 47.4350288 185.717514 42.8388348 190.313708 47.4350288 192.435029 45.3137085"></polygon>
        </g>
    </g>
</svg>