<?xml version="1.0" encoding="UTF-8"?>
<svg width="173px" height="67px" viewBox="0 0 173 67" version="1.1" xmlns="http://www.w3.org/2000/svg" xmlns:xlink="http://www.w3.org/1999/xlink">
    <!-- Generator: Sketch 40.3 (33839) - http://www.bohemiancoding.com/sketch -->
    <title>F</title>
    <desc>Created with Sketch.</desc>
    <defs>
        <rect id="path-1" x="0" y="0" width="173" height="67"></rect>
        <mask id="mask-2" maskContentUnits="userSpaceOnUse" maskUnits="objectBoundingBox" x="0" y="0" width="173" height="67" fill="white">
            <use xlink:href="#path-1"></use>
        </mask>
    </defs>
    <g id="Main" stroke="none" stroke-width="1" fill="none" fill-rule="evenodd">
        <g id="合作社" transform="translate(-354.000000, -3156.000000)">
            <g id="Dock" transform="translate(80.000000, 3129.000000)">
                <g id="F" transform="translate(274.000000, 27.000000)">
                    <use id="Rectangle-8" stroke="#FDD768" mask="url(#mask-2)" stroke-width="10" fill="#FDD768" xlink:href="#path-1"></use>
                    <path d="M28.8754998,27.168 C27.4124998,27.168 26.2344998,27.662 25.3414998,28.65 C24.4674998,29.581 24.0304998,30.797 24.0114998,32.317 L26.2344998,32.317 C26.2724998,31.253 26.5004998,30.436 26.9184998,29.904 C27.3364998,29.334 27.9634998,29.049 28.7994998,29.049 C29.5784998,29.049 30.1674998,29.22 30.5664998,29.581 C30.9464998,29.942 31.1554998,30.493 31.1554998,31.234 C31.1554998,31.994 30.8514998,32.716 30.2624998,33.381 C29.8824998,33.78 29.2744998,34.293 28.4004998,34.901 C26.8234998,35.984 25.7784998,36.82 25.2844998,37.39 C24.3724998,38.416 23.9354998,39.613 23.9354998,41 L33.3974998,41 L33.3974998,39.043 L26.7094998,39.043 C27.0134998,38.359 27.8494998,37.561 29.2364998,36.649 C30.5664998,35.756 31.5164998,35.034 32.0484998,34.464 C32.9224998,33.495 33.3784998,32.431 33.3784998,31.253 C33.3784998,30.037 32.9604998,29.068 32.1244998,28.308 C31.2694998,27.548 30.1864998,27.168 28.8754998,27.168 L28.8754998,27.168 Z M44.5264999,27.168 C42.9304999,27.168 41.6954999,27.814 40.8214999,29.144 C39.9854999,30.398 39.5674999,32.089 39.5674999,34.217 C39.5674999,36.345 39.9854999,38.036 40.8214999,39.29 C41.6954999,40.601 42.9304999,41.266 44.5264999,41.266 C46.1034999,41.266 47.3384999,40.601 48.2314999,39.29 C49.0674999,38.036 49.4854999,36.345 49.4854999,34.217 C49.4854999,32.089 49.0674999,30.398 48.2314999,29.144 C47.3384999,27.814 46.1034999,27.168 44.5264999,27.168 L44.5264999,27.168 Z M44.5264999,29.049 C45.5904999,29.049 46.3504999,29.638 46.8064999,30.854 C47.1104999,31.671 47.2624999,32.792 47.2624999,34.217 C47.2624999,35.623 47.1104999,36.744 46.8064999,37.58 C46.3504999,38.777 45.5904999,39.385 44.5264999,39.385 C43.4434999,39.385 42.6834999,38.777 42.2464999,37.58 C41.9424999,36.744 41.7904999,35.623 41.7904999,34.217 C41.7904999,32.792 41.9424999,31.671 42.2464999,30.854 C42.6834999,29.638 43.4434999,29.049 44.5264999,29.049 L44.5264999,29.049 Z M59.0944999,27.434 C58.6384999,27.909 58.0684999,28.346 57.3844999,28.764 C56.7004999,29.144 56.0544999,29.41 55.4464999,29.562 L55.4464999,31.766 C56.7004999,31.405 57.7264999,30.854 58.5434999,30.113 L58.5434999,41 L60.7664999,41 L60.7664999,27.434 L59.0944999,27.434 Z M72.8264999,27.168 C71.2494999,27.168 69.9954999,27.852 69.0834999,29.22 C68.1524999,30.588 67.6964999,32.374 67.6964999,34.597 C67.6964999,36.668 68.1144999,38.283 68.9884999,39.461 C69.8624999,40.658 71.1354999,41.266 72.8074999,41.266 C74.1564999,41.266 75.2964999,40.81 76.2084999,39.936 C77.1204999,39.062 77.5954999,37.941 77.5954999,36.573 C77.5954999,35.243 77.1964999,34.141 76.3984999,33.286 C75.6004999,32.431 74.5364999,32.013 73.2064999,32.013 C72.5224999,32.013 71.9144999,32.127 71.3824999,32.393 C70.8124999,32.659 70.3374999,33.058 69.9574999,33.628 L69.8624999,33.628 L69.8624999,33.457 C69.8624999,32.203 70.1094999,31.158 70.6414999,30.322 C71.1734999,29.429 71.8954999,28.992 72.8074999,28.992 C74.0994999,28.992 74.8974999,29.619 75.1634999,30.873 L77.3294999,30.873 C76.9874999,28.403 75.4864999,27.168 72.8264999,27.168 L72.8264999,27.168 Z M72.7314999,33.818 C73.5484999,33.818 74.1944999,34.065 74.6884999,34.578 C75.1444999,35.072 75.3914999,35.737 75.3914999,36.573 C75.3914999,37.409 75.1444999,38.093 74.6504999,38.625 C74.1564999,39.157 73.5294999,39.423 72.7314999,39.423 C71.9524999,39.423 71.3254999,39.176 70.8314999,38.682 C70.3374999,38.188 70.0904999,37.504 70.0904999,36.649 C70.0904999,35.775 70.3184999,35.072 70.7934999,34.578 C71.2494999,34.065 71.8954999,33.818 72.7314999,33.818 L72.7314999,33.818 Z M85.3995,38.131 C84.9815,38.131 84.6205,38.264 84.3545,38.568 C84.0505,38.853 83.9175,39.214 83.9175,39.632 C83.9175,40.05 84.0505,40.392 84.3545,40.696 C84.6205,40.962 84.9815,41.114 85.3995,41.114 C85.8175,41.114 86.1595,40.962 86.4635,40.696 C86.7485,40.392 86.9005,40.05 86.9005,39.632 C86.9005,39.214 86.7485,38.853 86.4635,38.568 C86.1595,38.264 85.8175,38.131 85.3995,38.131 L85.3995,38.131 Z M96.8895,27.434 C96.4335,27.909 95.8635,28.346 95.1795,28.764 C94.4955,29.144 93.8495,29.41 93.2415,29.562 L93.2415,31.766 C94.4955,31.405 95.5215,30.854 96.3385,30.113 L96.3385,41 L98.5615,41 L98.5615,27.434 L96.8895,27.434 Z M109.1395,27.434 C108.6835,27.909 108.1135,28.346 107.4295,28.764 C106.7455,29.144 106.0995,29.41 105.4915,29.562 L105.4915,31.766 C106.7455,31.405 107.7715,30.854 108.5885,30.113 L108.5885,41 L110.8115,41 L110.8115,27.434 L109.1395,27.434 Z M119.5845,38.131 C119.1665,38.131 118.8055,38.264 118.5395,38.568 C118.2355,38.853 118.1025,39.214 118.1025,39.632 C118.1025,40.05 118.2355,40.392 118.5395,40.696 C118.8055,40.962 119.1665,41.114 119.5845,41.114 C120.0025,41.114 120.3445,40.962 120.6485,40.696 C120.9335,40.392 121.0855,40.05 121.0855,39.632 C121.0855,39.214 120.9335,38.853 120.6485,38.568 C120.3445,38.264 120.0025,38.131 119.5845,38.131 L119.5845,38.131 Z M132.3665,27.168 C130.7705,27.168 129.5355,27.814 128.6615,29.144 C127.8255,30.398 127.4075,32.089 127.4075,34.217 C127.4075,36.345 127.8255,38.036 128.6615,39.29 C129.5355,40.601 130.7705,41.266 132.3665,41.266 C133.9435,41.266 135.1785,40.601 136.0715,39.29 C136.9075,38.036 137.3255,36.345 137.3255,34.217 C137.3255,32.089 136.9075,30.398 136.0715,29.144 C135.1785,27.814 133.9435,27.168 132.3665,27.168 L132.3665,27.168 Z M132.3665,29.049 C133.4305,29.049 134.1905,29.638 134.6465,30.854 C134.9505,31.671 135.1025,32.792 135.1025,34.217 C135.1025,35.623 134.9505,36.744 134.6465,37.58 C134.1905,38.777 133.4305,39.385 132.3665,39.385 C131.2835,39.385 130.5235,38.777 130.0865,37.58 C129.7825,36.744 129.6305,35.623 129.6305,34.217 C129.6305,32.792 129.7825,31.671 130.0865,30.854 C130.5235,29.638 131.2835,29.049 132.3665,29.049 L132.3665,29.049 Z M143.0965,27.434 L143.0965,29.448 L150.0315,29.448 L145.1675,41 L147.5235,41 L152.2735,29.22 L152.2735,27.434 L143.0965,27.434 Z" id="2016.11.07" fill="#000000"></path>
                </g>
            </g>
        </g>
    </g>
</svg>